<mxfile host="Electron" modified="2023-09-15T12:47:53.600Z" agent="Mozilla/5.0 (Macintosh; Intel Mac OS X 10_15_7) AppleWebKit/537.36 (KHTML, like Gecko) draw.io/21.7.5 Chrome/114.0.5735.289 Electron/25.8.1 Safari/537.36" etag="FLfqCK-9xxYt2Qd18AZU" version="21.7.5" type="device">
  <diagram name="Page-1" id="x93AxDIGWxLh5ShnxDl3">
    <mxGraphModel dx="795" dy="478" grid="1" gridSize="10" guides="1" tooltips="1" connect="1" arrows="1" fold="1" page="1" pageScale="1" pageWidth="1169" pageHeight="827" math="0" shadow="0">
      <root>
        <mxCell id="0" />
        <mxCell id="1" parent="0" />
        <mxCell id="hlh9XajdtWrO3LSi_3L6-56" value="" style="rounded=1;whiteSpace=wrap;html=1;arcSize=9;dashed=1;dashPattern=1 4;" vertex="1" parent="1">
          <mxGeometry x="300" y="100" width="100" height="80" as="geometry" />
        </mxCell>
        <mxCell id="hlh9XajdtWrO3LSi_3L6-1" value="" style="rounded=1;whiteSpace=wrap;html=1;arcSize=8;dashed=1;dashPattern=1 2;" vertex="1" parent="1">
          <mxGeometry x="230" y="220" width="630" height="240" as="geometry" />
        </mxCell>
        <mxCell id="hlh9XajdtWrO3LSi_3L6-3" value="" style="image;sketch=0;aspect=fixed;html=1;points=[];align=center;fontSize=12;image=img/lib/mscae/Kubernetes.svg;" vertex="1" parent="1">
          <mxGeometry x="834" y="198" width="44.79" height="43" as="geometry" />
        </mxCell>
        <mxCell id="hlh9XajdtWrO3LSi_3L6-4" value="" style="rounded=0;whiteSpace=wrap;html=1;dashed=1;dashPattern=1 1;" vertex="1" parent="1">
          <mxGeometry x="260" y="250" width="570" height="180" as="geometry" />
        </mxCell>
        <mxCell id="hlh9XajdtWrO3LSi_3L6-2" value="" style="sketch=0;html=1;dashed=0;whitespace=wrap;fillColor=#2875E2;strokeColor=#ffffff;points=[[0.005,0.63,0],[0.1,0.2,0],[0.9,0.2,0],[0.5,0,0],[0.995,0.63,0],[0.72,0.99,0],[0.5,1,0],[0.28,0.99,0]];verticalLabelPosition=bottom;align=center;verticalAlign=top;shape=mxgraph.kubernetes.icon;prIcon=ns" vertex="1" parent="1">
          <mxGeometry x="242" y="230" width="39" height="40" as="geometry" />
        </mxCell>
        <mxCell id="hlh9XajdtWrO3LSi_3L6-6" value="" style="sketch=0;outlineConnect=0;fontColor=#232F3E;gradientColor=none;fillColor=#232F3D;strokeColor=none;dashed=0;verticalLabelPosition=bottom;verticalAlign=top;align=center;html=1;fontSize=12;fontStyle=0;aspect=fixed;pointerEvents=1;shape=mxgraph.aws4.authenticated_user;" vertex="1" parent="1">
          <mxGeometry x="120" y="321" width="48" height="48" as="geometry" />
        </mxCell>
        <mxCell id="hlh9XajdtWrO3LSi_3L6-7" value="" style="endArrow=classic;html=1;rounded=0;entryX=0.152;entryY=0.517;entryDx=0;entryDy=0;entryPerimeter=0;" edge="1" parent="1">
          <mxGeometry width="50" height="50" relative="1" as="geometry">
            <mxPoint x="170" y="344.57" as="sourcePoint" />
            <mxPoint x="310.1600000000001" y="344.50000000000006" as="targetPoint" />
          </mxGeometry>
        </mxCell>
        <mxCell id="hlh9XajdtWrO3LSi_3L6-10" value="" style="group" vertex="1" connectable="0" parent="1">
          <mxGeometry x="310" y="312" width="80" height="69" as="geometry" />
        </mxCell>
        <mxCell id="hlh9XajdtWrO3LSi_3L6-9" value="OAuth2 Proxy" style="rounded=1;whiteSpace=wrap;html=1;" vertex="1" parent="hlh9XajdtWrO3LSi_3L6-10">
          <mxGeometry width="70" height="60" as="geometry" />
        </mxCell>
        <mxCell id="hlh9XajdtWrO3LSi_3L6-8" value="" style="sketch=0;html=1;dashed=0;whitespace=wrap;fillColor=#2875E2;strokeColor=#ffffff;points=[[0.005,0.63,0],[0.1,0.2,0],[0.9,0.2,0],[0.5,0,0],[0.995,0.63,0],[0.72,0.99,0],[0.5,1,0],[0.28,0.99,0]];verticalLabelPosition=bottom;align=center;verticalAlign=top;shape=mxgraph.kubernetes.icon;prIcon=pod;direction=south;" vertex="1" parent="hlh9XajdtWrO3LSi_3L6-10">
          <mxGeometry x="50" y="39" width="30" height="30" as="geometry" />
        </mxCell>
        <mxCell id="hlh9XajdtWrO3LSi_3L6-16" value="" style="group" vertex="1" connectable="0" parent="1">
          <mxGeometry x="320" y="100" width="60" height="80" as="geometry" />
        </mxCell>
        <mxCell id="hlh9XajdtWrO3LSi_3L6-12" value="Azure AD" style="text;html=1;strokeColor=none;fillColor=none;align=center;verticalAlign=middle;whiteSpace=wrap;rounded=0;" vertex="1" parent="hlh9XajdtWrO3LSi_3L6-16">
          <mxGeometry y="50" width="60" height="30" as="geometry" />
        </mxCell>
        <mxCell id="hlh9XajdtWrO3LSi_3L6-17" value="" style="group" vertex="1" connectable="0" parent="1">
          <mxGeometry x="342.6" y="180" width="10.4" height="132" as="geometry" />
        </mxCell>
        <mxCell id="hlh9XajdtWrO3LSi_3L6-13" value="" style="endArrow=classic;html=1;rounded=0;" edge="1" parent="hlh9XajdtWrO3LSi_3L6-17">
          <mxGeometry width="50" height="50" relative="1" as="geometry">
            <mxPoint y="132" as="sourcePoint" />
            <mxPoint x="0.39999999999997815" as="targetPoint" />
          </mxGeometry>
        </mxCell>
        <mxCell id="hlh9XajdtWrO3LSi_3L6-14" value="" style="endArrow=none;html=1;rounded=0;startArrow=classic;startFill=1;endFill=0;" edge="1" parent="hlh9XajdtWrO3LSi_3L6-17">
          <mxGeometry width="50" height="50" relative="1" as="geometry">
            <mxPoint x="10.000000000000021" y="132" as="sourcePoint" />
            <mxPoint x="10.4" as="targetPoint" />
          </mxGeometry>
        </mxCell>
        <mxCell id="hlh9XajdtWrO3LSi_3L6-11" value="" style="image;aspect=fixed;html=1;points=[];align=center;fontSize=12;image=img/lib/azure2/identity/Azure_Active_Directory.svg;" vertex="1" parent="1">
          <mxGeometry x="326.49" y="110" width="47.02" height="43" as="geometry" />
        </mxCell>
        <mxCell id="hlh9XajdtWrO3LSi_3L6-19" value="" style="group" vertex="1" connectable="0" parent="1">
          <mxGeometry x="442" y="312" width="80" height="69" as="geometry" />
        </mxCell>
        <mxCell id="hlh9XajdtWrO3LSi_3L6-20" value="OCost&lt;br&gt;" style="rounded=1;whiteSpace=wrap;html=1;verticalAlign=top;" vertex="1" parent="hlh9XajdtWrO3LSi_3L6-19">
          <mxGeometry width="70" height="60" as="geometry" />
        </mxCell>
        <mxCell id="hlh9XajdtWrO3LSi_3L6-21" value="" style="sketch=0;html=1;dashed=0;whitespace=wrap;fillColor=#2875E2;strokeColor=#ffffff;points=[[0.005,0.63,0],[0.1,0.2,0],[0.9,0.2,0],[0.5,0,0],[0.995,0.63,0],[0.72,0.99,0],[0.5,1,0],[0.28,0.99,0]];verticalLabelPosition=bottom;align=center;verticalAlign=top;shape=mxgraph.kubernetes.icon;prIcon=pod" vertex="1" parent="hlh9XajdtWrO3LSi_3L6-19">
          <mxGeometry x="50" y="39" width="30" height="30" as="geometry" />
        </mxCell>
        <mxCell id="hlh9XajdtWrO3LSi_3L6-22" value="" style="image;aspect=fixed;perimeter=ellipsePerimeter;html=1;align=center;shadow=0;dashed=0;fontColor=#4277BB;labelBackgroundColor=default;fontSize=12;spacingTop=3;image=img/lib/ibm/infrastructure/dashboard.svg;" vertex="1" parent="hlh9XajdtWrO3LSi_3L6-19">
          <mxGeometry x="20.75" y="24.25" width="27.75" height="27.75" as="geometry" />
        </mxCell>
        <mxCell id="hlh9XajdtWrO3LSi_3L6-23" value="" style="endArrow=classic;html=1;rounded=0;exitX=1;exitY=0.5;exitDx=0;exitDy=0;" edge="1" parent="hlh9XajdtWrO3LSi_3L6-19" source="hlh9XajdtWrO3LSi_3L6-9">
          <mxGeometry width="50" height="50" relative="1" as="geometry">
            <mxPoint x="-40" y="30.670000000000016" as="sourcePoint" />
            <mxPoint y="31" as="targetPoint" />
          </mxGeometry>
        </mxCell>
        <mxCell id="hlh9XajdtWrO3LSi_3L6-25" value="" style="endArrow=none;html=1;rounded=0;entryX=0;entryY=0.5;entryDx=0;entryDy=0;endFill=0;dashed=1;" edge="1" parent="1" target="hlh9XajdtWrO3LSi_3L6-41">
          <mxGeometry width="50" height="50" relative="1" as="geometry">
            <mxPoint x="512" y="340" as="sourcePoint" />
            <mxPoint x="552" y="340.33" as="targetPoint" />
          </mxGeometry>
        </mxCell>
        <mxCell id="hlh9XajdtWrO3LSi_3L6-40" value="" style="group" vertex="1" connectable="0" parent="1">
          <mxGeometry x="572" y="310" width="80" height="69" as="geometry" />
        </mxCell>
        <mxCell id="hlh9XajdtWrO3LSi_3L6-41" value="OpenCost" style="rounded=1;whiteSpace=wrap;html=1;verticalAlign=middle;" vertex="1" parent="hlh9XajdtWrO3LSi_3L6-40">
          <mxGeometry width="70" height="60" as="geometry" />
        </mxCell>
        <mxCell id="hlh9XajdtWrO3LSi_3L6-42" value="" style="sketch=0;html=1;dashed=0;whitespace=wrap;fillColor=#2875E2;strokeColor=#ffffff;points=[[0.005,0.63,0],[0.1,0.2,0],[0.9,0.2,0],[0.5,0,0],[0.995,0.63,0],[0.72,0.99,0],[0.5,1,0],[0.28,0.99,0]];verticalLabelPosition=bottom;align=center;verticalAlign=top;shape=mxgraph.kubernetes.icon;prIcon=pod" vertex="1" parent="hlh9XajdtWrO3LSi_3L6-40">
          <mxGeometry x="50" y="39" width="30" height="30" as="geometry" />
        </mxCell>
        <mxCell id="hlh9XajdtWrO3LSi_3L6-45" value="" style="shape=image;verticalLabelPosition=bottom;labelBackgroundColor=default;verticalAlign=top;aspect=fixed;imageAspect=0;image=data:image/png,iVBORw0KGgoAAAANSUhEUgAAAQ4AAAD2CAYAAAAnB2llAAAAAXNSR0IArs4c6QAAAIRlWElmTU0AKgAAAAgABQESAAMAAAABAAEAAAEaAAUAAAABAAAASgEbAAUAAAABAAAAUgEoAAMAAAABAAIAAIdpAAQAAAABAAAAWgAAAAAAAAEgAAAAAQAAASAAAAABAAOgAQADAAAAAQABAACgAgAEAAAAAQAAAQ6gAwAEAAAAAQAAAPYAAAAAf+KnUQAAAAlwSFlzAAAsSwAALEsBpT2WqQAAAVlpVFh0WE1MOmNvbS5hZG9iZS54bXAAAAAAADx4OnhtcG1ldGEgeG1sbnM6eD0iYWRvYmU6bnM6bWV0YS8iIHg6eG1wdGs9IlhNUCBDb3JlIDYuMC4wIj4KICAgPHJkZjpSREYgeG1sbnM6cmRmPSJodHRwOi8vd3d3LnczLm9yZy8xOTk5LzAyLzIyLXJkZi1zeW50YXgtbnMjIj4KICAgICAgPHJkZjpEZXNjcmlwdGlvbiByZGY6YWJvdXQ9IiIKICAgICAgICAgICAgeG1sbnM6dGlmZj0iaHR0cDovL25zLmFkb2JlLmNvbS90aWZmLzEuMC8iPgogICAgICAgICA8dGlmZjpPcmllbnRhdGlvbj4xPC90aWZmOk9yaWVudGF0aW9uPgogICAgICA8L3JkZjpEZXNjcmlwdGlvbj4KICAgPC9yZGY6UkRGPgo8L3g6eG1wbWV0YT4KGV7hBwAAQABJREFUeAHsvQmAXFWVN37fUluv6U53Z18h6SwEAmFJhyBhERREUIyj6Chuo6Oj83fG8dPRGZoZl3H8RkdGUEYHR4cZv0lcUAREEFohC0hACFlJIISQrZf0Xttb/r/fvfW6q7urqqu7q3pJ3k266tV7dz3v3t8959xzz9WEH3wKFI4Cmti4URebNzvI0u3L9qKVM4WRPMfQ9cWucGuFo1XjcZ3QRZdw3eNCaJ2OJl4RmtgrArMOiqYmqy/txo0G8mNezNMPk4QC2iSph1+NqU6BDRvMAQN+7fILdM25CSN+AzrZeQCFCqHrQuj4RRhw8aHhmj2Q1zb+XDcJYHlV0/THHcf9ldB6HhHbjkQlaVT+NmPL3/7HhFKAr80PPgVGT4FG8A2NCgqQiWY0LHu3I9yPoWNdJkwABYe5A2ZBDXcOfHIOeOziT+Nd/rEfGvKbwEKAcQAhjvOK5ro/dAzte2LLvqN4DhgaBFDypv8x3hTgC/ODT4HRUSB9EK9ddoOmu7dpur4mBRYEBAIF+xiQQIbh+psHJAQXHdwJ/pDUsjuAM//shGf+s+Rq1qwJiB07KM4wvh8mgALDvcgJqJJf5BSggAYug3+OuOzsWt0yvi0M/Z1S5HBcDmj2K3IQYw0EEBsiTQD5C9eyd7q6+wmxZf8TuK+LjShnswSnsZbjpx8hBXzgGCHB/OiSe+CAFmL90vWarf1YM4254AqSYADAHmiFAIzBZFYAYugBJfZof+Ns2/t/ZaR0rmdwKv930ShQjJdctMr6GU84BShySNAw1ta/U3O1BzVdqxC2E8f9IEDDE0kKXVHFwUB5Cu7DEKZ2jTZn+iz3SOuvxKFDjqDocuyYArNCl+znl5ECPseRkSz+zQwU6AeNdcvfBdXlj2Uc103gG6AxXsGF3oTgYQg3af/U3b7vHbLklSuDYtcu1sUP40ABn+MYByKfBkX0g8Yly26GQLJJ6iVdMc6gQUqSqwF4OK6umfoKbXb1HHAe94vmZhs2JIbYvdtXmI5Dh/OBYxyIPMWL6OdKL1m2Bisnv8BqRxDrGRRPQhPTNikSUQnLlZc12pyapHuk5QmpRG1u9kWWcXgpxZJJx6HqfhHjQoGNUhnqivWrqjTDvRsiQilm+16UPUGg0ddqkwZj4EDw3/2iaKh/kxRVGuaG+2L4F0WjgA8cRSPtaZBxI0Ajtdyp24lPa6a5BqsntOQsmSSt4yqLBUOzCODjy+KSsyukpSn1HX4oKgV8UaWo5J3imTel6r9u6UWa0H6AGZ79haLLZJpwoKelqZg2C3W0oO94XFxYaYoDbTQ+80ORKDCZOkCRmuhnOyoKbJQGXFLRqLvaJ0XQDAA4KKKYo8qveImwvCKXaWlG+iGxdsly8dCBuNiw0BdZikfzSTVzFLGZftYjpAAtMpWScd2yBqR9r0jKDauTUwTQ0I+xHwZcx2xdM94n29pc6itJR/jSRxLd5zhGQq0zJa6nEEV7dReG3UFTw3RO3cZk4zbUG3HBHbnC4m5byC1voRm8VJSeffZEK3BP2x7jA8dp+2rH0LCV5PoRGpbOcTX3RliGUrMx+fsKtudDAbPSsPU3yfrXxiZ/nWVFp96HT9ip986KXWO1eY2laMZq7HZdDOCwASWBYhc8xvwNbsXHZjjsxBdXybzmHqGBmt/Hx0jYTMl9omaiypl8T4kpkgK6667HegWvYS8x6QcgKgqLUn4KbRXtTuRS8sqVk1O8khSeuh8+cEzdd1fcmkM/AH3BxalCpoiiUYMPITBKmlgMZW69rHs47ANHEXqKDxxFIOqUznJzSr8xMzQD7Vgo2f/JqhQdSmhoR4EcrphmaK4CjuAJpa8ZGte/MwYK+MAxBuKdpknVQEskq8D1z0oBx1TpJ1xWkSwHlLrz5fvprPQNwYrQUadKhyhC0/0sM1AAWJEKplsJRWMEMzjFlKnST6SGg7IK0KNKtiQcllCSapX/VSAKTJUOUaDmTupsZG9HDflOvGt+T0xwDVW2msMnpg6jKbUPJgB8DOXlioMaTV5+mqwU8IEjK2nG5YEuvXYroGAH5x9neO/alc+V+fe4VKivEE16IJdLFH33Jv8FwQ4mpES7FMexoYn0nDgAnvw0G1UNfY3zqMg2pkQawMCAt252aCf1LcSbYeXYHioVbmKGCJjtwupqlzs9+w8nwmFH4EbGyzmvK48vYEMJYlNl4LGu8GoM2HBFC3+Ipg2YHJt8PQdpUcDgA0cBiZkjKzXoGYED3wOD9UsX647AoUXa5aJdnKMJqw4bLoLCci1XlPbAx8R+TJ5bHFf7hdi2d6tMS+5D7SOR4yJHmWN75MDoS5cMKT+KW9bYajowNSFOwUeXfNDVNVVAb2A7JvkvHziK+4J0cBe6BAqPU4BhkmEn3+wI593wEH4VFZCyZ9PqkT2eX5obxBbxEhhf1YLtvlS3nc+6DfVP4NFXxOZ9v5ZVLo53b1m6zF/XO7Ci0o3yyzCDc8aeCmIt6g9qqiXZFtmOWMyDEvnT/ygMBaZCZyhMS8cvF4oiBGR2WIoiysXd2mUb9LVL/12zEy9C7/jfmmG8Bc8jMOe2hG3DpBu9nf8IHfIfftPU27ItPtMM/TJd1x7S19V/TzTMjch8i+GwpjEllpgaWf0jKcvRqcLqg3kjBaWc9SquhKjo8H3OSEIU9sMHjsLQk6KIIf848BVYuOLS+np9bf0XtIb658D1Pw63ex/RNG22BASCBeNK4yp5Fgm7/OA/dnoFQgQYuRfD+LCmlf5erF85X+4ALTR47NrIOggx85yT+Hxl6gGHXAY6ZWvOS7IdiRmqPfKH/1EoCvjAMTZKUhThwHal/oHiyMXLphtrl92qrat/GPqLnXBr9yX4iTgXs6AjuQtyFvKUsz6wyLcGLMcRlmWDW7lQs61fizWLKyV48FyRQoWV8mR46GI22xiC21PZTpFZG/7XJUxoL4nu8O5U3bnPxg8FpoCPxiMnqLcq4nEMQoJH4viVuuvcAl75OogVtTJbbkfnxitlkVQokCbwqF2gjvNLd+u+G/HLy5sFjjWwT6gyGpZepev6o+B0vHy9csZaRjHSs446j4rEyfd34qS3v5AHNflnzBaD1n0driiZn0aZQhTBmR2eOz1PFLmk/ly9YdntWvzYC9hE+jBEkfdDFKlVogj0E3IASs6ikAMOelNwHhBbUNZb9XVLP45yHLjKK5R3LrruURxGSDzvOu6L4JpY/8l+2JFaBbKdhOO6v1F97xg5MQWC6ob/WSAKFLJDF6hKkyibRgBrnyiy2ZbiyEUrZxrrlv0Z9BaP67r7rDC0v4coslzOyhb0EH2iiBx8xeHopMcrcgEQJlz901JkaToUkzNsIcnXtL8FKPWz1MmOk3wAQkxBb4b1yU5Q/nFJhliV9HdYSJL4eSkKUG72w0AKECzUEmojZnLRxNk8LOLhq2FZ9G440r7O1fVpnPbBWfBPrZoocaEQQMwBOjzgUAcIdQnsPM7WQoFbUJPviOAJvs+xy/Rq6ZhtcRxd36Qnrc+goBKUx7wLp09BZoUJ9MOhGxBRBDbWb8KxkF3ynTXtihUmfz+XwRQoREcfnOdU/K1EETX4vSVUIXByGZY//0mLh17QdXE/WPZb0LhpaaII28rBWgg6YuxLewnmiWv5x+vMAUcCEDi46oGvm2Qk5fFqeNDJnOPAuxtT4LVl9y7g2A9EQEovYwelgaUU6BfsRLG1BnTY7YTde2SmR8xJziEVqOkTlE1hOtkEVX6MxSprzuYNWmr5VGV30VnzdDNwI6bzd4E4lwIsMITRB5WCkAOaI6hQdGPnpi7EAACAiUG2LIvfFM1VmblAyUE66GTdI65lrRN/OPhaSiFYqAHOsh0uK2Mm3wKRbDrqRF1HofQpyGrMgU6KFefsuv+fs23ftxS3AdHND0WjQK5OWbRCJzhjiiLsaGoJlYrOc88txRLq27W19T/RTXM3Zq9/w8rIpbKe1Fv0D2CmGytoABEkZwH2GghhGiZBA4N/JwzBPg8v/1eAo/k4fr9OUEB5ueR0Ag8rVId8lvI6Ja7Iy4J9bNm3D2X8o1yxoIgkUa1guY8lI9ZFU9yG+5gEDZnbwlw0G0t5ftoUBRRSn/7k8JZQlQigNpgJgTND6P4f5ye/HWefL9A4TjFypSWnwgdyF4WikSobUCF0Q/L9ru0c0yz7Fw5Pf9+273cYBYzDjybM8nvBgD+Gn4zL+5lBnkMHh0AbtruIrEuBgyNXWKDzcKbZ39U6xDWaaVwnkjYPZpoMx0BaALMA6NjiOtpnZduVVS2PcvBDESlQqEFRxCqOOmsliqDn05ipTxxpOOtsXQSwscyFiSR8akIU0TjiJFch5QQMULmEOuqC0xJywPMPYAEtCTkIy+51HedRGIdtcsLxB9ymQ+198bnk+/LLutixI4kdsn9w49az4HwuAJglMM9nOiMEjICadF1NXy3zkR6vjvRlOeYLKkobAVqNB+Lu2mWfAGg0oU4LACUcnJEx5z/6DJKgZwD1wNkv2t/YT+3dkRJRfNAYPU3zTjlWtjvvgsYxIkURtSriFYrDiA1Dvw67TG9Bg6/mxjI53hwChdQxcDbPPKN7eeT/rfLksosGAAJesHNjlfZZ3PixYzg/E0/uf7kvO89mQq1kCDVIFeehNSz7mRYw3gbHu9lmeIUaMHoCGD0OY7ArUxwCwYrPChW8fgIz+uVrdcd5DIM2ArClHmEijlpUeg3WyhW3O1v3NqbazTaz7X4oMgW8DlHkYoqevSeKpIyuZHm6aFh2GU7Z+BNo22/ALDlX3i2eNacarBRFaL2ILgwW+jAI/DPA00/E9n1b0qigw6AMxyxuzjTACWCy88O468vCNP8Ws3yuAYopFxYljvOqa+oN4ok9xwqsIPWq7fUVV1xSfwXw8EG0MwxQzFU3L20hv5MA5ACAC4Ds/gMsRG9D5qAngNoD30KW5ueVkQJTWVRJiSJoFzuMsubk6WPLdFd/O5zVboTqcTUHsYb1fXRwDEauX1KRUQRRxIAdAYeW5XS5lvMwCtkE3cWv3S2wKfAClbKeA5/Nm727g79RRxWQ3U5lTyb1HLzvDV4vCr9xH/YLwp0LLx7n4vexgtlzpJciy5Hla+KpfY87DcuuAl1/ppn6DLSZ4EFRKlP9BuYy+l9svyXFE145zuegDP0arriUThAugopn9JU93VNOReDoF0W8GWbN0hojKK6DzziKIleIgBbE8iE6F4DCkisYVDASMArxPtlt2UmVzoK6Cwu74h17uxRFAtbPxe8PvtbXi6m3ALINALfctWD+rKhra+ZO3ZK7aGl0xSylUhXf6UGtc+i6gQOULkKzHxahotkweHXT6VjIXbf8EoDGj6EwbSANEIpkIMZ3CJKYRsC17DYIZh+yt+2/T4onLNUHDVJhXENBRtI41HioKMLZO/r6FdA3vhtmxm+BKJK2sUwuYZLl518hgpzj5KRLC0X68SX/4jgvg6v5CfDpp2Lb/qf7CmpEuU0bqGfhaGLakQbW2+FpZJqTeBzHMJ6HGTaOnDIpSNVgpp7Ddh5zt+27Cmm9dhM+ixE4y8ONoZzlNfgZ+XuID18Ed2cqzk6KWgS5sfQvtEua1cO4C/kioH33wV7lU2n2Klx2HQ19mZ0fxkCBsbzYMRQ7oqSsY3/nWLf8HAj078SqyNuxfLpSyrrUcUovVYxGUWRMHTa9cpJvwQ2lt+ATx+EqyAMQfDYJrecR6ReU91mm8iU6WrBQufCTwNOY0nOsrb9HBI0PQM+RaxUjZQjmnHA151Kx9cBBQT8du3YVd2MaFbse14f3gkNb/wEWKW+TCuG+dyLfXfo7ydbnUu84BRZpNAdAP49l8y/b2/Yp+Y5uBLjy5IcJo0C2lzhhFcpYcMPKakOzbsTaxLs1F+72uFuTHZOiSD8LX6i2eHl6oggka5ulbYFdxf84Af0XUgHpVZSiCH1YpAa6d3uM331gaaxd+mE3YH4PdchlsUljMinGaI7zEXv7/u9LL2HbjozH0mQ69yHE2iWXwFPZx6B1eQs4pRoJ4QpEPPgnGJPG6UEBCy1mqfTkN/yOwI/X78FH3W3P2/+TFEBNtBJU6dVeXqOLxTscsRLt2JWapGiBXNtEo8JM7Utv62lxzQ46qYPesPQT6En/jA5VIjuUXBUphiiS8jnRJ4qAp3HcfQCLzej3m6EQfKGPUHIJVdqHFLOT8N24Yt2S1VD2Ppcqm+V5YkhfdWQ8cjxKXLkf4spbwf1QETt27ie9lFzXivsgILCOQnAXsWFdBTHyCtxch8YsxN1IHzAwjhcUsMBBsziJVjyDyeEJZPIw9Cg7vSip9kyMRejgJfO+SmW5IMdIQPG4sSzRpvLtyQocXr1cLEneIQKBT4qEtGWgjJ/O9haG9iwNTAwD5OhmgMWvHA2iSKf5WBq7XzhRRJY07AcrhJ25K8u0uPVbrF5cnFq9yGY3kRJX3FOublwmuDmNRy48dCA+bEmFjJBpkFG0MDtmQLe7xNC1WdjCimMgYHYHnwCYDBxb00+A8AdFovwwRBDarHjB42aKCdBeWZm+PZBWYAjvbhDOGsAFnY/Is/HHPTsESywRiyOwE3oeKuxt4um9rbgnTmfbEm+AynZOog+vXi58dn4Mosl3oHQrksZetjqOt/8kesmPbc26X2w9SH+bKqQvoXr3xudbAQfKwg7dL2FF4QvD2nNoAFWy+a7zFWfr/i8IugOgn46JCQpoFftOziff4AE0B6sasPmmLGQ89d4Vh9Ow9GIQ9i/APb0Z24tqvElGYQYLTXVXKL7ApZ7CxPOAo7n/1qcwVzqZ00qR6w3QQpK8UHmxbmTVr9c141fQZ7DzcTAVqs50ZgF9nnvQNdybYc35fF/F+2fNiZrpWBXVfl41LFsH0X8LZmhvIHkzIZ+mh5QxmH0ACsU14qkDnUUyBksvM59r9c54oBR1AYODAhfO3N7f4Bjj+VvpMShmXHZ2rZ40vgHx6r1SxFIiVS5AI3DDfSGaSNsh1/mxoxmfF1v3vIoGeEZ/IwHR8Wz3iMrKZBcwogyKGFl1sLk1BhD8L1CON1iGdrzRVULmg48qsM2XiHm1R8WRlv0yq7oNhnjw0GR4wWyzKxZMb8fntVhyng3woJJULk9maDYHHuBQq4ZNSbt7pHWLWGiExJHOidENDK7gbrTi0CFnyB/vK9AYnGJ8fzeijzUBsHeD07l06WWarT8Kk/9LsZJGsYqAwT7Dd5Ltj8/d1CQHG2JzFZTVH9Tm1vBd/EHs3u3K1a7m5snQt1DV0QdvMI4+h2KntPVmvIt2yYIXp3NhPUK/ACqO+/WG+v/ArtRyaYVaSM/hY6URrE+hMPypnPVy0wDiNzo4xBWw1Z+CFe0cuVxMXYcfclOAoolaGXOMhvqNuqP9TgK1Jc39OcESrOVkkzsjGUcBu2XTPL6CojZcTd6HvjVb6sxUWZN/7OVo6OSvvNHdi+nolRRweKx6jiaN4hEPPuLSrml8EBanT+MFXyjtBCYePLxZDtWz7pM6Do2byqTYlq2hcGUM7DD0Odg1+k8yUnSu2uGaLcWZfp/vObVlAaDxIfS3TQBpDXo1KpazKaOHoxpBJgAgt+mmAda1N6Jv/dFYV/8OWRZBauL713BtyPp88osqYLO1eTVvgvepZXgJceB5JrDLZybISgQ8UHlCj4IBVwfFx/v1ebV73Kd3vjgJWEvWzRWvtzVr82qXwoUfrEhBh+y+P0kLBTiadq42d3q7++SObSJydlCc3ybAhlMs8IOigI5lXkNs2yZFOXCcXwdgKLB1pfk8V03GGvD+AEJAfvThcly+U5szvc6dsfAROTnRUG8Kii6THTgkIOjzaq4RkeD5mAGwKxJCBQR4+TLkN6/lXoZ0bkSmG+EbZxqw+uA+dB17Q9x36nNr97vP7nl+EoCHbIo7pxpex8UH8YOsMAEgWzt5nyILv98EwDnuPr7/qT7QoPKXepxDh3LlgaSnbdAx25vi2DFb6lvWLr8Ak9PPwRW8M81kXokbhSEB34OBNwYv+HhnAeNiocevE7OrnhTP7TsO8DLFrYfovmnKgPpkBg6+Mjkw3Pm1zVrS7sRY2YXlLqz54zBk/MBDzggwB4flkwFAkfIMb8sZlwooXss88J1ngFYcp7YiK+Tn3gzOYzKAB+qCWr3eehgcxAp0vHMwg3GZNZfHcUUHggf38syZvsCdW71fHGlrk8o/Kim90A8k3p3T87uRnKUETBug4QhYJOtzq/4RFLoHnOa81JI/xwTpXYyg3iO5D7h5wIt5vz635jA4wuclaFB0Yb2mQBjhoJqQFrGOA5GYHf3I3KAwKmuFa51luNrZWFZdiUgXI/K5YDdL5Vo7rUylNlxupx8pSCozbiR1dPd6sWX/gxNiUKVI3k+DS+BIx3C2pShCcByuXeyIBFYsEUob/eeRWRNWqrbZuv5UaqlQldL/qWwp+Fu5AfDo7333x5z8Vzpm9IEbDrGbWg/BLN4Vn8IA5gFabAXFlZFwGUwkE+KbgDBSsFEezJAQ7/IbcEb017ycwD4mi8/3gx1y8odGvJT71xjihh1U8rHzZu/AWEkwsF8TQHI1Ir0Z+yUWSJ6j3x/HcAMtnR6eNWYbDB0vHrfNY+k16L9mx5QdVVrTmrCmze4ZrD+VuiK9mJbe1NHFkRVtEhynB5+7MfM9BSDZYevaMyIYPZDVaIyA3b8ng3nyj8H7Vr8m7pP9maCni9pabBQY5KNDme/fisreAktcAAauXJeAwT6R71igsAFaYm8QwJiJsAGPFsc0/1Ll416eQYGVCSnGth5xg+IWgUOwxNlYBTswzha/eVbYi5Yvsbz4k+W7v97pRkWeMx+vllhaBTdyDebZD0Mx9SYpyajZxYsx3LcaELCTRsfYgj0g65HA6xzebDNcHoV8rsADy3rQ0G/DbDkfgz/bdvtM5bI9/GPd2evxhywJJmTKcLgUPo/g/gvI/wWw8C9gwWmXsCoPDTIFH5y34lC6ujSxeDHylv5HvLLS4/LeWEL/e+d7oNcvz6As874cTVy6YoXuWDdgtN+AxOvoYzYNMEhP/uUbSDfNRX/QbOdIQNN/HbfiWH2x3iACwSUG9xlyLUae8pJvlvJdOFjRM+Ey4ACcZr9bbNn3TMpwjxzlRPSzYSuf/iKGjTwFIqj2UFM+eMZZu/RqiPt/gwgb0A5PN5BP+9nZ5QYyLKvd5mzb/w8TaMrN+qrBd+nS6yB/PADgYMfivZFwUoguA9PxTw4IfMOLGYogkPCbWUMeRwSa4O/FnZcAMPuhdT2ABy+JcPA1UbsiOmRmR+QsAVmkDXgCzXDB24XaKOvJumYPXKGoEPNxpNtFcC/QACxcD27qPKX/QrJ+kWSkgIHEUgFvADREwBU/T1gnbhVPtUHvJsQnv9Z48ZPPbPvsc4cP3EwgDhqmlXQc2o8O3z5moN5BEvUMoo7dsMJ5HxwV/VzudeHTSbhZLt+GsfpTMWhSe86ap/w3wBDnQczUb8YLGsneF0xYGEmu2wl3gBdjRtiXmhEmwicEO72chfR1yxoxU90GkYXLs1QUj/V9pgYmrSQhvKjZGFwJsvXABDflAASLjwgd+PUq4r6KJezXUPoRpDpqa+5x4WjNImgfE1asW9DzeqF8g1CBGO4OYxzXAecWAC0XQCxdgoPtlmH8nYOaLkJd6VXeAz7WmCIBaTMacPXSmy5EipAj/ie2Zfd7ePMz3/ryOSWh8kXBkqAIhYM9W7dtv/i3zz318c5o17ygEXTgF4AvipTLNyQQO6imBvcvna377pAJ0/fN5JtTkeONoE1FrkkxsqdM7qE1TpbHZHAHGnw5iuLA4wDMN3AQpbgO90dwkPv+cXGUk712/eDRUP9drLJ8FMZhhQKPwaWy7QykmXfNAYjJHNRkD5Lfqa5ELoViD5ceheDmQfpcbcHfKdzsAP7CEZIWxXOsjLmnkBZ5UeEic8IXy8BYw2YbqAzIGU6HEiEC3xzT8Kga0ejpbQZKK8M3FOQgBcuXZSKpzErW1XvHsoaIO9oglZisIHwCfKV3y+4vMKMv3Pkv64xwcJbh6glYeLF8vbyyquv48WPVv378Nx/cdfQQ9GumMDXdslzHTFEnnzr0O2O2nK852/d9TiYaD8dM+dQuFWcE7RlBrpMhahpKQ5n4V+iEX0Yno1dur0ONtJYe19GDHNZJ/xwT+zL7waPfSxg4IGxVL5wz5lw04lhiwDdHreRQ+Jv14h9upT7Sv73rvue8yBFkKSwiFUeBkipS3UrpAWS7mbv3lyPTvB6xn0D3oEP34HSVm4GPdz7x4r2Njzeayf1la4NmaAY4ihjMirAdBU4YGNm2jUi4NB6MmPHf/Paxax7Z+cyf42ZFCKJLAqILohDi8gkEXaAOktj298F5fEQmmtj+NqDebMzpFthpNRj22OLi+kXagpqfaQZmZMc10b/5QsbSZnIdQSjVDWxa+pWorDRFWxs77kQEnEGHtsASFHX5hTa7ugx1uwxNZ/spQik6FK9m3gDFtyyT5XllesNclQ6fSKglOAiMeh581f9HU//035muVRoY8DCXPgDpbxfLxDuVdfDq1P905Fesuzq3xYT/Z8v+/axQ+Y0tv3/+sVsbbw2Xxxes0QPBWWgK7WjgH1qupMhSDNN0LCsRSMQToXNXrNo1q7J6x/ETxxZ3RLtmBuk2lfajSJMHeLBNpA3gw1gj5lSfL8JVPxf79iXkcu2BCetzsp38GMsg6stk0lyogcSZwjXW1r8HXel+6DOWpfQZqQ426tryfXMpDuK8mCXmT7tXPH+wE0t/prQ+HHW2Y0hI8/F+8HhEn1e9F11tA9pcjkHK+hIoORAKMaBGUlGvvPRv0n/wH/vfcH+pNH3glJ4nrwsVSCdOAgYGqwHFcCfO6/ocDrn688984KMtFE1veuNNy6E6WYiIEjQGFyxBBJ4awFe4vb09JXNmzW1evuis33e1nQofbW9ZDmzTKboAQfMFDwKpgEXrchGB86DqOb8QW/ZEJwN48KWcHoG+P6nPgPIMew6+i8OJ7sVwqQBocPBQVi5EJ+PMifevzTZE4DpFuEMjMRoqPK2VDofvUbO37P9fqBZWwlPYXfgdBQdCJ8s874VtJ6CSFhJY8e0HRQECBumCbfBkC/jLvscxkqtwnu+/QicjgfeLf/WJRTiF7yyMeSmeyHg5PnA8sN3V1V4aLonY79v4nn+75ry1X8dZP/Gka5lBXU8y0zyCmtgt29JM83qtNP4b+giRXt3opGkCw+nAcXA9H6Cx2xbrly7W9ORDQOi3pgCDpC10G2H9wC0t0HQcad0kFuLIVrXnYwJfY4qrIB0ePtUN0eVBd37dvXDKdwI4R8VcFRjkiDTNV5pEAgn7LmdYOTBSlS8EuKaymtRfbLPSYVA5C5EkJTJthrri/e72fd8Vh091yJUzmIB/4Z475wVc51ys3FiEEem3QJItdxspukB2MePxWGj1uat31oQiO187+vq53cnotLARgNJUGYwNQ3Q+VpvkTGMhIG69WFT1S/H7lzsnkvMYps65CTMJnnKmZSeAp7Bl10CG+H9g06sAGrk8gmerNvKRy5DDAQ36D6YhLD9i/lgldrzcoYBLDsJseY/n/aGewGlN68CalrYNmkbHwavQhjK5ZAlkkbI0v/uBRHIwqUpP9T7i0Z4N9LgtddwFWgbFZys0lpuwtfG7nkPqDRA/a2EHtBmWp5//4benhxLiEgioQYgY0B1xGWdkai2pPMWqS1VNXcfBAwdm3/fbBz5ztKNldcgM2bD3IBblI7qw/hZAjodSbXVN+ybxxIHmiTJRn8qdgp2bHYE+OT8FUP4WryFKUDHoGXjJW3l8KNlW9gmZZa4klGFp02FBl36t2LrvsYl6ebkqiWe6GLxHw0twydlz0QEv0G0BQylxEYi2GtJMHcaEWmKlUo5AosBEzcwqbTqg8M5k7T8cZAweUCgrWXCKssaWA1HB3QbnSD92bPM+8Yddx2Vscmw48sC9DawA5oav/+hHpV2JzrU4x6cS5Iw5cul4ZKAh80192EnLrKis6m7v7oj88sH7P77r2CvXBnAEIQApX2tTBR4BgEfSbnJ7Qm8RL7zQIybAt+xws2t6uyfPtVIIKtBoqP8mOvztmDXZ03EPxj/5B74IR+oBhBuH4v5XQIQlyIMDhM8yDQx1H7txYXb8PMSC7aIWFkCTxT1ff9uVmz71G+IcdEB1ddxK78C3R6d4rXUf6v44xK17xYKauwEgP8cAeQbUeBXcFDyNuxE0HqYLPLkOiIoj8xQ95IqiRxeOIvxJkvBjcPDiDb5fqN/pZXoAx29awFKk5OY+GrCR1e8CWGzF9H4nFnL+Wmx/6eto/zPiaHM3ANaU29rvEk7jhkbtiiuucBsbG4OxUn0NUtZo0GuMFTTYYDNg2rFob7i8pDy+YuWKrT0tp/TX2o6fy9M7Qd58lKakJ9oCNsU0FwszuUKsqrpPPPpyXO5vGccVvmK/WNKrsEHqM9BZ8bK1+DGeW/oOKLOo3GLH5l+eASbEnEEwJsA7PA02/qPimpde0B6u3w3ldz1eTjbORQEH+iPi3I2Djz82gVakebZ1QDT1znmEY3Ozht2vHPzpA1BFxrEMIm4vwsyyCiupS0CrpQCXesRcjAzokAbsvurHijthLswGf/25cRDzF78ZvP7mfaffkxHSPvpzkVlIJSUf8773rpXal1jm/fGx3BUtOgCAexDhaTzdYrv2VjhvPpKWv4Y+ZKS3H2Ch4w9TkKvdfs+31wBsFoKr5KFWI+hXaSVkuASWuVYyaQZCoWRJSTj6wIMPvr1pz7OfoAsYbM5MwlgskE6cDFnwlqJnAJ3Xsv8Xdh7vkvHG0c4jjzpmqfpE3PZA45KzK3BuEk5KN64a5oSzTLVkx7MBGDznFOv14osgPE89lwFiz71g49+T4ygCpk8pSN1H3W1735jScXiDJJXTlPrSRCPa1LQh867S/qbAAc7ichEOzwXtFmMMLMI4nYvHC0EUnjMCHxOiBt8UFYNScueA9iR4JfqkA0vqmiQdFJguPXi/eZuilBKnSPMYfuEgJ/clzdFewhDfh8G+E3d3ih3YaToweGDBdGrwpZ4TLCie8Gfj9+4619HtJQDCjMuuqSSj/iJ40FjM0EynrLys++HHH73mN3986q/xBgJBzUgm8wMPAr6c+DCBfQd9+OOyQjTJH4fjMQe9nVHTovgJPdDgQcx2HAcUmfAIBjPrzAcxZ6sPO4sOYACXYT2H5bEPiq0v/VHe405LLG3qa5f9rQjoXwYg0YQ7m5NfpSB1xG4Ax0rEIx1ll8b36RC8fsGBpmZb5ZdjwGAb0lDK2r3hUtBvJrC5znBEDbACQKJhVceFnkBUYzAGMEThR0VQpMQChTsNVr3T8M2BACCBSKRB5HQ1DvpeXJvQRcDLO/40twd5ccNdG9iCY3iVR4Qbe11UG+1ZD56iiJaLs2KRaaDxxe/duRwVWy4M6U1eSgWIUvBA8EgmbCMQ0N2Kqukdv338kSsf+MOTn5fgoZtJKE3z4Tw48al9OZbd6Gzff7usqDRNGORSoMAt8DpIgbMtcHYeaGxYPU2LR3mq2QWY8UYIGuiYlNcZHPFN59q9n8EsqxzG7thBUUfONsa6pX+Kk9B+hPwpqrBzZ6JRCjjcw5g6VsnzS7w6IsFpHDxaDN7SPmQGHwENNBhXYeNaWNJfxGJwx4zr0cyaHkj0n+HKaqh8s1RoIGh8E6ABYytDT9Cyw4Gr8yzJCnJbii2WS6N1rbJ6WueTW7dccv9TW/4PrE+nhYxAMuHY+YCHcgjEVrriY9hHdTfF+JQDptxAP4ZWFJUwY6hXf9JGcAgc4BsWAjRCowENkBQzmGEY0F23QaPxYbllmSUoAhM0SAfVwRqWXoUX+ihYYc6AnG0z0cgDjtddzbpAnvzWnxeSnJEhnU4KWCDDydme2+fLy115KDMPam6UtCa9++memWTec7XETN8b6Xlt7svHS63eofdrmO+JBI30qkHVCZ28pdfMnN22dcuTF/1062NftK04wCOYL3gkAHbckh+Ft7p3jIe3Os6okzcUBDTQuUzTwNr3H8CRvtPevu9QSplpAZUJGgMD4H/gjWF+8bgoP5AC6XTgMd0I8oMX/WHgLQ88+p8PvPLydFRWTQOfjuEXFaHQach33fi9fz0Xc8TZ48VpDK42pBbYE2pOy/Gj1evXNjyD51/6+dbH/i5uJypDupnABjnsj8oZCBpxWL5GsNL3XXfd8uvEQ3teLOYy7WQGDsVp4DAhrd34zSjEE3YKLsdpUHTe64ZnfUACxXDKIziTgMop3+B17Hzj+/GGUmDcaZjiNJxNmzYZu7tOnI+OskC3Neq0ii6eDG2+uiMVplhmPdl8omrdpev/kEhE/+W+7b/7u7hjB/NUmIaw1SCBBYN50M/9u3vxshtEEw6/LtLB4wVbZspGkFHeZ7048DXtlFw9uWiEOg1aBdP2gPsOoDTa96cSNChODCs7OxFV57z6sy4S4clKw1GS/rROxolbrp585kdfL93bc3wdQUOunmAKlRaeE9h8ggfMkJy2k8erLmu47Mnr1qzjal8y4doBbI7LZ3+Lif7Ow58adMP9pmzKQ/BdysmywGEydnq+XIIGLEKX3oOzO68DMRJghLOtcAwmiTragNOKLW6VmmYqLsl9ZBJNBqU2NG2WtAkQko0dhkMUcRHpphcsIeX3QXn5PycPBdgdUBvOBm7jj75TVxILr3cdvcZbcp1o0PAoJcUWV3e7ujvLr77q2kevPvfCbwlYDWCbbAB2HvS6litwPONwD6jndO1P9YZln5GR6Qe2UerrcqUd0bP8mfIRZTumyHKwotG3Y9n0LyVoKLd4+WSKlRMYdcEKFCzHW9zte38q0fZRHLyjOk22PPoAQptfczPEmzdAOeqtqmROgy2y6HRHxJMH/w0ReFDxMO80czb+3eJTIF0J+o//cVc9VsJWY2qH61C5cjbpJk8Y6nIPpZ6MJYLLl9fvjp7qjL968vU1tDCFGpW+2clLZwtsTwJL3txA8YbgolnP2Q89vl+e5FdAPx6Ti2gKFV0uicKM7u/JdoEI+bJZEjRgNt4KI4DLxLa9D0v3fko0yXtQY/0FvitzBual3psrXpMx6WndD5OOAikug7KJ23jnnWWN99y5DjZ/K2kaCqHAWzWbdPUm98Nt+Uk7YcR6EuHr33jtTy9etGKzBdeyypZemr/lqncQuzDjti7CQMc7Vt18zTJp58JjFwoUJk+HJ2g0giNbt/QicJU/hE7Da2IOcPWioBOA0wBo4PwT52qxdf8fpO3+KBzkQjMydKWlr5i0C9QK6L9f3tm9kpxb3uCUlot/WRwKcPey1GUw+8Z77losgu4bcPjDDFhmTKgSNN/mEjzMQMCKxXpDbMgbr7jqv+pnzn88Ycf1EE7kQj65+5srgrrtJrvd5FldPd3/2njvHRXyrJYC6TsmC3Ao0MCRfLASVCeFK/d3+YhS6aBxlbQEpSZ59Afa7Bzm5aoXBpNIAMcLMm5tz2Sh4zBVP/0fp7gMoob7ubvuqmr8j2+tx7knq/GbrDvFzynzrggegVAw2dXZXTKtalr0TZe/8e45FTU7o1bMDOtGTmUpOimEaUyDSUsc7m6/9tcPPtIo3z448I00lBtjmAxEJEch2Qusm/4QGuGFYMToTyMfEYUnrcHNm3sKnIYCDbJj1CSPLPSht6MZ92H5lh2MHpYycR80/oJJmXsUfpl+qYpZmCneyGrgxx4TBQaIJT/4QZj7TSJBdz08dtVgP14csgl0ocW1BB1TA7IkJngYAdNqb2svX7h4wYlrGjZ8pzxUdjJqJ4JB3Uj0ddxB6Tmo4EzZCJmBpJOIioPHjvzZ2z790Q8wGvyMOLRjGZRkRD+Z/0QHNsCBMvTzMGD5ygiUoWrJFf43cPFG6DR+J8bml4C0kO9BX1v/WRE0v0a0RiCI9NMJbiOhFMW2CXGLvW3vjyf4mATW70wOFEmkDoNE+LO77w7M1pI8V2UxXFyUACaSOkwppyJgZHqp3BhH69LHfvvIlb98uumL4CmMgGbkPH6BHRquCq14otdcMWvRc2950w0f/+eP//V23B5Au0zl5brXPyByxSreMwkaYt2SN8Do4ncYth6ADlcv9BY1mNH6t8GE/L4CGbqkgcfST6NHfgkrLCWUSbwAC9STUKx9Ehaom9JM1r3H/vd4UEDi9kDAqAvGFpqOtgi8KzybaZawcWrBFOQwcpHPxr6WINwRllREeu67/1e3bNn33IdwTIOAC0LuFc640sIBhV2D8HNJBLXEhhUX/PDD7/vgF997xXVHWFa6LihX2YOf9Y+IwU+K/1sNUpzvCouJHRDIlkDk4BQPU5ycgbTAtnYkd5xP4kjGbxd41lf1YhXWLV8Aar8NV/Uo0oaA8pxt2r+ULtvGYQciq+CHfgoM7uSf/sY3IqWV+nzdMefDaWj56QoYHgXkpjj48igrK412dPSGfvLgzz/9UvPhDREzYsXgyizbYOaAgViTjCdjgYpIWfsN6668/dYPv/cHbzzrQvosoe6VUUYUhhukI8psNJExe38N9hpL8hRRVAOp5rLsf4Fx17eL4ERHAROXWDfveRXKl38d0i65E7a425aHlHmG3mDHZtPZub0OTqVnIGTNN4U2G3MtvJRhwrGxo5VzyWnGZaS/dm+lpaO9s7Rm5qxTGxou/a/WRzsXt0U754eMEPa02Bn3tJCAeGaGAyG7s+fUtBf2vPCu3z227YUfPP74VtA05jkwSi9ruOtsIDVcurE+T4ko9TcCRe/D0is5DWp6h6sP3fzprm3/yt22/wbEZz4MfWu36mfBPnWII3Bu0wQwSe30zOYxq2BF+hmBf5ZToAcUpEjjpk1BcerYTKjM5wpsJKWfDvjoQL8Bv4rpj4PqTKIc9R11tTNOPfLYb666/5kn/hYKYDgG0i07y3GTnA1hFQ1pByfKQfd/3Zr1d77nlvd/4z2XXX0YjyDtjIzzmAhis0xXKC9ez0FEWZyniMIVFJrUHcBxNhfg4OcuX8dw+gwV2XE5b0Ae9FrFTWh/7DhaE3QDsyCjz8DDEmmSDc3n6aT09Nqb77fcEEcPYrDzCAbC8fvu/9mHn3r5xT8JmRF4YZYAmnFck7CwAUnGktHAzPLqQzddfd3t11x5+f1vv+Tq1pECx4SJKlicaMQqyuK8RRSuScMaDo1/jwQN+ldsauKyrR+mIgUGcRUed8GzWcVrM6pFQtTt7j5Rh52hFVhYxFgBd4FVEsmUOlh8P41FkuFeJ7krWpYmorFgSSQcv+Tii+870tq84vXO5lVhM5zgjtpMyMF7EFkMKlSPd5xc+PyLL7z17LOW7Wz8wQ96RiqyZMp/uHqP5bkSUdYuuQQ9YTvmFm92yVUPxlHKUNf5hLN1/10FWkEZSzv8tCOkQLquYnDSb2z6RqSzw5wO7XMtPIrX4ADGEjhdgnmkbsNnm01rmjMZKAbTK/03j1yYMWNm25Nbn1i7actvb8OzCJZoszo95mDiSXJxnHEbCUba3nHZG7/ytj95x3+9/bxL6ZIx75BrwOadSZ4RWZYECq2hvgl2fJdDt0EbiVyGXowP/xhSr/Ez6DVuToknw21ay7NKfrSiUKCfm2D28p2nlwNlXFDMKJ1mmeZ0yObV2CtQCZuEIDhKnWeMcDaVpndnoO4inU55XYNmpFcoVBLrF1nCEFmkUjnj+MYLcUO67sTi3cbqBct///Yb3va30+oWPPOp666L56soHU9RRQKHsW7ZrdBR5AMaim7Ua9jOETckPipv4IQtfA/pjHkR2Y9UaApIIyJm6okasgCugKRKIqfxzc3fDHf2hOCs2JkGFd00KOemwfAghFURKsSBFcALA6KIhVQQQaSiU/GmqVz8r2wUIGjEIbJUllX0XnzhRfe/2nz8/OM9bUvDRnaRBXlp2GILz3gh8cfjhy9Z9Pyz13z0w2/Yg/vx2267jWfKZCuu7773fvtuFOlCggZc61dqwQAVojDUwaF7quNkK5LgIEUU9M6N9tZ9P5Eb10a/ByVbOf797BSQqkpPopQ2d2nKy8HJCBJ/9c1vhitrIuVWb6IyaGplUEdU4vTaEqybBWCIZMidqfT+ishUcJ6JKyKD6VaI31xlqcYqy28f+c01Dzz7xOehQ8Qwy73KAkWpBa7DPGfukj/ceP2Nn/ryRz5Fi9K8jMLGi+OQwKGHAn8Bp8GLlEJUC+YgmOIq6PbPcu6FleZPUvYaI92DkqOIM/qRmjBgrp3OuoFrIFHSb9FCF/9VdI9iZGfFggXBeE9PaShgl+KImtKEmyy77Z67ysorzBKY6hsmDw1BTtgOgBUQgIQBt0oWxBApfiiGROotirWQ7lW24N/YGgXlpBw4Y90qRoEbwYEkzqN+RhtSqywi3tMZWbPmgq2vHH31t7uPv3J1yISqKP1tDirAFliBMQJib8uxi+btePo6YPkz6APW7bffzheeI+XwVpqDihrVT1bCwfLrXFTlb1Lb5YcHLKyiYF466drm38hS6cVox45RVeAMSDSAM2B7h+EOVKcAUAyEBEUpCQyXC730tdJQT7QikgxYkYDlRmzDiUBjiVPvtRJh9YQDYSgwHcMEAADhTayYYluIjkNRyE24MMhC6AMKytxTQvwwIC1xQClaOPTcQa8NcnCDrjgjWg9AFAO3pO7hGRzvqNjo6HZ2exIZL2Ub7dj0lMzMsIkN3v54SALzkCsm9HrO8oEl+YCKBDIszXZiF+2sWbNbV59z7v37W0+uwUa4qqCGM1oyHPDEwiwHm+DgST2O5dmDR15761/+369swu0X5fvnmM0Rhh/AORLn+Yh1xIxjfBLcRmUey69pndq53eWBwNzxunnzmc5tpOsTSPq+ziqvQeXMMMCoQkNn4HvQW6urjUhpNFjiBnDmYCgoDDMoElZQN90QNjSEMARCMMMM6wdFqAuihWFYegDoALMhA6DBDSIQMtnPJbviAhiSUjfBUgZzE7yXs/sxwsQF4APMplC+HKDUMuoABNiehQxgIdqHgKO79CTO/aMoAFDAXnYr6PS6QQy6AHT78JODVqvDpSSLD9M10jljwCOZJ2Z1G/r+JPlpVCCBDd6JkGHEcbYsYcUF1XFGpAbpDsMGe7EJKqwrz1/x6jq4AAk4RsBua28rX7XivN0HXz748FMHX3yXtAtTfSVjvdB03Ddw9HHrec/s/MMVyPdF/BH7Uc3spugZMxtcqTH8Zv6uuOisebpp7kQVK/GLXYlzT7YAUnHacra62/ZdikiMS4JLomdLdBrdTweInG3mzDBr1izjoNkeNrRIOGTDLyuBIGnj+EUcg67bQThgDeBsiIBwwRkY0DPY0DOwA5KuGCu4D0/w+JaB8yi3nwMY2HPwaXuzLbs0Q2qqYUdVN6bOpwcU5CIIfDj6Fn1R6mLJQhhW0jWTTixsW04kmUxGko4dwfE6Ydt2w2hvGKOJBySBIYF6H98SJDC+yBd4VMg12EhSxkMSXgCi8KqxyQbDk4Bsg9dJwPwzCiONaMAweyHv9YaCZndAN2MBI5QEithsA+sqgQKFWRj5EsSRL4GPilKao+/du2vRTx55oPFUrHteGObo2Ww7ZH1cN+EGjOCscPnDN7zjurf/+0cbe1du3BjctXlzVjsp2RAmLlIgQR2cx/o1zFefzZPbkHVCD34DDpZ5ogh7UYrU1NFl63WmbB1Oso0LcA6rXVGS1EOlFBnQ2UvAaGLXrh5Glw0RAOC0BZOjAgMMfI0zJtlcAgBrBiWlHCy89gCB15Ld9kCBN6YwMLD6gwMkAcn2cwqFqIDBCQkBM3k8kQwmLLs0Ho9VJi2rzLKdMhxMXYoBGcQ4BqBqsNDmyMawlp/4gRsY5QrMCTk5FMWD65HtNxBEjUGZOwrjP7wWxgcyAfexz1fT4gHD6AwEgx3hQLAzFAp1BvVgjEDCtiTBCcl2Ik1KEhKl00q7f/mrB971xL5nPwLQoW+OXBN2AlAId4MiVhYK39z5+B8fHG4hopiiCgniiMuWz4Iw9ZE8dRu02QADZ/+/AoMG65I6XQxXDP2ngOWc1VXkwn0OBop0wJDnfBw/XgotQgXEhXLNDJZBfCiDb+sIuATDExk45QE08AkIAGpgZEAJZgMYdLmkCQYCxcC6EN0KKxqy8hLBkUC1hA9UkJxD33yJe+xeUzx4YEGxChBqyRkZgNDbG6sCUFTFk4mqhGVVgkgh0Iln2abYBsAtwYC8QMpKlQ/Ydfgf4DMAKvArRc8xEKyP3gAkcEDMsi9TXLAMDOhIPGmVxRLJOT1aL4BExIOBQEfADLZFwuHWYCDUBZkySX2JickjFo+HytF9Vq8893cvHX318uNdWJ41w1YOrgOCETYKBoxwdyx6M1rzoPSgl+N0wmIDh4sFoVtxkloVwGB4Yy+qz2ynF6L0P8hXwWMDxxbU0YE4TBrZpE4XG5Sh2h7Pcvpe4aAYY/2JOYqcKCcSzlLqm9e0mIye0qYlhVmJU0Ir93ScrBBhPcQNXDqlbygbUSsYUCID/oPZNaFB9mLI5v1goICgHwTQ/zwwKFar2IBJFsBoof+DVgHNMqCsjSei4d54siYej9bGrOR027HLQE3Z5xHXJgyAUElvoKYDQ0ZQ8CIWst3ee0Ke6CBDS8D7w/xAvgl/qDC7ktCCAJGZ/OuK9ViGbnSHAqHmsnDkZDgcbIdFaG9HT2fJwrMXHl22Z+Fjx/e0LcXmtyCKwjwkHVIMbgHRykbmwB3xZrF2+QVi+55nhThEWqXzo33pigUcJIAjNqwsc+PWn0GKZIFpJOor37uQgwp8M1W93xfbX9ojfWyMfi8KuQtsiwcxeOQgPYMlImfD399cvBtVlmO9Juafvw9KVzXqFLoqgPFqNdpvyd/2gQQnNJkT9gSEhdNdDT1DVVJzqjs79HKIGtK+QeP+RDAOFCPARiiA4NsBQJC1YAb9wMAfvOMHEkgqDYEZWAFOYinY7AVX0d3TOythJ+psyy7DC6dOAgDMwSc9ukkcBvXAWqQNVvWaJhdRMSRQ//6asSFEuL52UEljV/T09lT1xnoWQzfSAW3XsaAZbq2uMjtWrVj1+31HXrnqWHf7Eug6JNeRsYGAWy6zwKJ7Fo6RvAnd61nRdIgLEhy3Q3pbf4Uy5jbqm7IwY+2y97um9p95mZYrOO2EWdhq8fS+VzDwDTnwR16F/oY2LF0GOfGT6BzXoqELQP5+oHRhVSDEQfSbnzu2+++yTPWCSJMhhMqjGgM4C8anfiJWV1dphhJ1pq1NhyRayVUL6iQwb8DEAeXwOyWYSmDIoyA/CimgAENzDZiou3YsaUV6o10zuqPxOcmkVYUIFNJIYzUx4MYAkGAWp0NATwWIyMmQ3AigEAsxnIK1WDgYap5RW/fiY7977Nrf797xMc9bGJrNMZIpxCiuuEnrOdc0rhdP7DmWbV9Y/0DKlM3o78mBB1HxQylAzwVQstFqTnB+KJ7e/4rkNjbvyqrRzVEtBRoAHf1I/T+hq3waO3AN8K+45N+AlDStqweJPwf56FOiYek/wpsY0iDWCLx7gU8A5EkuRnIWUpk5q6wahjUzITDUBl23DGYOAU6LqBxdAyjTaslJIAbl5n6oG1BB/0cmCniAAcMyPWD3xqNl3R09c3tivXMx85ZhFOEtw1ubNyOncxSZspvq99B32GDZDHyChaLhPkHS6O7tWWQ3n5yGlTdr+uGq463d7TNpfANdBzmwTMGkLhIkO19POFcBce8Vh0MDR00qVTGAQw0D7IDFy7sMFWHBXC3PHvhycdo20OYuGam2dlQzPtI64uJl07Uj7s/hVewy6FWwRi+dBLFO6bSStKW2CxY7PDKyBKs+X9XW1l/odpm3QHxJ5AQPDnYGdCR4VZAAAEAASURBVNIUaIivwitVssSZjd1FMwAEkKXpaAbqSfB9+E6QApKj8IFCkm40H9RhYGRAJAkkCRjwhLUgGo/Pg8VZmDoLKEKpR+OaiESP0ZQx1dN4XBUI4BqGGbWSiXB5xTT7rJlzj7Tub5lJgRidl2MyfTx4zTbRbxPgOoJu0n4rbt4reDZRhoPaiwEcshJ4ke/FYITOwiYjnnsHLK3mbPd/xbZ9e2Ulm5pkB/Bak8e3AgKebN/h3ge94nrYMsSQjidXZWsj0/CPCxMQF6TFw82i0vofUPUdAA+PuPyWoY+7SCk45Xbw7vAspJ8dF3a1gB0At4JDl0K7woSymoQMCm03IM0Po6QAV0loYAKjqQRFkpbOU0t64tEFBAxABJcrccYI/p3u3MUI6Cdpgd5t2xbM/IJRcB0HS15/ZXlvlNsEQnYCRn3s/BkCJlNJzTeIS+svhO+bZ0R5Kyf+AWOSM3EhA+viiPWrqiBuvYNsD0IuboODkispnI2/x8ijCCxTDm693fhSCjSiuBfGXxbaDClFcSQED12/WW9Y+nnEcCDfyf00BAym8LiLz//w29P/7vt3nN/eFdiACfA8AEWN1OYTLOg/gonR232dBSkxlgCxhOpMrJLQ3qSts3PhsebmS7ujvfXo2qYUR7DkwEHig0YWOmOSS1rJ4LSqqubF02ceptvAbHJKKocAxyOsV2dAH3elvFd7iKAxYCwN+JGl6PxvNwIEGoVjNCy7BQzRf6fEhGwzPvP1fIj+Hr42LkdamT7/AmVMtsHFEQurMcs/l0pLxBoNKHKxi0rOU1AxXSie3P8y8mH9LeoukotmzArEEwuou8ASGMwqaYAD5SZi+CCRonyBvpRYwpUSzero7q1p7+5YZll2DUUSgAaFzP4l5wKVebpmQwY4HI70vPzKwRWPPLvtzRgamgl/HDAKy4whPCbTNEI4sehRtyd4k3jhhZ7BJwmMZnBlp2+jmvnxYm/CAGS8PjY/QyI+k/pgdIb/lM83r+QgHUlQoIEUWD35c8hmTEsRZfTtYo809Cp4iPgQM1t46wbzS/fcOc+ZVXW5EU9cDGVqHX0gADKSZJ99zoJUKmRQXAZ0e0mIgPqx1paVLZ1tayHxwukPhEGCBkWS0b/hQlZ2auQFngzG6sb06ppj86bVHhc4vDqgzp/NXn/aGAr3IlGauFBGGnTM6UgHavaCFCtDJ8SwlRBvgnDFuLnz5+zuOEedUPznMuNdu6gPGXnAmbNYXb1es8houNCnjJqRUmhHGc/VbvjCD79zl2E5SxNWshrbPC2wbuDzUtyF33FH/p6GSSHFEhPKTyOQ7OrpqG3t6loJwKiCHJJEV7F8cWQYAmZ5DPHbgf1lsLy8omNO3cxXX2s5OgvGcFJJitlbTfHpaWnTwUUNmg/Y9uUYVb+DTQdXOdnrOcgKiNuNarTCCOcqFFgOXoMgkG0Ek9ugJSTV3/ehUu1SKZqqFCs2oqAlz0LHmiOVnNBSjCjtoMioMCQV0Abe1187cPBtJaFwGDuLLOoufO5iELEK+FOKJtBlMMvjbSeXnWw/tRaKvUq4/I+zl/qgMQZiY362sbsX5shO3fTa18KR8mjCTkpxJUuuHENSGQK+Y62gASXH5sp+iWBMg2xAoY2emAJuY3gxhUmVUlTD6fSjC32ghO3ei1NlEg377o802365CllYVkl7R9v0UCgY5Xbqkeblx8+XAnSMw6PksWISjZcePXHyYig/lwMpiBXgIbG46oexU0CBh1lZWdk6p7LqJJWkAOVc+ZLt5vM1Ihk6R0ZME1dypsyV66BnHKyuXE3R3CuplUXIPdjAbaBaL4hr9z4h89qxY3RiChNj3X70cCFLH/QhCcY25W7DoFT+z5FRgKIJN6CFAoFER2f3rOZTrQ0QC+skl4GsfC5jZPTMFRtKIYgrViAcKemdOb32CBlzC+IKAEDBw9DEyhhM1+qwRaJBPV7YJ0WMBDg4kAb/MT8NYobSZVjJ9Zg66lAVKjiy5c1RCQ5Iiim/FI2SBeKypxyt+B55oIOZ0afOVh6mOqhIc2tpsqX17w9DAYom8DvBo6Hdk20nl7Z0dVyIyzBspROSy8jWe4bJ13+chQKgpyeuVFfXHA2Hy6JJch3Qf2RNQZ0eoUWDkpShqQmnVm+Qk+lwr0dDRFPuG1EDWw36/msCiYBLvyTjwEzndoVfw45iJaboziMyfTg8bAIZb+BHXxpbFy+ncJPt6bs/MPrwv1RjUvFMs7esouJEsicRhEMVrLZiEdYPBaGA1GfA9B7uJozjbW3ndUZ7V4L/lPtKqF0qSCF+JkMp0CeuVLTlIa6wv8OYkQNKWyPWr5yvMjwkp9JsLwm7SzcSWVyJMmpbui7Xcml+yj8VOEhd0bBslXak/lHMIOdDYKVtQ24WX4op7gHREdwusxmLmMIM3MBBaDSPgothe7IhqCxquA80CH3YFTWhktZ5s+e/Ho31YJs7DEL9UBAKUDzhUms8niw5crL54t5EbIEvmhSEtMNmAsq7FFcikdKeWizNsqtDXMFoTE27Q3PA9kHYQuuiPmLol8jHzaVyLAxlxL1dqdxuvmZpjRHSbsA4uhSoAwWJhYNzuoBCKKuhvhmQ0YOyp2GkrUXu2LScB2gQaMimatojbhY7+KH1H+bOtl1t2GfyMDa0fSBl4p4buLJnRyAkHcWc6podtTPrOpqPHZ0eCAUHmNtmT+4/yU4B5R08AH1GT293VUtn+/nYxVoJV3nYo8TdJdlT+k8KRAFyHDAGC2F1ZVrFtJMiGLHgHtGEdzF4S3QzjRn50tygiQg2FaSbsXeFeg7upkgL3q7QhrkR7NP6HBQHH4NbqTqpj5A+Nfh28Se/UswKhxqfSdAYVpnI2AAY7i1zf5VW8mgvUwMdfK6ufQ9rzh9ARp6+hLUcUWACyZvpZnTNOat/He+NhiimjCgTP/IQCnDVRNdtKEGNRHtPx4y2jo7zXccOG4bOjY3ZuN4h+fg3CkABGChBl6RXVlS0zS4t7zh66uR00yyD+6+MaxOUKjlpcgPW8o3Ah82SoVgDHzJe8EDjkmVrNFH6HGbvv0eiOmpU5CwuvVFBDvW+YUGC1RMczSARhQM4E2J5uXvf0nYDYsWL4qn9D8mbYxVTvJy37t0GIeUOWI9y/NN6NO/AyiOoL+h118xdfP85567e19lxqoxWouqx/zkaClA0MU3NwYbL5KmOjnlt7e2wRHRxfCk2bvugMRqSji2N4jrMcEmku6q8EufFgj0AF5IjU9n/Ya+7cvPhfbNkPGx6Uwn6QKP+CjhF2YLpoR5gQZNfDCapryBnwrjpfwQK/vFe/rM7JFyYh/8L0rgpXUlq3OLO6ALTy/KdZNnnsR34adjZRwB69F40bEglJq+MrSeWNqey5tlrr3nTj7raTlUYAZwU4IdRU0BZgvLAAd1uOdWy+FRX1/lYS4OcK218Vd8bde5+wtFQIGVFaoZD4dj0yqoWLsvi3BXoGbBFK1OGNHSgJbVw58AJ+1kySsTEeJE6DegzuElMh5NSoYXARXDAUAGaPyBkKnTAPUzlWPsBi/qIvX3vf+KRjtWYQg1Mtpn59ZaFyq6HmdwOsEIhYBQ0P/AU7XETuBgUsBcPfhzQTstJ6LMrpv9x4/U3fjUCdwQAEW7IzEjLQXn4PzNQoA804Fm8pb1lSUdPz7nobeyCYFFx5YcJowD4AbmKECkrbRWBSIKCA49uyVgh+CGlKgJwX4mXtkzGic7FQiZXTGBSilnhv5A6DC6Dg3mg7iNjjiO6yZpRQ9sGA/iPyJQbJSgVcmA63MHa1bSj5fKls9afVVX3M+z+M8A4UUkBQkGXDzaNa8b85m90YABG0gDhnPPnLfnZ+2/6k9uml1f3Jq049gD5IsqI3nBaZLlyIm00dPdEc/OKrt7oCoB4ks5lfKOuNEJNwCXeg3wLmBI1HFTdMbu0rJtWpHCHl2UsYujQLkuaijlLZJVhzyH1EvrsGZ+DH4t3QWdBRYi31FqoZllQrsIbFuor3BvgrOc5KaI8eqxQ3EZfPZuamth47SN/9X+WXbT6gn1V4dI/Wr1xM56IT4tZCRyuY8GLIGyO5J8rSoOhliW1c3537do3/NtVG65+CBOiCc/Rytkgu7gfRkwBadiFQw2ZsLmjZXkPfGdAbJRuIH3QGDE5i5GA/RoSiwHvda5z/OSJuW3d7VUBM+RaXGIYWiIZcgKHAQ3ncVE54z7R3Gyb2M1agTH9MXq4Q5BAMjTtqO4wQ/rboOlqD7agvxNnpfxWggYNxooUGv/9zvOi8eTZIhZPXHjehTsvOHfNC60tJ6tfPnxoYXdn50zbhpt404hVTqs8tmDugldrpte2A9T0nu4O+qvESahZWLYi1fd0ylZxGq6NJT6jrb11RU8itgj9LUbW2AeNyfOmAeSQ5pNmKBSJVZdPaxPHxGLYc4AZ4fTONdQhgRNBAGqQs0SJqMb1cRMv9losuc7Jczl1SI6DbnDGJ2DQVsOUOg0LHpM1431iy54XhTqCoHig8f1vnQO/W2eB6YoSU3s6O+FLVIjyyoqeS9Zc8hyXo7FnG6o6WyNnkYBIEu3tKqUHAB8wBr3JEf4kp2Fgd2scXG/LqeZVsUR8gQ8aIyTieEUnqwEwD0H/VFpS0onjQnnSG18hMD6LxML7rjtTmHGurBw3MRNcIX2JQeDPo94ABQlKjJsenyBFhRfOIUUtCF2W06Yl7W+44dlfS9m4m/I7j0JGE+WL//Gv9dBiLMGCc5wOP2UeKe4hmUgYcFZZQheoNB2n1rMPLCSXMZoS/TQeBdjj0IespGUHmttPrUokE/PACsdoLyB7hRfR/54cFOAo5vZjTO/BSLhTBMNxJ5kMBUycFQi9YIZK8nAwDGsoSDVjPubZ50wkPg8WIYw7nKabNhjQKSIaYSKdoSGEMA94SMaqybPoRT+B2vG/3G0HsU68T6iVG2yQKVL4wve/vQC1WgEQxHzHugwsiECB1kmgg9JTPjQKrf4dWOQZ80uKJzh+MJFMhptbW89P2okZMPeK+6AxebsATxmGQkNKJBWl5V0zQiWxE/GWkKlBzzF48MhmYALg6NG1MNbE5vIWhw+8dPNSwoG8yPDB80CwlOo+ixzuBFZNA2DhD9pWeih3RRxczku2MP8otu46oLJDLt7paGqvS4Zsx3SLDXcbf/SdOpz1txrVhxKWVu/+ZrQxUXUEiSVohIxkMhqPNJ86tToO0MCKlTIhH24aGkE5ftTCUoCcBnPEWNEDgWA8HAj1YCxX4qa8P7Q0rqxg9RXLBkg0h88JHJlYk8FpudNFxxaZ/7a37r9n8MMhvz3A4Dbc4gQJGl//0Y9Ke5Mda1gEDj2iWWuWhhenEmdyrh6nEe2JlrW0t18AT9rVat/JsJzrmUy2ydN2zP4US7BRJREOh7pZsWEm3RQ/AGtyBAIHN6pJoQefWQaeYmvwfCH+wEnAlVjXdLnkJn/zY/FiJ3UWidpR2/egKBfuxk2bjM724xdCLAqDG0pAKerPcUUh9eBM6UzYgSI0kOjEZrVT2Kxm2XaFDxqD6TS5f2sGFaGWbgYDCRxW3cPaUsLPAgC8LRUAQI8aHgsJ4ND2Ql+xHPdxL0syKjSk2Sl3yCLIw2gP8apPKoHVJn+PW1jZ3rwKllw1MEQcm1fzcavx6VAQmVMs6WOWojNhnHOyGsvbpbA49vedTLXXyyVZKK8jgYBVGi7BOUQc4jDtwJorDSMzIIE31uvESb0cCnG475PRctovSB8VgImlAjtnQSMvkwkhV+P37pgLm5TFhuv6oDFOb4CiCUGDm9VaOzvntnS0XwSL2xIfNMbpBRSxGMM0Y1ySJWAAP7KNbW/JoUqYDo7cdNzdEG5YrWF0HVKjUif0isWyDY1Z2ZMiNlGIxrvvLoF92yqIJ1kM3Ypa/BmZOZdb6eYPHuyt5vbWszo6Oy9AHzOgL0+i50AjfUaSZco3moZ5bAQUHTEc1woGJKU1zdwyD1LKhRnEsQmmuw88Cl89dQTZ0EbpQDQtgOzrZb5NGyZEp2AHkqt0x4X5ODgtTIOZ2+jfLRQFPBsN+FbQT7SeXNXZ3b0KnWTgZrUJ6QmFauGZnQ+xIhAMxHUjYEHsh/DB87ozBiV1aDiP2XUqdGHC7Z5wm5W4kjEBb3KAyo0uru5CH4LQ1TXug7bx7m/NB3DNAVxwy7zfXeWLKNaHOlHN0AMJuvk70dJ6IUzIz4LAgsORsHhHptYPU5cCZBVSHIcJO5wQOEr8zvVS5fsGrETAXgA4mnZhKUbbnwKOXEynQhxXrJDUWrwjV9yCE/SOO+4IweZzOeQwG0uvfqctOIX7MySXQZcCRkDHsQUds062tTTEk7TR0OMEDB80+mk1Za/Spt1wOByvDISSAt408I5zcxzYswJtSIlMjlG4CzoD0iBbIj6TwIFOo0QVZdQ1bgO4vVxbCi0MN6JZvojC11GM0H9uK9f0T7S2LZfHFthOBFY86tiCYhTr5znuFJBcIzgOjGcXdl2OSd03hn8eAxp2pyKocMd19+fGDNkuFAH0cMXZdGI8ni396n/fVQX97SLMhL6IUiTCp3MZPbHe6uMtzWtxohr2/1Dw5RFbqf0/RSrfz3Z8KUCpROozuJ8I+7U0w5CuD7LXgmbnAABsVkHSahqAwd5S3633b6sn15EZeJgQm02BN0vx3YI9KMoREO8WMcR7LXI5JnzQETgy160g5dOi1sG2XoTBa0wDzd0yPqeZrNwXA3XQVAkEDCiaXR7BmLSsUHNnx9LeaHQR9F4m2uJzGVPlRY6ynlxZQYCnPF3uWidvkEdWcAvG4HInGhz8agIewMhXZAzMkP41dLjVWoGhsVW8vAYcC7z0FTE0fuc78LJuzQS6JUTBrEOV9SPBAYCL9nLLDTyh0jtmANwbt9dyYxzv8zmoBJUzLtUqDp+bgX67F7oyoLm7SWMHXCOxJD5BiAOT5LFAJeoNikiqEWXtAQbPOIElqNHW0zm/s6d7CQy6yjEdWKCCf27riCg65SPnAxh9jVTAUWUdc9uNo+jji8GOsHNny4TrNRhAmnIh1pdNES+CzlIOTANrsDnqlbMCGL9wcKYGLz1uEyCwbu1w8Ds4xTuJ9SIrmTSxozOY7LXC8BAWxKJ2wBG2CXeMkka26wQBmwBKIgDS6kbcQ2tgKU/2TgY0IwHgSQQC4ZgJQzxDmDbAQgKrAarhgHDodQEmNKZKA62clS/gQ1ku8wMNsBmNzqjN9s6u2T3RnkUJOzEdYEGTQfiuhURK34p+8CmQhQIcFJp46EAcByztBCgslkv02fuMlHPA3ayU+RXO2XDG6n3lnjtqE45Tgz6Msc1Bm3/wBiflN6iBkRxMAQYvWAwzGo9GEsl4RdK2SsGel1qOEwEI8I8OCcgugP3AP3zDol8OIIyo1C0waFoCv9LuU9rDU+aOunLYwZmrGYObxigOIOqFpro3FAx0Bc1gj2kGkFiXnpDhdY0+9nB6pwIS1hLMTMG4Eg8wmS/Bwis3Ho+WtEej83rj0bmgQZUEQLm7mG3Dy/chI/+OdobGNLH13aCDHfSV1JKsZMEHS/geeeTKCn7Up7kAZDcrWGf3CuJ3whZnkdfHrqq8uI30GdUbJHCjGuyOxSpisfi0hGVNs6xkJbwdRbA1kDoTbPUBPsgxz61bGLSEJ2wh7hs/KJ5BfqpLNbLS7/dFIGpAUIGqydaskJUUVTh9Hbki36gOGmuWqRldwYDZGQwGOyLBUHvQgNUePGfB+xEO43OlfSZFIinmeIDC/Dn4UwHO7CW9+/QxvO+9sRT4UNTyAJNsYjJph+Lx7prueHQGHO3U2QBN3CZOsF4KMLwC/O8zkQL5j2HMjkpUAZkwJvayfyPkntkRB3Fnu6He2Yj7qkpaeODgSkq015mB6T8J2MhRJ+grKH1w2oRvCB5IlUzGQ7FEojYai9XErOR0iCOlruvACbPkv6lH5pAEVwAnrBIMuGCEtmOEkQCjZtNTli0AD7IjsgxSlmoO5I5hKgJJN1mTiCfrtHjU6cB4hil3L04n6jADwa6AaXSHguFuuGJKYOBLDkGJU2gfklNogiMVoBJPdDBFAPoYCSJoM/UnOuQh6mJADyl6RW2rxANM2GFUAyxLUA88pyYmpQwjavjhjKUA+iaGBjhs15FYgM4gQWAoQRTPIFV2ELTpzk92dwjjXFlhIs5d/M7coeQTrQRjYxXivAqOBUZkKg/8LliIJ9wFGNg4Jt7mYsWQunjcBTgSVB01t+1Ad0d3LWbUWZhRa3DiQSk5CsgctgQKoQaKrCCFCYkhg6o7pJRBz4f7mQZvINPA3EBlCSiwQ/Ee4BZ23NgVva5VpSWS5HwAZp0WVrziuqn30GenqWtxaLwTXC4zcRIfIRJcStzVLddOwNm07QSwYwDsihvCuaABOJ2NgGQlSdsFWNohAiZgDDoiJEiBGUAWXNyg+g3XNv/5aUUBzmVqKNMvh22CAw3lbqDkzNFpMPtpZi9RhunRzU2srCQ6MbFVqizl3cEf7PNQJaIfJu0lEnGam9OGy+Doo/vNjWzCis3G5GlhFiXb3peRBxhk77m6EUvGS3u6umf1RmOzcXBuBeqOFAALDJI+jmIwUHgjty/XcbhIUQn16i+dzeo/NAriglwaNeF+MQAHnuWIm9KxoNVoD9UorCmARAou0j2fnAJw07Xp717mzbhw9on4lEB0mojjJcukUjZJqwGz88MZSAGo7GVfYdN7o73htkQ8IPSAwM7RvvuZyIIO5BihQLRPVBGzdna6r9cfQCdbk+plWTKQHZAdXp3qVFvbP6ozlTSKe5aIz4K4HwEDFeN6KbMgYJAt10IatP6O1tsbq8Ly4Tyw4DMBmWHqKTBMwIJjVYCDBKiBT9WGLC0ZRdUKmwQt66ujl7PUuUDMQdVltRUWqKdABrSLnIuCIX6CfeBDih7pzfRErwGcVXoElaP/eaZSQPYdDhEh4vFEJJpMBCHEYt6llJ0x4BEXI3W7IhKKexyHNOTS1ok9mM7WoDMSDFTnHJIHOi8kGvRhtWdFuQdkYbISQ6KP9AYYdu37AtwGHCJi0RDZwpkoKgMOA80SnV3ddT09PfPjyWQd2sGzHgAWPFEb02s6WIy03MkSH1QfAiZe3UjhTDCdLU22LuDl53+f0RTAuOFU5CbisTJhJ2BhQIuD1GSbRhl2O4xEzM/Y4WYY8dqK6l4FDtRTMLjurgzp5KO0D2Qhfy0TG1aWpd0vyOVX/+euaZA1qij9U9EHqxE7gN175DCOnjx50an2jotxJsoc4CIZc9gigNXANf8KUoHJnAnfUqa/yVxnv26TkwJy1GDWxUSNkw5LBQyWeDRqNjWFN5nB/LMjbIYSCjBqmyQUQGO4P+XUR93P2mTq8USlSCTOllFoel6g0NOLQ1+g/4Nuww7BryVOZSs71nL8gpPtrQ2JRHwWWsbVCmUeS7AoWMkFaoCfjU+BKUABIAYsnU0bNj3hU92dFawyTAIoamB4DQyp3/LLMI1TZjjYpYbdZsVD4FRVeAOTh07zvuIrBubBX+Q4eMYKzAQ0peeQpudDI470zsZNG7HM48wwYNsA5aB5orV5+YlTLevAYcyTPBTk+DOGuxgp8fz4PgVGQgHw6FxESCasUDQancakaptF5kxo7sBFWKyoHJpz1sL9nnJUgUSi/LAb7D4JGQA6BkTMKrdw5RdnKSZdZUGauawR313Zs64cC4elHT2dtR1dncuStlMJjoLLlwowstZnxEX5CXwK+BSArVBvrKe0M9ZbJo+BzKhAk2QibpgQZQAL9s7Nn/tax0BGf8eOXkSjgpSxs3EceITnxBUNzosZbhjTRjfWRhYYj9uzT7a3rGk5depCC5utpEgC3umM0F9IQvofPgXGiQLQZ1Dh2dXZVX0q2l2G8y5gEqTG4dAaYLUS7AlMiOwuK/FHPveAw5XHNOIG8tqTknIy6e+9PNWeFSE5Dk00SqiSg9+LkOc303Adxb3yE7csOHLyxDt647F5+M1VZkhh+PRqmGeGfjSfAj4FhqEAJmoYBDqwe9J7enuqBGwsTXlQYzbgwMoljk7FYuvRhG3vZO79w7J5gzfw90puYjixQDIc2nxxyTnyZCfk5aUfptapx4rLkOLQ5R99d4Nphm7EEkodypZHHvhcRn5k9GP5FBgpBSB2aKZpJmPR3pKW9rZazt30AsYhnXEQcwLHA/x/CUu3r7M8T8chxIYmRzTBTEDT9mC7l/dMDmz+GBKkCgSu/HSLCtITYuNGDSe5DYmW5QYqorlv/uR7KhKWdiWQb3YkGAnCIDX7elCWjPzbPgV8CuRPAammAHBgW4MNh01lHT3d1TxzGQOdYz1T4FKI3EKJIf+CeOpAJyP1cxyNqYSaAMchosPwDwQmOvUBg5Pyev7yy/15ZSpe3fMAzd3wsVsXxm397XA9NMcWThQbu0rBZaCCqH8+OWUvw3/iU8CnQBYKYPDLSZsA0tHeXtPc01mhwfALe5yyjTqoDbAZFm6dYDEFOy8EnA09NHJg1knk/UqKacmGQkjNKkj+RS3JlnNrRc5A0JBxrvzEey+AG7E3gzcKQ3CKB3QTbisCYUTAcw9bcublP/Qp4FNgNBSg/QZspOJ20jzV0T4DFqNaAGIKlk0yiylqbxpH+wnsFn1OFXloAHBwUGv0zYHxuzsFHDkUpJLp4UhX56w0NXHjVbZR74GGduXH/vRKJFpHS3Is3qAZrhYwTdiVBEqQPs3rhKqi/+lTwKdA4SjgYv8jzspJxnqiZdBvzGTOcC4r9RtZS5EMgvsS/Di8LONEzJTPUS+F59RHgw9ShT+SQ/AeD/qWe1YARcvFypVBsWsXvSQPBQ4qQaHP2LhxY7ClJvQmRFmA7e5ROJjQKZhgoceBoiaIzTOEPRYhFTGDyvJ/+hTwKVAICnAZFhxHR0f79CNd7dMFxZTsO2I5IKV+A8rHHe6TO0/JKpQdwL6x9FBbmxq50HMoDBr4PD2uvKa0otWJadYi+bNxEHCkQOOaz/xpaUtd6CZAyHw49QVoQBuTCtgy74bgvQYFY6VYiTLeM//bp4BPgQJSAOPRW4ZtbWudbce7g0HDdOE6s288DirNwqg0BZy7QJm5TT4jk4AzlQYm2LxZAgfOgsN5skAOpU2V9wZlqH7yiQa/W05KQZp+nmwKNNb/+S1VVq/7VkBMLfKLgZ0YUCZlE1Q+hJvYM48YA55mLNW/6VPAp8AIKSAVCwAIqAQSvT1d5cdam+cxCzD69F2j5IuhedL9PwalexD+onbIx7U9coQOHqYKJGxnHy7asmanCqBYos6T1TR1upvn1AcogbTuVZ9433RspAFo6FXQm8QHgwY1GjhBSjdgxIHy1D7XoZX37/gU8CkwRgpIxz0pMaW1tW3mqx2tM4QZgphCN5RZA7ajSd3B02LbrgMq1kJ6ucgyvz91oAvPPD1HDgUpYkHdiiGvFKQrdtmisZFO6SRoABfeAveeJXAalEgXT1gwA1EQhifwgakHgWrIKFcbVBr/06eAT4FRUACLEFxNSdq22dxycp5I9BohHad/OLQ8zxgsDFC4BKO3W+13MsaaNQEsnlBIGAIcLszHyYXQD9W+1J6VXMCBoU+JxlVOfTbBtqOx0dnw8Y+XwTz1eoIGEiczgQYLh/0GvIqCWYIHEXAjucphdD/4FPApMEoK0C+WaQQT7e3t1a+1npiPgQelQc6zOHACNXeWuIfg0PcJWWx5KxWlmOCHAocQnp5Cw2a34QO1EgxnV65fVUVOY8PHN8K5T/f1yLosF2jIVIgAfgOb7uCUmPBDEccPPgV8ChSWAhhnAAlsYdPck80n5p3sbKuGWhE6z0E6zoGlUnKg0dd2sf2lFBYoMYXRBus4hEg59QEvsIdHDSPQLF3BA38NDhztmqjoSPScxUeaE7oOnEYtvGtnFE/6kgO7ABhuENoaeWKiLKrvqX/hU8CnQIEoQNuNIA4C6+3tLnv9xLGz6O0LCxI8SDybUpRiCs1JATjab2Q1lJgi9Rv8PRQ4NkN+YDDg1Md1M9tmyAh9H1g/0YxwILjyLZ/92MXwsjsXxUWHKEL7ovdf2BBWIKoQmIAhOcCpP4l/5VPAp8BIKJCakDHOrBMnT8492HJ8rlSK4lzVHNmoRQ/XgdJSf0zGqxvogmMocHi52b3HwGYcJzuBkI3j4EOIQY6oLqu8KZGwl8CzXxT6EcpCwwboPqAcDZjIXdUje22GzcuP4FPAp8BQCkhuAy44Y7Fo5MjRI0tFMqZHzKBt4fyuLMiBsa4MQzH5PyK27nlV5gqjr/TcMw1VBRLbjkTBCOxUClKueGQNklfoTSYWW1YiSFkqa8wMD3BwiFzyyY5NGRL5t3wK+BQYngIciZAHsKEj2dLSMmt/8/EF5DZwgHqutEmcgWAIy+7G/pUHZMQ3nx2i0Vd6okzAIbBFXnIMcF26V3Ecw614aCKeSM7ACWIw5Boubn/xrAk8ENIjWf6J+pP7Vz4FfArkoAC5DWweTUQT8dCrRw4vs2NdwUggYCcdee5I9pTgRWCM+ZgIz26SkU5WDkGazMDR3Ky4GE1/iUsdCFm4GpmtfJhwrGm9sWgFgEBuXFNP8vhMVSlzRfJI70fxKeBTICsFAlCKHj9+fP6Lx15bKgIw+IICMmtkIfqUojgA7WdywytNzHfskKcKpKfLPF5TZ8FiH8muPFZWpBYE55aGuru652B5FcehAK/yCGRrYNHqq0XzoJUfxafASChAu40guI0eePk69NqrK0S8x4yYIeg2nGy6DWYPH4K03RBP2WFHiSnzYfCdIWQGDk/hYNj7kaY3J0apTCWOJeKJGdCJQO+iNKoZystwK1sVMkT1b/kU8CmQNwWo2zh27OiivccOLxGBiEgOt5IipH8cDvefiKb9LXTYIx46wJXVISH3qA3Oa4Ogsl/qObCJfkjqQTe6Yj3Qc/BAKKyr+MGngE+BCaEAuY1QIBRr7+yctu+Vl88TdlJEzIBtZ19JYT2TwjRwdrm9yzGMTbLikSMUCjKO5WzAwcjSqQ9M3PfKlRValmcPAClN9CYSs207GcKPnCBD5z04iBJGaeqP2eZMkL1c/4lPAZ8C6RTAmOLWeVqJHj58aPnh1tdnB4IRkbAHudBIT6McaIUpo2Ds3iue3HVYnnqQhdtg0mzAIcCmKFsMrc8b2P/f3pdAx3Wd571lNuz7RoIgRZEEKEqiNlokpSRU4yWuG9VOqiauc5qcZmnck9hNFzd1W1epck7TNsdJ3R47caue2nLqtDzOiU5lW7IkFzJ3UeC+ACCxkARBbANgBoPZ33v9vnvnYZ0Ngxlsmkti5s17d/3fvd/973///7/pgENUI2LEm2KxuAfaZjzABXWYDwIsIOXlN3deYJ8Sh+OvqO50xGAgCzEvDqBEdKJltjKS+dyLV0UKFClACkjZhjs8PjHacu1O30HapMA1MHXA08kPEtyGdcPUnf9LUHJ8l5PZieskH6mBwz5PVoXLMKl6LoEkSSa4JZxsANXK/IGZRu6sQMkd6xUABf5QY8upuyIud+kMQCIWj5uuUDBYNTHt3Tk2Md4yGw6VxuNxB6DGKHGXBB3QchPgsQR8khddvFukQJECpIAADZcrEsJ5sD23ep/xzUyW4/QA+BdNt/0qDO7h+xdiStV8VXIbUMfoHIyko+r88QhLY9nnySr6NRyXwJWEYAjwvYiTWJzMckQjoXpwEr3xuOpyu9xBrkhi0VC5F45DfL6pR6dDs7vDseh2eFWugOchx9XBPqVEc5oepzNUXVY50VJbP9LU1DxQV1c3zgKj8ZgLLUqJfIvLL/4qUuBDSgGMUHLtquaIDwz2Pn5zeGCv7ipVoukFoiCWSm4Dx7ka52Fg8m1BvcBF4kKOwGGzKS5t0IqYoxB4toAL4ABOBRwCXPyzgb2IdjIWiZaOjY4+6gvMdHiDM4/gFOkWkZYME3JhJsL8DteheEwPxaPOqeBM5cDond3Kbc+ze+qa7nTs3nuxpWX7XdOMOeE3ANGLAAKyFUORAssogDNddXD0syPjI9su9XUf4ghzCm/m6bgNobfhgZYoxqL1X40u7KRQb+OH19OCBgtPBQL2MzHTq0f2vQcjmZ9WDAPKnlg0pQgSVdRomdvVF4nFtgPtKmVUeZIjCpPuiOfLnSsfF5DnMJ5qca/ZhCQYQKE81rbnyuMHHj9d6nFDOTW2YpX2FFUt3i5SYEtQgGIAeOPR3U5XJBwJu099cO6TfQ8GdpV4Ko2wEU/lpMduexTo4gK38X8td8svCIUvWsEmUfiyE9jfKUFARHgJxmqwkdXa6j8CTa1DGPbUEk+ZJoECesQ0GiAddcMIhWyCLSXl46V/dj34TXYCqucyOoxmIRzR1ZHJ0aaR8bGdTXX19yrKygOQhdAMn9xNoriFWRSvixT4kFEAW6zw7IUDGHXj2s3rh68N9hxwuUotqJWLsZZmkEQhNXVBfhnA2SS/Z/7kfJ9ybJdHOXMzqd7GUqqmFo6KmC/J+JZ6mVs1CGnqIaPykxJRRGQKggHLyCrdfA5kTSxYy1kWzmkyx32TDW+dPvGZyampWmrDEWEXxi1eFynwoaQAp08EOOWJ9A/07z9/+8YhGrFhzImxl2bQ4TmMS6FD6tadr8VP3HhXZNRwaJlqubif5CM9cBw/Lqpm6ubbQCZYy2Zw6jNfQE5gMZ987kql0gqOXTFnwoHKt8+dfDEwGyzDAU4xcZb9XLTiRZECHzIKYGRyx9Lj8oRGRx60nrp5+aewaAEQ6OlM5m0ixWBUr3sUfbC1ueWb4uYeWsAe54oiq5AeOFg3cgsne/uhGvIm9dgRFtnlZ1XKKiOR+4CjMMs3668+f+mDn8Xmrwkbl6LW2CrpWky+eSlAYShBY9I3WXvu6sUXwqGZMm69RtNYvorBDJUHbJK64KhYwQ7ma7eOv32JVHjpySdXNK4zAQfzFBwP0O2PEvoc6V0JMkUBAsAD8lmncnt06KFrN64943R7giReAYoqZlmkwIalAIWh1NeAqkM4AAO2C1cuHRuZGmn0uEsyCkMpPsA4UiAQVWpKSn+455GD3xANhSzz+Aq4DabJZuBJz+ff8Q6prfVl2PN9DgIIroWySSvqleaDIMiQZjkmIyQ+4StMU4e8Y62NFdVjdTV14/FY1A036UVh6SIyFX9sRQrYOyiU88Ug57t4+cIL3UN9+9yuMhPCUDIBiJI2UGfD6bS0S+UVFb9y6dX/c185oLiUzpWvIrIb/J2yMtaQ921le+1h1am3AzwofRWVTVvV5Q8BFnRBJHZGWD6BkNu8bHOGdlNDFSYu2OgZHhvb1drQOFhRXjkD8HAVwWM5oYt3thYFwGnoCdDQLlzqeuHqYDd2UMosePQSO5JpBw98bWEXxQ3lcx+Obvu1mXcvXBG7KOenM+psJKNidsAhUxIkLGVHyV8ppn5QdTj2AzxYV66N0g16chX8k4IXqmrgLBWoucEZeoLh4G+ZB+PwOl2AKYxmRaEwNjQ2squ1sam/vKxstrhNm45kxWebmQKJ5cki0LgycPNRCRoQIiRm3TRtlA56GMFSft860/O/hcl85yWO3cQgTJM6yaOVAEdiyeKPKUPe76qtdQSL5yAwdaJoXtvgwGUD/wgCvAd1DjQdm83i27R80CztBPJ9Hdrxr0Dr61Us2wbARjwBRChDCjYmI3jASM4KRUOe8YmJ1ub6xjvlpWVBgkfRpB/UK4YtQwGCBtUPFnIai0Ejo/MbjkXKNTQocH7LPNP7L8XvujpdefBATubixso+OOBXGjioZWWOdDyGreDfBRB8GgO2AaxQIi/iRQJLeHqDpQzi17sgQqcRc7yjnL8+sqzQZ/fvxWbJ2wCPneBECB6p7WgSiWE9Z8XjMbWyrML38Weff722utYbiUVgnbsyh8nL6lK8UaTABqGAMFyD+z8YkOoXL1184crgzcTyhJxGRtBgK2zt0BOWO/IijNemFTof/uHtnJYoNllyAQ6mVWGvr815Pv5IR52iW4cAIgfRmp147gF3MQ2G4w7sYy8o4YouqLEG7UJFeprtH+s0levIq/9pTai5Huk4Cq/npwSfIsHJRqIFSRdfCvAw4qrHVRL82DOHv0/blkgkVIoVkZmRb1mcVfFXkQIbigJi9wQOeWA9XnL+4vmP9d4feBhaoSZ0m4SGdRaDNwJO323FjTtgW/6mcu72DSHX6BwMr7ahWZSdpoiXMTQ58Je4Tk+agurr48foHMhewiyOxufIRzvc/iWwVf8BhjcUvroWR0r+S4CHsAJUzZ959Mkf79vbccWIR93cwgWAkf0phiIFNhUFCBp0MeGd9tad7nr/E/cnR1vczhIzlo0glC2lMFTTcBaC6cc4+EXlbO87+eA0bCKuDjjsXGwOhMBAPx4HwDPYZ9CSq3hZ8BCZBjDrIuJoR9v/EgLUXwJ4kJ1yzxeT/IqJCB446Fq1YBz3+M69V5947IkTbpcnFo1FcKB1kftITrni3Y1EASkEtaBwgIPKwGkM3b+368SlDz42E/JXehweMwLjT9Y3i0EbxYBwcfMB0+avGGd7/kKRxms5C0OX0imLOixNUtDfEjxgbKNG3CfgA+0ZOBiJAE6yAw8AD1mMeDyiNFbVjR9+/Ol3mptbhuPRaIlwKULuI+Pip6DtK2ZepEBKCpDLoDkFDdZu9nY/cfLGxZ+BgFBzw19oOo3QJRlK0OBsalqfN8/2/JlwAyj960jZ5JIEufxcya5KLvnnkkZTBqdjys7676PhvwjwqAfxuGxJW9cEAop1Cbw7WzPhYFnP0OB+NRJTamvrh91uN7a7TR43KfeAcqlZMU2RAoWgAE8igm4SVciD4bDn/IUPPtp16+ohVXeqTs3B5Ukm83i7VjHMmy7pI9j6N+aZnq+KB42QJw4O5ryDYme+8DvtYFwYcQ2v5bbva16/0trwOkDjMwCPumzAw64jYFV1YLsW3Id+f2K47f6D4dYyt2eipqbGy41h0zR04dlwo/FbdgOK3x8aCkguQzecLk94eHho14mus58aHBtqczlLxLLdAKBk2U0JGk4BGob5FYDGHwoi8oiDzk4uUfIasqxTXsvMLrOEsFT5SPtDcB30/wAeOyHoyVpgSqqjcRbdqeE8Cexhx6z25p0XD3QcON/Q0DATi8dK4JcIL6Uo/8juhRRj5ZUCCX+6Lgcc8ETD7hvdNw990HcTnrsg1EssTXid5QCNznEaEjReYVqp5JV/0GDWWdaLUdchLAaPHwM8dq0EPFhjITiFiAichio2aixt9rHWh7r2d+y/Wl1VHQZ4uA0CC1d/4EPWoZXFIj9kFJiTZcA/KASgD124ceWnRn3j9U4cmoQOyO3WbLkMUm6BTMP8p+bZXrk8KRCnYb+qjQ0crKUNHs8+1KRqrjdw9PYz2G2hkR0VxFZUf0irqeSuGRCeKppz6sm23V179+y7XVVZBUtbxYFspdIZhajFUKRAnilAwIACteGE450p31Ttte6bH7k+1HeA3RgOdbLfap2v1/zuiaL8hnGm51U8UsFpwEt5YTgNu+gVDTw70Zp/2+ABjTdtWv821Nz/Lk7P5eAWfMIK6yOWL5AUaWYMejAOV+BAS9v1Pbv33qivq5uGKrsaxxauED8XAWSFpC1GT0YBAgYPSXJiWRIKB0tu9fc9fr6/+5l4OOR2Ot2Ys2DluTIug30/lnD954fpxueUM91viKWJVH8Q3TdZXfJ1b3MAB1trgwcuoefxr7Gme0WsQyxh4s/DY1YaEgACF4VxiE5UPfZww7aevTsf6m5p2TbscLri0Alx4ggHKUAugshK6fuhj29zGA7dFQ1jMhocHOi40tf7zFRgulpxOBWXqpPLyFY3w6YnQcGERqgD9ha3kfyXlXPdXfnW07ALS/W9eYBDtoBElmj67P6Pwbbl25B7NEPuYRvG5aKlgQUlTfWxhKGyKhiZlur6od3bd/bu2N46WFFR6SORDPuIBtajCCKkQjEkowCEnrDdgucJnlToigZDs6V3h4b29OBUtQdT441wEKq4sMUKT/5cD0P0tqIgbbh4xmvc+JEVtT6n8EgDuv27vTrbkxXVApFXWO+VZl+Q+PN2MocONKsO4+twhv4ZnkQFDkQSNrdiBYCAIFqMOGTEFae7NLyvcdvAjpbttxsaGu97PCUhGCuqeO6AmqoEqSKI5EbtrZYqsUsi/OFCgSswO1Nx797dfd13Bx6b8HtrCRjQyUC34cyXlXHaUgpJeQbvWtZ/NE/3/AsRYR1Ag+VuRuAQ9Fq41aQf3febeG//CWu+KrAG2PpGu+j3I8eAxEKsTbsAnvRNMtWWV0231bcMtjQ1D0IWMiJBZJ4T4SwjTPqLQJIj1TdvMqqKOzVnDBqGmnfS2wDA6Lj54G57MDhTpsDdJbxMYadEHv2Rw4CbX5oYxgR8U/y2cbr7e4JaWZ6BUgjK5tCOQlQj5zwJDhQUWcqze1o1Tf8qDHtwpgNhXZjmUz6xmjYKLoR54MhKCSKartSWVU63NbQMNjU23qmrrRstLSkNwi8R3CbEHUImkph9iksaUG4rB7xnh6YZ8OPnuP9gaNfAvTsH+r2jreBW4ajKCQ4Dh6fmDhiknFTqgrsKLE3esnTHb4mzXeVWqwSUdaLvagbVOlV5WbGLt58Ot7+ISf/fw7PxI5RXgK3j8mW1AEL0mZOFAETAaoATgROzipLywLaa+uGW+sZ7tbV1w5UVlX4nDv4lohkQroL9ofWdtqk5EhsI0Sa2Y9kbyNONOSdMm4FrIx1QT6fujHbfuvnkiYsnjynOUrr0JIG4S0I65Uorqodb4KAdFK4hmy+bZ7r/WJCZRzRev05FyHUNuTZsXSudonB7aWLy/Eutyvhd6P//PoSn9SA+X0NeAIRls2PYAlVwGOBukDXcqKpOt9FUVuXdVld/v6aqZrSmtma0vLQi4HTqUfQBwZHAN70GM2dMIVKItmGXNzZAYHBwVsUxHAbrKv/I0uU3QDothIoEJhwYqG90zo07JvLYxaj7bNfZT/QOD+yuKKmMBeIx5yoGFelKN39OKCOCy7Descz4F4UfDXa7NdDPyPatrqKN2RaxxvFeegl+PRIHyzz7aJOmRv85XsRvQvejMt8AkmiZABEQUo0TDMiNEEhoFOMsideWlk41VdeO1lbWTJSVl49XV1b7XOBIVIcah7pxzIJbuKgRy8rvyJpQMgEYOMA8zpPPo9GoOxDwVU35/LVGLAYrY8Npxg031/X5qg9BA4oOMWhHhaHrEK6srvJWlVf6sCUexcCBYp7h4Oyer/LykQ+Bg0Zp497xph+/f+rF6eBMhRsTxwqsWJdWgxObAywL2BUhy/hXkGV8U0TKs0n80oJz+b31gENSYTE6P3+gTYvHvjAPIOiDcglDLsXmVHKh37I0CcEqOzmABFtudOhOMOE3zvctd7mjZZ7SqerScn8tBkd5ReVYS0vzHQxU9MV812ZZ9dLfAGiQu4BVZmxqyls/ePfO/nvjD3aNBwO1ZiyKHs0KCtqlzyenp4Re/kH8B1uNprLKyR0NzQNtbW09tdV1EwSQGABkI7mFpEJXf9+tx9+9ePqjOKo01x0TAgZkIhrsqUhf5c/Q1D9IuNdc3I9zomthEm1V4LCppYG90+bUbxMAAhbhV8USRuyNiYO0SYe8AohdAWQs2HtkzuMs+SdBhAOQqu/gSl587m8cb25sHo2Ew26MXNF77PRr9o260eBqZjZQcbPnxqFLQwOPKgQLbCOqGMwODmq2RSCHuM571bC0FGwFPbeBswHgYnkP+jzVtvtqR/v+8+UQQkdwjs56GyaS2+C2q2GYWheOKYDz4AOlJZVGKPPp8AtoJo4EwWQCaTv6BFDnh1jAfkU51fOBiLSOOyYLKpnyUmpFpny86R/ATfKgnMdfeklT3uycxtkwP1J2VH8LThsnMYG2AUAasHok4814hRgRQtEHmYu8ISOA5bOG7TuHZcHfAv0w7KhrGK6vr38Ab2UesOwUjBWiHslfJgYpZ3qARvTu/bu733z/5ItD48NtcF6v6boD+9Gy2mSh8MfDcIS/S+oi5PuP+fOPFYVMBYJHF0Qelj488aDl7siDPVWl5VPiEC4s7YRsKHmLCn9Xgmx0JjBTdaPv1tOBaKiU5xuDw8zCOM0GDJ3e/zWA0Gl0vc8rZ3pfVu55hzHROdBnldV4IC88AeRuw1qUs95lWMqNG+z7mkIAeetkAAByUqlq/qbmMq4C8B9CR9yO5xy0BeE8FhJADg5ABidwoFeVp9QPJ8t3DCOOoyY0rPgXxi7gNQYAvMqbLixN+gb69r/9wcm/BaGki2t12k4kBvFa1WZpQ1XuSKFwC6BmzUaCJbcfDO2rdpf4mxub7seiUQ8geO1otaB2JIjT4YyNjI60XR7seULX4aWPbxOgl4ZYcmLiGUJEPQKGav2OQkWue5O3kCX6Jv5+IBzusK9u6LDVOY6lxLcBRBW6/ZcvxwAgN5Qddf1YO/99sIzy5SZmvaWJ8/U70bnQyYgbplLmcBm72nZ2Y3bVhCOWfBWUKR/UACYP8f7B/o53L575JAcAZC0GjhPM1uNUphJW9dymEwEE4IZdKUMfGHuwu9qVAI/YOoAHwJZyIACsNnBn4JEHE8PbcI4raAbTp9StxZYb1nsIeMc/wt/vKGd6vgwOowe3KMcgl2EoN4g9myMUfHbdoGSwxHEMNkAYygTXmQjZAikjr/olo6NhxlQVXzhYGZgNlDo0B8aI2P9fE7JhMEbHRse2vXv5/Y9jB4XyOQ6IdANgTeq1tBAOSBqDETygXKWfuH7phfsjw604aFkcPA4SrvpdLC0z1W8MeswxjngoFCodn/JuYxcC2qcrP07CIt2QqWkfxylqnwBovCnyJ2CwDxTYBD5VW1Zz/8MKHItppppeDNgg+gD7aLpOINPJeIxLiTi5lMxpZMq5TyYQ2aDXT8DUOjAzU6vrOsaHtJaci1iIC3R+SDDiIZzXcbn76lElHtM9Dmc8SpeKhSgvD3kKYmOXCjsZViQcKLnec/NoBMeAOhw6RAsJu6E8lJNNFho0Qmf8vpq7/ql6xeEGqEGrOHnga+bSBO/a+oFy6ubb+K1Sz0hE34SAYTezCBykhOYOYuof5gtGIBCkD5ZCkMGuO7Yc0IskAoh0KwISiTbICBqmAI56zEwQLWBdL5bL6auQ81PmD7kGS7l3f+jhO+P3WkvcZUbYiDvYkI0cQC9WEBqVTqVvYqRtcGDgERd0KUzD0LN4a6tvGpwK0xEPNId17/RUsxINOt1CsQ/7dMlzNygJh+MpdpFzIsqxXe6NoPmZvLrZ3y0CB2lVHZlFfxzLABxynIsuov45thsOwZnQn1DIha4cEgAigAQdRXIkBKCUICRHAFcqssuNTU/W84xQ6ilg1ZSiH2b/YtPFdEALNAxu4/bdwUcVLFGAU7Jt6RLJZ4xnt4vf2aazc16afmFeGfMjUSi0Bbdk0Xr5zvBQ+2wwVOJyuqNrscSDMBObcFCKi0TdMGbbRrJB3sFN/VTvC6cJinXUIJxTnhJEiMRTxbVptCm+pau8TVHVAlaS52ge6RjNAByyAmKgm5Xcb0dPF3vu1tH9O3XL+GlwrEfQiY6iZ3Sgw8izYHBKFBKmAmiRG7gMJRQM1Avv6+Q3Ctm1kD+5Da93smloarTF5XBbUczYWRQJAZ9gu+ejEgZY+dQDR9LM/iRKSlC17yz+ZlaABNxMKWuShYFGOLZoyDfZOOEd37azdUc/trIrdNURQxbz9Vuce15+gV0z/QFf9ZB/shHe4yh7SVUeG4N2iMeX0F8oCIUn4j1QThnKS13WM5MicCSoj3lhNLGjwb6ZOoi+jYOxGaQvhKhy+uYd9PbXcOc1eiqzRh/epsQdT6F7/zaWBT+XsNRNSmt0K3QDCBu0AAARkUlEQVR1TfWGZsunfb6qmqpqP7YanQVRBANkYGUllkMTk+PbaKjncOFYwfSKS6QH/QxwgRPCxlM/cJDVJiBWAwpaybIwDv7SBmDMGGLywHF4bAN1RBA6ZcgL+Ss4d1jXSqFBmQ5syXUAwnQlFo+4xifGWncAOLjDWXDQoLUr6uybmm4MBv1lcC4Mi4FUMinQB4r01AYFVp4SjaVso7Nz3Q3UJN1X95lqJlxdrpsxtYVpQDKdqWjCgYH3zy5gNYsm3r7NTsD7ckvNdm/4k7572J9/HT35awvAKDFQRErxwRtiqYLR5w+HS4OBQK3TocPVfeF2VjhjxqIR1+TU9DbM2naD5iu1+Io8gIrBDJsr7U1wRPus1t6DlhJ4BrsDj2GjAy4McEapXG9RvpMsyHYjD+R0FukOWtXGk1Z1/CkrWvaE5Xfgz/kU7j9iqsbjsNN4g7sQyAgz8/IgXwLEHCQ7tEtnZ2flEg/byIVcrlBoTa9eAHX32OTENjqOwpKJQCK4xiQ1pXwD9LUmTMX8iXhe6UvJSS1Pv7HvpBokG7vWBagdJqx7XLPiTWdDk0r4/6hENSxwGLIvU0IuD9/mb5mHrvZjxsHA4gybXN7BIjmiYNmk+Wd8tSYqIu4UQkCKvHnOTGB2trLPN96gOTyKOHOGBS4PompY1HOQnmtvOfC3YaUJHhtYcWZInnZeErqESGew0GfqpAMd90XjRPaWclCB2r/CpeFdt9wSp4m4NBPXlNO3+yy387OYxk9B8EyayXJE4vkPEAjsCeiEITsVnC2HBmc5t7Jhy07aFyzQQhjb5hWj05MtVMUHaIh3laJAsZuCGNcUJXhVxPFXcRm2JUI2g2RLNDRTIyCXfCCAQw761B2CvVZRqsDj7xB59j+9lIZMK9PHjQfgOm5wZkdY1mnYy4kPGAQixYRvupECUgwIMuN5HwQoRqwvpnzT9QoOAXKC+6CJf/KCsHgnJwEuDLsW37x+/HhUea69QlgeU8ORoXMwjCzfEtc2WCZ+LP7CIAfCoJydetx4QTzzeOylmyxeAjDyvB6A0sP/TLSe5SR9FyCPeBOBSKgsEgmVQ3EthpqSlEnjL67Pyn+BFEI25Pf76ifgbJjKcmlAlysaSJ2JbdZpAG1Ioc7G9eupwHXlFVrnFEs7/TpXZ82Ln+9kDmzHyl/paIIY+K+pVXAGd1jU1jVqD4CFlZeD4dxtPzrc9VTAkUgg4+ITs1ldFAOaW37odPL+wlxXcy26PTWdTW1qEjMmTP8TOwIpckXxHIWQSxiq9r6I5MRBvAzHBfck6od93RNKTGAihMHCYFBEWfKB7VLQDdwLPn9OPKuosJd5uIUguTVBe4hq+7iFiQB9B4F1vF4URCLULxSPesLBUAXgj4O1MAG0o5sBrFNcYxNYpkA25NIdRmrQhX4Pl2aGGcJa5qSoVOQ2OSjZ1sLUck1zTTdI1rQi61iYHKCaNYlB4sVgwe/knRV1TMxnmIgV5ddFnc8MRSgQXVL/+Q5iKVc48yBlUlozopg9UexYOFg67fdxNsPRDHkGDpQD0YFJpa8R32QTTPwV+A9ZUu25n3xgq3XcgvAX7DZCw6A9Y2KJBpsfBgu2PoryPpYW+KGmEvyRxkIGAguYjyrPtj8OIWEcav8lzGIu2FyHaYFTg8xJyEXUpLITGtjhSAsFo1mfnPFXE2gFV0CViTwH9AssjXQjCG1Rrw+gix13hJTEwzPUDV1FhRK505TWrtWewgFbntubTXZJO3M2CbdcHL1pHG26Ss9LeOlJOyues1OC7abAXD2iHW7/En6bysU9jiTggUd4aGLLlrMttvzxM2lnI1Qx61gsUhKZDdbADir/bDd4Zg6s0GyocsQ/1ahDhEBrTpacJHBdQXaDX5Lb4A6S5AoS0Y/Lb3JVivIeBwqC+EhEWPoldxg0rR7j/RXxsKsrqBzb5ZmLaC/7THMY9+4JwbLcnp2LMneBuoklHggcCQZrKfFAHbKTUM1lkt0F6UZtUb/PV3fP761XqS3KY0OTB75jvGtUyFQvKCdus19pkOvYoJs81Sa7m6rxm6wZeaguZkD0/VNiAKQXTJLrkDFU5Y/0ox2/Jc60mB9U0sqRnsgYnNYdoIcf+eJ3ck4GMxrBSjwem/I20h9FXmdPkR94A3xjG7YJfkBgNJaO1SZioD7QQQFvdUK0oyoo2yN+4GPhcoVyDrm0cGP4LpPlJJIQVGBrQtDVXsShWt8R9yEnwTefwWjHJ/vjudsB3BhI4BCfLQq8QYoJASmuA+FgBQ88KtQST8cyiNqikA01KrGITq/laZcpRDQY/eCzU1T82C6qmBc5DkGMrfPBGUIEdOnv44Xzmi967r54uPiDs7GY48CO/rl2uOO7gv2WAkJTzMy2+8KTvf3I6APBdivqsllnbhBw7CBL7BDMaZAmX9wsrki2v7BSwm6qoU9OTwmNR5aWOi26PP4jwl3oKZwX8cI1S7kw7ijJgW5ol2AvchnLFSZa1sYF5TC+AA/IfT6nHmnvUo7u/RSWLJIbmz9UCCsRCyy+qCIBa1ldeQOZCYCbDAbKZ2cCFbrDHbPiKbmoBdXI/pLLFGqLhsPhkvHJceiszGmLpsqErBAr1m/o5lkRaYtoiy5sMF9YMcipzVJOd5+zjrafRE95HlxCBG9fan8mpxB7B/6hCzu0X4Za1S9ZR9ovYsRdg8A/iuGho2dDyAl9JUXZwTULQkp6E0A4WP3B2eog5BAeF1xtxmG8pXP3YPWBglBfIFB5d2qiSRpmpdN4nIOsbrEF+zJ+v3x9KXDMV+r9bq96tOOvUf+DuJmpvgQPUAViVU17CvR6w3IHepUj7VfQ/Gk84fMoMulQpSs9ChVTBEE1JRyLlcaisTLA1gTVwjluBaynSLXS2zh2w/DP+GsGp73QFnWjcmlpB6BjvcxLCiYNUVbrUCrZz0qrsmHip+zIG6aGa1sREwbSXwMX8Tw6sOyV6ctnHAwCA+w5zpPT1Kcw2zwl5kKYU8gOhE8OAKl6npTejCnYbmRAAanfN11X3rz9XjweLIX2VSrWP33NFj7FGp2wFQjMVgWCM1W0MOXuysIoC67BeGFZxZGHHROBAp1ktcWSYkE0XHJ5JkAFsGiZfwnJzBfQkBq0lQOFXFuqQLphFUT/gChNU/ch3T4Cp8QdwAnlQjyVxCYiLpYGOs/hjlUQ7gSnZ3zVTdtaBhkHezspRNFLc8jwG0Sj7RC1Q33T0w3xyKzHBW1R+uJIkRIlqzzSABWw3hO0w0HpyvG1PZ4xRd3yejsVAfJayCbIbK6DGq09f4We0Qkugh0fTkEzBvR2yi/QiwkOcexzgleY/8a1EGLMzeJpM7TiMVcwMFuj6YAb21wc7DLyyOmPGo98yWS5J6YmcM5uLIPGI0jB8WtaYYyb06KyM9HM/eRMbzfSfVWBRzyEbMGOkTVBN4LvQroB2fCMNUkZiG1AHdQ1DlAM1ABspMYMNW9zpNfCdBaOaaBiGbVFR73j26mpCm1RcpAC4pJUTBq1Wcoo/PpI2k2HM9MuSUYb/VbSGXCjV7pA9ZPggVnUOmp9CUe3cTchoZsggCFTsezk/FtxR5HjlKOAx63ElbFpb8MezMc42CnMYcUMOYpyCQQMurkLRyIe75S3lTM0Gsq2pggYE/gPj6J9GCgXRKSKfeAghpPHfxlVS6jam3H1G5AKfhpKD08DBIJIUJo80bK7aGJajFiWgLGxTgTFII0FXodCszVUfnG4PSGokIL9k1zWsoRZ3Jijt6lrTpcjNDk1uW1k2gttUW5hp12mSG1RLlM8zVcU5SYWXU1Y4g1lUermirKyt7W52pZLbWV/RErtSPsXIez7UwwAst1cZ68JrSCtp3JRdFdD0yCs9GHtSW1IaC3m0pq5SmMbNhwuG/CO7sKASocaEjyF8pLxXfNM799TqPHY2UkOIl0VbNpYsDI+Cmh6D+CDScnKJCfKsVXzyVCw2C0CzWI7auvvlbg8wbgF3yLQik1X4fkcll+JTiC4GbZZtaYC/roHvslmHQ6UCVbLU4g7XJ8AOAA7pvmKeabnK8I9ZVcXZUO5ViVFUet/u8hxLH4HfMGi3+DF/2eAx354pf2HNMPEfS5dUnWaxbms4hd38qAj4OodvrNP9rd8FMn+Dwd38L2Rgf+X8g0x5LT3RDOkxmNqwahsK+nGiRqWK92n1cPtvwax7nfwi8LlTPIOmUOOn2gPRCSkWdzZN3Z/t9zxzgfN7AqRdjglAj5AqHSWJuc4COyCfGMGPEmnSC21itPtMtmFbLrvInAsf2ULwePz2pF9HsXh+FWoKCbW7VktW5bnuoI77Jw63O2vIEnGqOz+XLak6fgyD0TA1uoU7E+l4pfbQXpkE0zlZYAHli7G2Z6/gHJcBXaEvoGEANzCcR5sj3xhECPj3NbEz2zqm3UcylIygAbzkks8rk9cEbnEG99a2qILCSYkWQtvFK/nKCBmUHhB/2t1ex1P2nqBkxuecgbhd8YxOJdTDhdioHOw5+kvi/rK8QcHOWC1Lytnu/9QVPvQNDzDZ8lqdyIe5R2ID7p9oO2ov4arnwftPPgm50Ga5Z1udob5otXSfFhnuwxBk+UfBHmeXEV0Pm6d7HsdKvm6cvJkJk5teU6b5A4HQDEkpwA7g6APTgr/t6Zh/TzWt/cg93Cig7AfsVNkWvsnz3lj3uUyhbsR7P+viyoeaS1ZrGaeRcWlBq0AVpx9+j3TUJ+AmfyPxS4V/W8KugljOALVVgm2Udss9rB+IBo1dIZL263UxkXvqggci8ix7AfBgyChYe3+BsRiB7DN+u/A8o9jINBRMf3J8Dk7CIEk27+8LkNQbn6C1JzqhxnGfxMZih2BnLKW7eOs+353L5z0/Cw2l/8BlkA9QtACd+4J8AXdBIiQi8tEu41JM/Hu4SKQmKso7yQ8mSdcBOZEu02RKAMHtinasDaVtL17sbSjDzdqluOzmJt/Ad3lEDpNiVQp50NiiI0l/L0wJMhNFQWh/FR4ecnC0tNcx9EGIe8Cq/3rxpme/6GQ26AfidWGhXTDeai6K/BpsDafBZ2ex1hrAJAAlkEXsW+UjG4LaSZAZmMtr1Xo+miaG1zVOLRWP6Wc7j2v0HBP2uCslnobNn3irWzY+m20iqnYntSFSbhdM+mo+EmAyF70/jYI3svAn1DVfCltyZtAxoZ5V1GPwqfoo+Be1nSr167ykm/O9DyNif4j/hS7Sb8n1ufHj3OGJwrmIyyn25EDtRAXPYkdkQMoYDtKqsf30vISNIP6hKI8DVOAQ6gj60tOef25ZYKGCqfUqBwA9zcAuK+KM1OkRzNUceuGpZ1767Y0vy1bPhBWkj8GDRSlvqc69WNwgmPLSTiTruX7IDDQL6ZTzPgx82vm2Z4vijrQeG3e2nclLcsUVxV+PI4fJ0CsbOnx9LZS1VXxLdXl+DtKVFgikm7kktaSZnb7WHfKNbj9CrhTv2Ce7f4vuMddJQV/K2sbkmy2sB5E32w0ylRfDAZ0GPqSqKiwlGOdpnI9TWceP4Zd/s44Z3Vt6MofY8b6x2LgsgPKwbQWnU7KGMhlxA0fpssvm6d7vy4aunBpkanlq3su6UZ6MKSjG2nb1SX0IbQjHX+AkfoVwSFxyQdFf6RO0IzKWfkxChR1Sv4B40UsskA7K2b0g3v8R5B/vZXQnl05ICYvY8PfLQLHeryihYPzuf2HYfD+T1CNj6NDVok1P3lfdsF8vh2RXyJDgBQEvMP4ddxUtT/h8Q4ozWb91wK4Vk71hTR7ft9BLa7+M8DEJ6H9VSdphiwpJ8knzexaLqIdFduVW4Cn/256HF+nj9QstWvt3LbEdyHIvCUIswaNkDOuvSQ4sm87JrHn0Sn3YwzDZwYUp2giSllJWi3xNDW10/KbbI1q4cQ65Q5yvaxUuE8oP7rC35jtj1GtnLKDjR4W0wxCat3Sj6J5jwE1WtFG6ovAQhV6q7nSzKbAItrhJjwegK8ZBNB2Ke7mU3P02jy0s1uWl+//D2ZTtKszIwJNAAAAAElFTkSuQmCC;opacity=20;" vertex="1" parent="hlh9XajdtWrO3LSi_3L6-40">
          <mxGeometry x="8.66" y="2" width="52.68" height="48" as="geometry" />
        </mxCell>
        <mxCell id="hlh9XajdtWrO3LSi_3L6-51" value="" style="group" vertex="1" connectable="0" parent="1">
          <mxGeometry x="704" y="310" width="80" height="69" as="geometry" />
        </mxCell>
        <mxCell id="hlh9XajdtWrO3LSi_3L6-52" value="Prometheus" style="rounded=1;whiteSpace=wrap;html=1;verticalAlign=middle;" vertex="1" parent="hlh9XajdtWrO3LSi_3L6-51">
          <mxGeometry width="70" height="60" as="geometry" />
        </mxCell>
        <mxCell id="hlh9XajdtWrO3LSi_3L6-53" value="" style="sketch=0;html=1;dashed=0;whitespace=wrap;fillColor=#2875E2;strokeColor=#ffffff;points=[[0.005,0.63,0],[0.1,0.2,0],[0.9,0.2,0],[0.5,0,0],[0.995,0.63,0],[0.72,0.99,0],[0.5,1,0],[0.28,0.99,0]];verticalLabelPosition=bottom;align=center;verticalAlign=top;shape=mxgraph.kubernetes.icon;prIcon=pod" vertex="1" parent="hlh9XajdtWrO3LSi_3L6-51">
          <mxGeometry x="50" y="39" width="30" height="30" as="geometry" />
        </mxCell>
        <mxCell id="hlh9XajdtWrO3LSi_3L6-46" value="" style="shape=image;verticalLabelPosition=bottom;labelBackgroundColor=default;verticalAlign=top;aspect=fixed;imageAspect=0;image=data:image/png,iVBORw0KGgoAAAANSUhEUgAAAyAAAAMZCAYAAAD4BVANAAAABGdBTUEAALGPC/xhBQAAACBjSFJNAAB6JgAAgIQAAPoAAACA6AAAdTAAAOpgAAA6mAAAF3CculE8AAAABmJLR0QA/wD/AP+gvaeTAACAAElEQVR42uzdeXxcdb3/8ffnzKRpKWVpKU3SFgGBApMEsCjgcq27iJQmIeKGckVxuz+87rvWXa/LVa9r3ZBFlJCktELdwKogihZokmkpIC20naQtXYAuWWbO5/dH6wIWaJJZzjnzej4efdyrtsnM+3znnO97vmeRAAAAAAAAAAAAAAAAAAAAAAAAEHVGBACQbD5vXvqByVunHFSbnxhaetJIGE4JPEh7Sof/218ONTmQJjzZzwzlOxSYP/qI4rstb0OFmvCh9EhNfnik8FDtVBuuu6JnF1sBAEABAYA4lIf29tQWrZoeDgfTPRUe4bLD3O0wU3iYS4dZYIfJdZjJDnP5YSYd5tLBkg6WqUa+n5JRGbtkGpb7Q3IbktkOyXeYtMOlHWa+IwyD7Wba4fIdZr4jkO/wwoRNXkhtbli6YjejAQAoIACAMdoyf86UfE3qKBVSRynQDDfVyTVD8unmXudmMyRNl3Qk+2pJ0k6TBlzaLGmzTAMe+uZA2uyy/iAINw6PFNbPXrKm3yQnLgCggABA1fD29tQmrTnKC4Wj5ZrtpqMkzZZslmRPkXyWpENJqiSGJc/JtV6y+yXfYNKGMNADoez+2sDvO7Iju5OYAIACAgDxKhmXzK3ZvHV4dl461qRjTeGxLjtW0rFynSTpIFKK7JFvu6T7JN1n8vtcwX0u3TfB89npXav7CQgAKCAAUDFbzz7ukJGDJpxUUJCRdJK5NUo+R9JRklIklLxN7tI9JmVNWu3mffLwroau1fcTDQBQQACgaAYubJ6sXWoKVWiU6ySZZSSdtK9oAI9IWm1SVqbVKlhfIbDeWV09G4gGACggAPCEtrXPPXQwP9ikwObKtfePaY5Y0cDo7dDeUrLCQl+hwFfUNa1abQsVEg0AUEAAVKH+9tOmW37kDDfNdfPT5HaaWNVAaT0iaaVJd4RudwRB4TZKCQBQQAAkkM+blx6YtnmOK/UsuT9738rGSezrEAE7Ja3cu1JiNwcF//2MJX2biAUABQQAYmRDa/Mss8JzLLQz3HSGSadJqiUZxMR9kv9Jbn8281vrtk2/w5YvzxMLAAoIAETEA/PnNNSkJjzLLXyh3J4t08mkggTZJelWl26R2c3DUx65+ZjL1g0SCwAKCACUyaa2pmPDMHy2m54l6cWSHU0qqCJ7JN1u5jeH0i0Tdw/9btqyex8mFgAUEAAokgfmz2moqUm/yN1eJOmFkmaQCvAPQ5L+KOnXMv26vqnvdi5sB0ABAYBRyJ079yCfMPzMQOELXfZCuZ7Gfgk4YFtlukmy31gh9av6xXeuIxIAFBAAeIwNCzKnBoGdLdeLZXqmpAmkAhSD3+0W/FoKf2nDE29sWLpiN5kAoIAAqDprLzp64oRHpjzb5OfKtUA8gwMoh0FJN8v0c8+ra+Z1feuJBAAFBEBi9befNl354bM9sJfL9VJJU0gFqCDXKgt8qYf6ef0p2T9y7QgACgiABJSOzMkqBG1ufh7XcgCRtknSz03q3rln8DfHL7t3iEgAUEAAxKN0tJ2cCT1oN1c7z+QAYmm3m24KQu9IpdV1ZEd2J5EAoIAAiGbpkL9KshNIBEiMPW66MQi9Y8Lg0GKeOQKAAgKgYgbaTj4jDINXyXS+pJkkAiTeoEm/Ds2vTh2UWlJ3Rc8uIgFAAQFQUv0LTj06tMIFZuEbWOkAqtq+lRG7fFs6vC7TkR0mEgAUEABFsb79lJmpsHC+XO2SnkUiAB4za9gu18/d7PKGzt4bTXJCAUABATAqW+bPmTKcrnmFuV4r039ICkgFwAG4X+5XKwh+3NDZexdxAKCAAHhCuQVNcxWEl0j2akkHkwiAccwmVki6ohD4FbM7stsIBAAFBICkvadYBfnwtYH5G106jkQAFNmgTEtdtohTtABQQIAqdc/Zx9UePHHS/DDw19nep5KnSQVAGWww86sCBYtmdPbeRxwAKCBAwq1vO+n4tIKL3e1iSUeQCIAKCSXdZG6L6rZP67bly/NEAlBAACSEt7encuFdz5P8HeY6h884gGhNOiwnC68I8/bNmdf1rScRgAICIKa2tJ5UP+zp15n52yQdRSIAIq7gpmWSfY1rRQAKCICYcMlyLY0vtMDfLreXS0qRCoAY7szWSP7diemJP5zaseIhAgEoIAAiZu9F5bUXuNl7JTWSCICE2Cn5T+T21YbuvtXEAVBAAFTY5vZM3UjB3mLS28VF5QCSK5R0k5t/vaEz+3NOzwIoIADKbO8DA/0dkl4pqYZEAFQPv1tm39Jw7fcalq7YTR4ABQRAqQ65CxUMrGxqc9O7JT+DRABUuS2SfTdw+7+67p7NxAFQQAAUSbY9M2FqXq90sw9KOpFEAOBRhiRdE3rq07O6V95NHAAFBMAYbZk/Z8pITc0b5HqvpJkkAgBPKHTTDSZ9oqGz76/EAVBAAByggZbmIwsWvs1Ml8p1OIkAwKjd4uZfmNmZXUoUAAUEwOPoX3Dq0R7kPyDp9ZImkggAjHtCc6u5Pjuju+967pwFUEAA7JNrPekpstS75HqzpFoSAYCiT2x65Pbpuu7eaykiAAUEqFr9C0492lP5d1I8AKBsM5xeC+1TFBGAAgJUX/EIRj4o2RskpUkEACpRRPxLdadkr7SFCgkEoIAAibS+PXNcqmAflfRqigcARMJKuT5Z393XzYoIQAEBElQ8TpmZCgvv41QrAIjszKfXQvtUfXdvB2EAFBAgxsUjMzUd6n3udqmkSSQCAJF3i2Qfaujq/T1RABQQIDY2t2cOzhf035K9R9KhJIJk8nUyrTS3B1x6kaQTyQTJmQn5dSb/cH3nqixhABQQILKy7ZkJhxXszSZ9WNIMEkHC7JLpBrktTuX9xhlL+jZJ/7i2KStpAhEhYUJJV1qY/nj94jvXEQdAAQEiwyXLtWVeaa7PSnY0iSBhA3yNB/aNibv3XD5t2b0PP/Z/zrVlFsvtPIJCgg3L9e1C2j85uyO7jTgACghQUbmWzLNlwZckP4M0kLDmcbc8+GT9Kb1XP95tSvtbM89z2U1khSqZHW2X7NPbg/AbmY7sMIEAFBCgvMWjPXOUCvZpSa/lM4OE2e3SF3ek/LNPNsnKtWR+L7PnEBmqzAPm/tG67uwV3LoXoIAAJbe+PTM1Feojcnu7OOcdSeP6VWjBxbO6ejY82V/tP79xnof6LaGhit0SWPjuus5VfyYKgAICFF22PTPh8ILeJtlHJU0lESTMoFzvr+/u+78D/Ua3vyXzGzd7AdGh2mu7ST9zFT7Q0LX6fuIAKCBAUQy0ZJ4fWvB1yTOkgQTaGFjYNppvcde3NTanXCuJDviHPWb+9VSgTx/Zkd1JHMDoBUQASP0LTj0619rYFZrdSPlAQt2WymvuaE8hSUlvJTrgUSa52/vzBfXmWhtbiAMYPVZAUNXWt581KcjvvNTMPyLpYBJBQv2uds/g/P3dWveJbG7PHJzP20aZDiFCYP9cdlNghUt5kCFw4FgBQdXKtTa2pAoPrzLzz1M+kFjm1w0dsvOloy0fkjQS2isoH8CTfMTkz3cP7tjY1vjFLfPnTCERgAIC/JuN7c1zci2Nv5TUxcMEkXBX1G+dfv4xl60bHFt3sXYiBA5IjbneM5KuWZNra3ytc4YJ8CTFHagS95x9XO1BkyZ+0KQPSKolESSZyy9raM5e/HgPFnwy95/TdHhNrW+SVEOawGg/f3ZTaPm3zO5cfQ9pAP+OFRBUhf7WzPMmT6rtMenjlA9UgV82HDHxkrGWD0mqqfWXUz6AsTH581Oe6ulva/rYPWcfxzEHoICgmtx/TtPhudbMd112o2QnkAiqYObTOzFVe4EtWjEyrp/jPPcDGKeJ7v6JgydN7NvY1vRC4gD+9VAFJJBLNtCSudDNviRpOomgSmwIFZx1IE83fzK51sZ1kp5CpECxDku60lI1767vuGMLcYACAiRMrq3pRLl/R9JzSQNVZIel/Fn1HdlV4/1Bm9qaji24/41IgaJ70NzfXd+dvZwoUM04BQuJ4fPmpXNtje+Q+wrKB6pt+Et6QzHKhySF8tOJFCiJI9zsx7nWxl/k2jNHEQcoIECM9bednOmf+uAtcn1V0kEkgiqrH19v6OrrLtqPc2siVKCkXqK89ebaGt/hC5mLgQICxGveNW9eemNL0/vdgxWSnkEiqDqmFbsGB99f3B+pZoIFSv7ZPUSur/avzCxf33bS8QQCCggQAwPnNTX1T3vwT/ueZM5tDlGNdoZh6tXHL7t3qKjFXs5kCChbEbHnpDy1cmNL0/tZDUH19G8gZrLtmQmHF/QRyT4gnlOAqp636IL6zr5riv1zc62ND0uaQsJAmbn/oRCEF/MAQ1BAgAjpbzs54566QvLTSANVvvfuaOjse0Wxf+zaBaceVhvktxMwUDF73O0TDaf0fnE8DxMFooylPsSCL1TQ39b43r3XelA+UPV21HjhHaX4wTXmRxIvUFGTzPzz/T2NNzwwf04DcYACAlRArvWkp/SvbLzRXf8jrvUAJLP3T+9a3V+Sg4L5wQQMRMJL0umaVbm2xtcSBSggQBn1tzS1y1J3yDSPNABJ7n+o7+z9XgmPCpMJGYiMQ+W6ItfWeM369sxU4gAFBCihgZbmI3NtmcVufo1ch5MIIEkaUhBcYnsfPFgi4SRiBiLG1Z4q2MqNbU0vJAxQQIAS6G9relloYa/cziMN4FGTkC81dPbeVdJfUShluQEwDrPM/Ve5lsav3nP2cZyODAoIUJSJzyVzaza2Ni5096WSuBAWeLQttYOD/1Pyg4J5nqiByDKZ3jF50qQVAy3NjcQBCggwDv0LTj069+DQ7036OOMS2E9BN/vktGX3Plzy3+MaIW0g8nuETGjhbbm2xneQBSggwFjKR0vmdR7ke006kzSA/bpvRxAuKscvCl07iRuIhUlyfTXX2njt/ec0ca0kKCDAgdgyf86UXGvj5W72Y0nc+hN4HOb2gUxHdrg8R4XUgyQOxEpbTa3fsfH8xmcSBSggwBPItTWenk/X3C7pQtIAntBtdd2915brl3lq8lYiB2LnKRZq+cbWzPtcMuJA1DFIUXb9LZm3u9mXxUMFgScvBK4Xz+zu+3VZvyBobXxErEoCcXVDIeUXzu7IbiMKRBUrICibze2Zg3MtTT9xs29QPoADsrKhu+835f+1dj/RA7H1slTB7hxobea6SlBAUN02tjfPyRfsVpm/ijSAA6wBps+W9qGD++fma0kfiLXZocLl3CULFBBUrVxr06utEK6QxD3LgQN3X11wUmdFDgwuCggQf7V775KVuWpze4ZTKkEBQXW45+zjanNtjV+T/CpJk0kEOHBm+pJ1dBQq89v9LrYAkJi9yavzefsrDy4EBQSJl2s96SmTJ028Wa5LSQMYtc35YMpllfrlHqR62QRAkjqI5oQW3rqxJfNKwgAFBInU35p5npT6q6TTSQMYy1xB35rdceueSv3+oXzQqwpcewKgpA42s6s3tjT+j7e3p4gDFBAkRq6l8VKX/UrSEaQBjEmhoOAHlXwBxyy+c4fk3AkLSCAzvbc/v/qG9e2ZqaQBCghi7Z6zj6vtb2n8gUxfk5QmEWDMfjGrq2dDBKYpt7ApgKS2EL04VbDbBs5raiIMUEAQSw/Mn9MwedKk37npDaQBjHdiYN+PxOtw3czGABLtqWHK/9jfmjmfKEABQaxsPL/xmel0zV8lP4M0gHHbVD9twvWR6EFB+Ac2B5B4B7vsmv62zOd9IXNCUEAQA7mWzJss1G8l1ZMGUIRJv/lltmjFSBReS13nqlWStrJVgOTvetzt/bnexuu2nn3cIcQBCggiydvbU7m2zFdktkjSBBIBivPRyiv8QVRejEkuc07DAqqmhejlQ5Mm3tK/4NSjSQMUEETK5vbMwf3hqk65vZM0gKIe/m+b3bn6nki9otAoIEB1afQg/9dca9N/EAUoIIiEXHvmqELBbpHbeaQBFJe7uiP4on7PlgGqzjTJf7mxLfMqogAFBBXVvyDzDBXszy41kwZQAmlbHLWXVHdq9q+SNrFxgKoz0dyu4uJ0UEBQufLRmjnfA/utpDrSAIrPpJ6ZHT1rIve6Fip0+TK2EFCduyZ3e39/b+NP17efNYk4QAFB2eRaMx9x2TWSDiINoDRC98XRLUe2hC0EVDFXe7rwyI0DLc1HEgYoICjt/qa9PZVrbfyOZJ+SZCQClLCABNYZ2YPE5OBXkgbZSkA1dxCdFVr4p43tzXNIA8XAxBL/ZuDC5snhrvAaSS8jDaDk/tbQ1XdclF9grrXxevYHACRtCSw8t65z1Z+JAuPBCggeZUPLidPCXeGvmGwAZWL6dQxeJKdhAZCk6aEHN21sy5xLFKCAoCg2tTUdG1jqj5KeSRpAufqHfhv115jPDy+V5GwtAJIOMrfu/rbGtxIFKCAYl4G2k88ouP9JshNIAygbtzBYHvUXedSSNTlJf2FzAdgn5a5v5VqbPuWczg8KCMYid37ji0MPfi1pOmkAZZWt6+7ZHItXavYzNheAR/OP9Lc2XuaXzK0hC1BAcODlo63xtQp1vaQppAGUeU4fg9Ov/q7G81dLKrDVADzG6/ofHFqcO3cut+sHBQRPrr8l83a5fiwpTRpA+XmMCsj0rtX9LvsdWw3AfrxM6cFfbGufeyhRgAKCx7WxJfMJN/sGYwCoXP8IPf/7OL1gU3g1mw3A/ncQ9pzBwvBveWAhKCD49xmPZLm2zFfM7GOkAVT003j/rO67tsbpFY8MBZ2Shth2AB5nv3ZaaOGtm9qajiULUECwd7cwb166v6Xxcrm9kzSACjOtjNtLfsr1vdtl/gs2XkXHzZ2EgIg7tuC+PNfWdCJRgAJS5e45+7ja/mkP/kym15IGEIEvBNzujOnr5jSsypWPr8t1K0EgBmbL/ZaBtpPPIApQQKrU5vbMwZMnTvyFXK2kAURkLunqieXrHqldKukRtmBZDZv769OBf1iu1xAHYmJqGAa/yp3f/ByiAAWkymw9+7hD8gX7hUzzSAOIjlQQzxWQhqUrdpurgy1YNjst0Evqu7OX5wvBa2Q6hEgQG6ZDFIbL+lszzyMMUECqxLb2uYcOTpr4S0nPIg0gQlwPH9nZuza+L99/xEYsi10W6Nz6a/uW70v+DUSCGJrssmUb2zLnEgUoIAm3vj0zdTAcutGkM0kDiBhTn0ke15df3529Ra41bMiSekTuL/17+dh3V6GnEwtiqtbcrulvbTyHKEABSaj+9tOmp0K7Ua65pAFEka+Ld3+SK7DL2I4ls1PuL2vozt789/+i4P7KvdEDsTXRpa5cW9MCogAFJGE2zW+c4YWRm+Q6lTSAiE7gTevj/h7yI8OXS8qzNYsfrdzb/7V87Gt9ryQaJMAEuV/T35o5nygoIEhQ+Sik7UZJjaQBRJjrgbi/haOWrMlJ+iUbs+jl9NKG7uyjnrUy0N58jFxNpIOEqHHZT/tbMq8jCgoIYm5ze6aukNLvJM+QBhBtYQJWQPYVqR+yNYsa6KfqO/u+/dj/thA6580jaVJu9sNca9OriYICgpgaaGk+Mp+3G2WaQxpADKaZhWQUkO1p/7mkLWzRopS5K+u7sh/f3/9kCl9GQEhiCZH8x/0tTe1EQQFBzOTOPeGIMAh/I9PJpAHEZK5ZE/9TsCQp05EdlvmVbNFxW1lIT7lkf3dGW99+1iS5zSMiJFTaza/iwnQKCGLk/nOaDldN7a84NxiIlcHZHdltiXk3oX2PTTouDxVSfv7sjlv37Hd2lt/5DEmTiAkJViP3n3GLXgoIYmBb+9xDa2r9F5KfRhpArOxM0ptp6O5bLfc/sFnHxGV+8eyO7L2P+xcCfzYxoQpMcKmLEkIBQYRtmT9nyp7C0C8kPYM0gNjZk7wjiS1is47JVxo6s51PXFGMAoJqKiEdAy2Z5xMFBQQRM3Bh8+SRdM0NPOEciCnX7qS9paEpO6+VtI2NOyort6f8Q088VGSSn0VUqCKTQrMlufObn0MUFBBERLY9MyHc5ddK4hsxIK5Mu5L2lo65bN2gXFewcQ+8sxVMr8t0ZIef6C9taDvpOEmHEheqzGQVwp/n2hpPJwoKCCrM29tTh4d2peQvJQ0g1nYn9H19V/u5ixP2sz+Xf2x2Z1/Pk/29dJg+lbRQlUyHyLWsvz3DHT4pIKjcwUrWX1j9Hbm4VzYQ/w90IgtIQ3ffakl/ZAM/qT82pE7+8gEWlVOIC1XsCC/Yr/oXnHo0UVBAUAH9rY1flPRGkgDiz8wGE/z2vssWfkJDMrvYOjoKBzhWuMU6qt1MD0Z+OdDSfCRRUEBQRrnWzEckvZskgGRw+UhS31shNYWL0Z+4UnyxobP3rlGMlePJDLATwiD8zf3nNB1OFhQQlEF/W+NbJfsUSQAJOpRK+aS+t9kdt+6RiSej79/9wWT7/AGXj4UKJB1NbIAkV1O61m8YuLB5MmFQQFBCG9syr3LXN0gCSNpxNLkFZG/BCnkmyP5yMXtb3RU9B3wHtNwdjTPFE9CBf9m36Mxwd6HDL5lbQxoUEJSkfDS90NwuY/sASWwglugCUt+5KivpFjb0o3TXd/beMKrJVsqOITbg3/afZ/c/OPT9vc/IAQUERTPQ0txo7h2SJpAGkECW3GtA/vEWzb/Hhv6HkYIV3j/qeZaHDUQH7Nfr+lsbP00MFBAUyYbW5lmhhTdIOow0gKTOzpN9CpYk5YNDrpFpOxtbkuybsztX3zP6YaJ6sgMe14c2tjb+P2KggGCc1rdnpgYe/lLSbNIAEizUUNLf4uyOW/eYczG6pB2hj4zpm1oLNIP4gCcs6f+7sTUznyQoIBijtRcdPTGV12KZeOInkHw7q2Jy4EHVX4zu8s/N6r5r69iKqk3nowI8oZTJrh5obT6TKCggGO0BaqGC2ocPvlJmzyENoBr2ulYVBaSuu6dP1f1k9PXDh+z6+piPDWaH8GEBntRBocKlG1pOOYEoKCAYhf7exv+V1EYSQHXwKlkBkSSTVe3F6Cb//DGXrRv7U+/dKSDAgTkisMKyTfMbOW2RAoIDkWtpvFSuS0kCsZ1Mmy526Y0ufUuuNSRyADtdr54C4iMTrpG0owo384ade4Z+MK4CY5rCpwU4YMcW0nbd+vazeHYOBQRPpH9B09kyfYUkEGfmqpvZ1feDmV19b2/o7jvRUp5x05ckbSWdxxNWTQFpWLpit5tdVX2fC//88cvuHdfNBtx4CCEwyk/NGenCIz/iGSEUEDyOgZbmRjf/qaQUaSDWEy3pgn/9z/Ud2VUzO/veW5MfOUbSh1Wd334/8SGyilZAJMnDsNpOw9o4eOiuH4w/OHM+LcAoPzbSBbmWzEKSoIDgMTbNb5wRWmGpTJzfiyTs7Jv72zP/dve26UvWPNLQ1ffZVF4nituxPmZeqUeq6f3O6s6ulPSXKvpQ/M+4rv3416oKYNTM7KO5lqbXkAQFBPusvejoiWFa3ZIdTRpIijD/6FWQfzVjSd+mhu6+C91tgTgta69U6sEqnBF8v0re6bZ02n/IIAcqu8eR+Q/7W5qeSxQUkKrnktU+NOWHLp1FGkjYnv78J/s7M7t7r1PKnybTCna6qW3V9p5rRoavVjXc/cv17SM7sjuL9MFiBQQYuwlufs1Ae/MxREEBqWq51saPy/xVJIEENpCTH5g/p+HJ/lpDR/aBoSk7n23ST6s4rbBOx1VdAZm+ZM0jkn6W8Lc5VGOFb7JDACLjyLAQXr92wamHEQUFpCr1t2bON+ljJIGkSqcnzDuQv3fMZesG65r7XiOr2udD7LCOjkJVHmws8RejXzm9a3V/0X6aK2TPAozbSbVB/ipfyHyXAlJl1rc1NrvsMnFbOCSZad4B/9WFCus7e9/sZtX4bXHVXgdT17nqzzL1JvTtuaWc26oD0fSy/p7GTxEDBaRqbGg5cVrK1S1pMmkg0f3D/Xmj6yvyhs7e/2fSj6opJ6/yC/HdldRVkBvrO7Krivwz97BnAYrmg/2tmfOJgQKS/APtvHnpwNI/lXQsaaAKJtbHbWhtnjXaElK37YhL3PTzqilqVV5A8kN2paTB5G1Y/04Jfip3jQOK+SmVXTZwXlMTUVBAEq3/8C1fkPRCkkD1TK4LTxv1v1m+PG/DtRdIdkeVHAE3VfMYecr1vdsldSZr3Fuufuv06yggQORNDlO+eH17ZipRUEASKdfW+FqZvYskUF0FxDJj+XcNS1fsVipcIGlz0jMK5Ruq/qDjyXpORij/ni1fni/658mcAgIU37HpvK7xefPSREEBSVb5WNA0V65FJIHq441j/ZcNHdkHzO0VkhJ9h6ggsIFqHyUzTskul3xdQt5O3hWU6CGLRgEBSnGkMntB/9QHP08SFJDE6G8/bboC75Y0iTRQfca2AvJ39d29vzMp0XcqCUPLVf0oWajQZT9Oxpvx62d19ZRkVSvkFCyglN69sS3Ds9koIAlo1AsVeGHkKkmzSQNV6sTxLmvXpU76tKTfJXaHa2GOYSIFYfqyvXPs2L+Ty0rXVlkBAUr7/YEt6m/PnEwSFJBYy63MfFzSi0gCVax287StR43rgNDRUZAKr5f0SBIDyqfSFBBJ9YvvXOey5TF/G1vqp024vmSTI4UUEKC0Dva8dWxuzxxMFBSQWNpwfvMLzOzDJIFql/ewfrw/o6Fr9f1men8C4ynM0gkDjJK/T7D9spi/g6ts0YqRkh2c06mNjBKg5DuikwsF+z5BUEBiZ+N5jbODMPyppBRpoOr35aa6Yvycus6+78i1PGHxbN67wgNJ0khtp6SH4vrywzAs6XUsMzTnAUnDDBSgtFy6oL818zaSoIDEZ9BeMrfGUrpa0hGkAUiuoL4YP8ckt7S/XVI+OenYA4yQf2pYumK3zK6J56ZU76zF2TtL+is6OgoJulsYEPFjl3114/mNzyQJCkgs9G8d+pKkZ5EEsG/SFHpdsX5WfUd2lZt9NzHZyNcyQh4tDPWjeI5zXV6m33QvowQoixoL9ZMNLSdOIwoKSLTLR1vjK+S6lCSAR82yZxTzx3k48nGZtichGpcoII8xq7v3Vkl3xW1TetqvKc/HSX9jlABl85TA0pf7QubGFJCI2tTWdKyH+h5JAI+dmtnk4k5Q79qqUAuTkQ0rIPuPxS6L2Uv+Y0NHtiyn07n8PkYIUFYvy/Vk3kMMFJDoHSwvmVtTcP+pTIeQBvDYPYrXFvtH1k+v/bak1bHfd8jWMUD+XaEwfIWkQow25DXl+zhxChZQbib79EDbyWeQBAUkUnJbhj4j6ekkAexvbqYJRT8YLFoxIvd3xT2bMM0KyP4ctWRNTtJNcdmM+cLItWX7ZQEFBKiAmtCDn2xrn3soUVBAolE+2jIvMdO7SQJ4nLIQFr+ASFJDd/YXkv4Y42gKD0vcBevxxo37lTF5qX/YV5jKon7rtHsl7WaEAGV37FBh6DvEQAGpuIGW5iO191xlMgMe34RS/WAz+0yMc9mY6cjyTIfH27YHpzol7Yr663Sza8uay/LleZd6GCFABT7v0is3tjW+gSQoIJUbhAsVhAqvkFRHGsATflpK9kDOus7eZZLdEc8DGafSPOG2vaJnl0lLI98/gnBJBX7v7YwQoDLM9fVcW9OJJEEBqYhcT+Y9Mr2YJIAn21tbyU4XMclN4WfjmUv8L6Ivw4H+qoi/xBXluvsVBQSIjMly71jfftYkoqCAlFV/a+bpJvs0SQAHNIscLOWPr2vOdimGd8Sy0O9mcDyxGdNrfylpS3RfoV9Xkd8a+gpGB1BRjenCI18gBgpI2eTOnXuQu10hqYY0gAMQBiW9YNYWKjT3z8ctFhcrIE+6bRetGDH5zyL7+sy7K/F7Zx45MStpkBECVHQf/l/9bU0vIwkKSHkG3ITh/5FpDkkABzhJk+8p9e+o2z79J5Kvi1UuaV/D6DiQ8ZO6KpqvS/fWd67KVqqYSepjdACV3Q24+6L17ZmpREEBKalcW+Yl5v42kgAOXBhYyQuILV+elwXfjVEsu+o7susZHU9uRlfPn02K3AX7Lvt5hRvQXxkdQMXNTBfsW8RAASmZtQtOPUxu35NkpAGMpoGEW8vxa1Ij/iNJcbmt7RqTnMFxIPNseagIXowe+LLKFiD/PaMDqDyXLsi1Nr2aJCggJTExyH9H0mySAEa5QzFtKsfvmbGkb5NM18UjFb+LkTGKDpvyKxWtwranYFP+UMkXMMHD5YwMIDL79G/l2jNHkQMFpKhyrU2vdukCkgDGsFt2Gyjb75ItikMmpoACMgqzO7L3SnZbhF7STbM7bt1TyRcwvWt1v1xcRwREw6Eq2A+cs2QoIMWyvv2UmZL/H0kAYywFKZWtgDR09t4o6Z6oZxJaeCcjY7QDKYzM3bBMfkM0Xoj/joEBRMYL+9saLyUGCsj4j3eSpQqFH0niDgfAGKXz5TkFa+/EUO7y70c9E/Owh5Ex2v5h1yoip2EFFvwiEpmYljMygEhNHD/HU9IpIOPW35q5WNKLSAIYx/54SjBQzt+X8tRlivLF6Kbt9V2rH2BkjM7M6/rWm/SnCLyUv83o7L0vCpkURvKsgADRMknuP/CFzKUpIGO0obV5lmRfIglgXAbqrujZVc5fWNfds1myJdFtZOrhDlhjjM69IwIvY3lU8jhqyZqc5HczMoBIeWZ/T4ZTsSggY5OSf1PSoSQBjGvGWJHrMcx1TYQLyJ0MjLEJLdWhSpe3iJ32ZLJfMjKAqLHPrG/PHEcOFJBR6W9tusjl8xkKwLgnRxUpIJ6fcL2kXVHMxGUrGRljM6urZ0PFT8MKovX8jdC1lJEBRM5BqYJ9n7tiUUAO2JbWk+rd/CsMA6AIk22rzBOsG5au2O2u6yNZyowCMq4xVcHTsEy6t6EjG6nrdxqm1y6X9BAjA4ic5w60Zt5KDBSQAzJiwbflOpxhABRjwuYVuyVuYJG4XuCx8kOHPLyKkTGOAlLBu2G5FLmLvm3RihHJfs3IACK4v5J9Ptd60lNIggLyhDa2ZV4lt/MYAkCRZttmFbtA1kcm3qConYZl6jvmsnWDjIyxq+jdsCJ621uz8OeMDCCSpkip73EqFgXkceXOPeEIc/s6mx8omqFZ02pXV+qXNyxdsdukaE3MXH9mWBQhxgqdhhV6EMkComDCDZIKjAwgkl6Ua2m6iBgoIPuXrv2SpCPY/ECRmPr2nh5SwYlqxE7DcjcKSDGKQAXuhmXSvbO6ejZEMY/6jju2SJRbILKHQ/MvDbQ0H0kSFJBH6W/NPE/mr2PTA0Xc4Yaq/MXWwxOXKUKnYQVB4TZGxvhV4m5YUbz+41GfN1c3IwOIrKmhhV8kBgrIP9xz9nG1LvumOD8PKKowsDsq/Rr2nYZ1U0QieaSuadVqRkaRCkG5T8OK6PUf//i8hfqZpJCRAUTW6za2Nb2QGCggkqSDJk38oKST2OxAkedrYXhnJCZmZr+KxIRZ9hdbyASxiAOsq6zjKKrXf+wz87q+9ZL+yMAAIrzb8vCbay86eiJJVHkB2djePMekD7DJgaIr1BTykXjehYdBJAqIyTlHv4gaulbfL1e5bmn8t6he//HoyY3/lJEBRPpTesKEhyZ/kByquIC4ZEG+8E1JtWxyoOg72Z7pS9Y8EoVXMqt75d2S7qv4PocL0EuR6i/K9ItuiUUc6QnXSMozLoAIHx3NPtDfnjmZJKq0gAy0ZV7nZi9gcwMlmBZa5E4FqfSD2rwmHVJAiixMpW4oy8aT/hqHPPbdDeu3jAwg0iZ4wb7Fs0GqsICsb89MdbcvsamB0jCPWAFx/arCv//uIzuyA4yM4tqza/fNknaW+vekLIzN3cvcxGlYQPQ9d6C16fXEUGUFJCjYp8QzP4DSFZAwFakCMuTpm1TJU1MifgeluDp+2b1DVvpv/Icf2T18Z1wymRTUdkrazegAIv5lgfzz29rnHkoSVVJABlqaG026hM0MlGqubbn6xXeui9JrOmbxnTskVexbbDf/HSOjZEqd7Z3HL7t3KC5hTO1Y8ZCkToYFEHkzBgvDC4mhCgqISxZa+G1JaTYzULJP2h8iWYzMflmp310YyVNASlZ4g5JeIB6X6z8ek8r3GRlALI6X/9XfdnKGHBJeQPrbGl8j6dlsYqCEu1P3GyP5wsKKPcn6nqOWrMkxMkpjxhE1K1TCU44Cj9/tkxu6en8v6S5GBxB5aQ/t21yQnuACsmX+nCnm9gU2L1DiHUg69ZtIFqP8hL+oEteBmC1nVJQw3kUrRuS+omTjJghui2Mu7nYZowOIw07MnjPQ0nQ+QSS0gAzX1HzM5Q1sXqCk0551dR09a6P4yhqWrtgtqafsv7hyKy/VpFSnYT1U39R7dxwDSRf8MkkjDA0gBkdO868MXNg8mQKSMLm2phPNdSlDHCg1+02UX52b3Vr2/mFGASn1dg1Kc9tnl62whQrjmMmMJX2bJF3P6ABiYVa4M6z6J6QnbwXE/auSJjC+gRJ/1KRIFxALVe4CsnpWV88GRkaJS16Qvr0k48XD22L9eTT7JqMDiAnTuzctaHwqBSQh+hc0nS3pJYxsoAzzwFTNTVF+gamgzAXEfRnDovRmd6zcKGlL8ScEFusC0tDZe6NkWUYIEAsTC4F9ngKSAD5vXtoDfZExDZSD/aW+444tUX6FMzp775O0qWz7INkvGBdlc2exf2AhlYp1ATHJJf0fQwOIzcy1bWNr5lkUkJjrP/zBN0rO/ZWBckx2TDfE5KWWaxVk1/ChO//AyCjTYduLXkAe3LeyEm8jE66QtJURAsTlUGpfqdbb8iaigGyZP2eKTB9nLANlmgAW4nHBq8vLUkDc9NtjLls3yMgo01FbtrK448R6kpBLw9IVu931Q0YIEBvPyLVlXkkBiamRdM0HJNUxjoGyGKhf3Ht7HF6oKfhTmX7TLxkWZdyu6fCOov48997EHNQ9/S1JBUYJEJP9meuzay86eiIFJGY2tDbPkvTfDGGgXJN6Ldt3vnnk1e7Zc6fK8FrTBS5AL6e6wyfeoyI+98ID9SQlm/rFd65zVyejBIjNUfXoCQ9NeQcFJG5vwMPPSTqIAQyUh5vH5nkD05bd+7CkB0r8a+6Zsbjvb4yMMh6uF60YkVS0zFMKE3X3KHf/nGLyJQEAycw/2N9+2nQKSEzk2hpPl+k1DF2gbHZreGLcvu3vK+2Rw3/OsKiIu4r0c8IgSNbta2ctzt7JaYFArBwaFkYWUkBiwt2+oCq9ewBQGXZDw9IVu2P1is1LWkDc7FrGRUUOAEUpICbdd2RHdmfiPqmuzzNIgBh9ZqVLNrY3z6GARNzGlsYXmfz5DFmgnHO+MHbnlruslAVkoKGx70+MjEoUy2BNccaHepOYT3137+8k3cJIAWIjbXmvmju6xrKAuGRm+gxjFSiroYmDQzfE7UWHhdKtgLjUZQsVMjQqUUAKq4tTqr03qRkFrIIAMdux+QUbWjKnUEAiqr8t0yrp6YxUoIz7RelX+y7qjpU9Q0OrJeVL8bNT7txtqEJGArunOAfBoC+pGc3o7rte0l8ZLUB85uWBWVV8wR67AuLt7Sm5fYoxCpT7w+exvNbh+GX3Dkm6twQ/euuM7dN/z8CojNkd2W1yjbsQFxSsTGpGJrmF9jFGCxAr5/S3ND2XAhIxuXD16yWdxPgEymokn1Z87/ZkJTnPf7EtX55naFR0u473Fst7ZqZPSPQtlOsX9y6T+x8YLEB8uPmnKSARkm3PTDDXRxiaQNlnejfO7shui+2rdxX9NqsWGqdfVd794ywwq6yjI/FPDQ9TqU8wVIBYeXb/gqazKSARcXhBb5N0DOMSKDMPu+L9+m1VkX/i1m014Y0MjEpvVls3vpm5VldDTrOu7blRruWMGCBG+7eUf9YXxv+B4bEvIAMXNk+W7IMMSaDsCoFS18V6R+66r6g/T/pZpiM7zNCo9AHMx7UCYmZ3V01WFnxQPB0diNGBS6cO9DaeTwGp9HbYHb5N0pGMSKDc+0D7XV13z+Y4v4fQRtYVdccZ+o8ZGRHYrj6+a0BCD++plqzqunr+ZNI1jBogRsffUB9P6ipILN7UwIXNk931HoYiUIGdRNxPv5I0q/uurcW4Y9I+d9Uvzt7GyKi8lIXjKpbmwT1V9Vk2+5CkIUYOEBOmkwdWNrVRQCrVAHeGbxWrH0Al5IOCXZuEN2KmdUX6UZczLCJyAAtsXKdg1YTDd1dTXjM6e++T+zcZOUB8uCVzFSTybyh37tyD3Fj9ACo0bf/NjCV9m5KxE/e1RfgxoRd0JeMiGqZ3ZDdJGhzjPx+YvmTNI9WW2chw8GlJ2xg9QGyOXpmBnkwrBaTcJgy/RdIMBiBQkR3fT5LzVoJxFxBz/+3M6/rWMy4iUo/3XlQ91u1xdzVm9pTre7dLzsN8gTgdvhQsTNoqSKTfzNqLjp5orncz9ICK2F2TH1mcnNmqryvCT+H0q+gZ62lYd1drYPVHTPym5HczdIDYVJBMf2+mhQJSJrUPT36LyxsYeEAF5uvSkiSdouI+zlOwTNs9P/FaRkbkjKlYuvyeqv1sL1oxItkHGDpAjD63bh9zySggJba+/axJkr2PIQdURmgJOv1KUqowzlOwQv9Rw9IVuxkZkauWY1oBMdk91ZxaQ1dft6TfMX6AmOzppOb+lsbErIJEtoCk8w+/QVI9Qw6oiG07Av0yUQXEh9eNp36kgoC7B0XxoOzBxjEVEAur/hQkt/CdkkJGERCbWftHk7IKEskC4u3tKTd7FyMNqBDTNUl70ve+08m2jm2iphtmdPbex8CI4lAN+8dSKAen7P5btWc3s3PVHRJ3dQPi862BTs21Nb2AAlIi/YW7LpB0LCMNqJDQr0rozntMtxQ20/8xKCI6VKUxFBB/4JjL1g2SnlRIpT4kaRdJAPFg7u+ngJRkfiCTnGs/gMq5v747e0sy99zaMoa90t311/b9mmERTTUFGxjDQLiX5Paa3bFyo+RfIQkgNl6Ya2s8nQJSZAMLml4q6RTGF1CpbwH86n3PV0hiAdk86jhk30hsHglw5NP6tkjKj/KfrSO5f0qn9D8a00oSgMocpy32qyDRWwExVj+Aiu4UwuAnSX1v7qNcAXE9PHHP4I8ZFRHulAsVmmxUxdJkD5Dcv5S4juxOlz5KEkBsjmYt69tOOp4CUiQDbSefIdM8BhZQocmc1FN3XW9vYsuVRrkCYvrmtGX3PszIiPihWD6607A8vJ/UHq0hddJlklaSBBALqZTS76WAFEnoAQ9GAio7k7si4W9wNCsguwIPvsqgiIVRnT7kFqwjssd07Y6OgsnfSRJAXA5n/roH5s+J7cO6I1NAcm1NJ0qaz4gCKqYwUhj5ScLf42hWQL5T192zmWERC6NaAbEwxSlY+1Hflf2tpOtJAoiF2pr0hHdQQMbf5C5VhB+MCFSB3xy1ZE0uyW/QFRxooRisUeHLDIm4sNGsgBTqjkxtJLPH/ZC8V6O/qB9AJT6u5m8auLB5MgVkjO4/p+lwSa9jKAEV3ZNdkfz3eGCnYJn0veldq7krUFzqh4ejWQHZaItWjJDa/jV0962W2Y9IAojFFwaH+67C6ykgY5SeoEskTWYkARWzK50Or0v6mwyVP5AVkBFn9SNmx+BRrIC4cwH6k8iPDC+UtJskgFjs//7bF8bvDKKKv2CfNy9t5m9jCAGV/CDatUd2ZHcm/W3OPOWu7Xry00t+2NC1mklqnIZvahTXgBi34H0yRy1Zk3PTt0gCiIXjB3qbXkoBGaWBw7e2SDqK8QNUckcQXl4N79MWKpS0/Qn+ys58fuSTjIh4SVkwmtPlKJcHUurC/OclPUQSQAw+r+7/TQEZbWgWv9CAhFk/45Ts8iraVe963IIi+5+kX4ifROFgzaYDb6FGATkAs7rv2moyTkUE4uGF/W0nZyggByi3oGmupGcyboCKunLfykCV9A97vHPbN/jIBCZcMdSwdMVuSY8cYF2hgBxoV5tsX9Eob3EMoDIfV3e7lAJywL+dhx4BFd9rpfzK6nrD2vk4xeQD+yayiKcDu8VyyDUgB6ruip5dcn2OJIBYHNwuzJ17whEUkCexpfWkekntDBigov5a35FdVWXveX+nYN1W3937E4ZDrB3QaVi1g4M8A2QUhg7duUgSmQHRN0kTat9IAXkSIwouljSB8QJUkOuKKnzXu/8tBfd3m+QMiFg7kBWQndOW3fswUR24Yy5bN+jSF0gCiMMx3d/q7e0pCsjj5dPenpLsTYwUoKJGAgU/rbY3bXrsKVh+dUN39maGQ+yPvAdSQHi45BgMH7Lze2IVBIiDowYKq2NxS96KFJBcYdU54ta7QKUn4r+o6+7ZXHVv3B91CtaDgae4Fi0ZDuQULO5wNgbHXLZu0M0+TxJALLyZAvK4E5/grYwPoNITcbuiKt+3/bOAmPytVVnCEjmcg81PvulZARmr3bv3fE/SBpIAIr4vlM7pX3Dq0RSQx9jU1nSs5C9miAAV9VA+ffDPq3Ln7HufA2LSz+q7stcyFJIhCJ98BcTNKSBjdPyye4fMnVUQIAa7Qw8KF1NAHiNUeIki8ABEoKqZXTO749Y91fnetUvSFqVq/h8DIVEOYAXEKCDjsHNw6PviWhAgBvyNfsncGgrIPtn2zAR3+08GBlBhYXh59e6Xtcvc3l7fcccWBkKCNmtwACsgoXENyDjsXQXRV0kCiLy6gS3DCygg+xxeCM6XdCTjAqio++q7s7dU65sP0qnF9d29HQyDZCkE4ZOugIQp46ne45QujHxX0g6SAKItNL2FAvIPfglDAqgsd7+ymp95UdfRs5ZRkDyzOrLbJQ0/0d9JWYFTsMZp+pI1j8j1TZIAos3kz9vQcsoJVV9ABtqbj5H0HwwJoMIFROmrSAHJO9jKJT3haXW1msj1C0WZOARfl7SHJIBo7xYDK7y+6gtIWPA37D1GAKjgJO3WWd0r7yYJJNQTXQeyZ2rHioeIaPzquns2u9kPSQKIvNdH9cnoZSkgvlCB5K9jHACV5a7LSQEJ9kSnWHEBehGlAvuypDxJAJE2sz+/6kVVW0D6+xpfKJ58DlTacKg8F1+jWgvIJuIpnrqOnrUydZMEEG2uaN59tiwFxEJx612g8pbO6r5rKzEgsQda98dd5TDZgyRUZKF/nRCAaDPTgty5JxxRdQXk/nOaDndpAUMAqPhe6EpCQKKH+BM+aNAp30XW0J29WdLtJAFE2gSfUPvKqisgE2rDV0mayPYHKmrHrt17lhEDksyfsIAYD54sRekzVkGAyH9O3SN3JlLJC0hUzz0Dqmvno67jl907RBJIssDCxz0FK1TICkgJ7Nw99FNxfQ0QdU/bsCBzatUUkP62kzOSTme7A5XlgV9DCki6glKPvwJiXANSCnu/2PBFJAFEW5BSpO5GW9IC4h68mk0OVNyW+q3TbyQGJN3MI2o2SQof54BEASmRfD7/HUkjJAFEl3lwQZSeCVKyAuJ7Hzr4KjY5UFkuddjy5dyvH8k/wC5aMSLpwf33j4BrQErkqCVrcpJ+ThJAlOcC3rDR18xLfAHJnd94lqRj2ORAhSdlQfBTUkAV2e9pWB7kWQEp5X5G+gEpANEWhGFkFgZKdwqWG6dfARWfFFiuvrHnFpJA9Qz6/T8LJBxMU0BKqC510i8krScJIMJc7WsvOjoSd6YtSQHxefPS5n4+Wxqo9L7Gr7aFj3NOPJDE/hHu91a8+aOu791BOiXMvaOjINflJAFE+YOqQ2ofPvjsxBaQgcO2vkjSDLY0UOl9jf+MFFBdpXu/p2BtNclJp8QTinTwA4kvPICITwwicRpWaVZAAufic6Dy/lbXlf0rMaCqjq2BNu6nlfAMkDKo6+hZa+6/JQkgwlwv33r2cYckroDkzp17kKQFbGGg4n7Gt76owoPrA//eSrSNYMoUvwU/JAUg0iYNT5rUmrgCYhOGXi5pCtsXqPCHu2Dc/QpVxwr2wH7+64dIpkz7ncl2naRdJAFE+IsC+SsTV0Bc4uJzoPJW113X20sMqDY1w3vu38+BaTvJlEfdFT27TFpKEkCkPX99e2ZqYgrI2ouOnijXS9muQGW5dA0poBpNW3bvw3rMiocHxgpIGYXO6isQcTXpUOcmpoDUPjLlpeL0K6DyBST0xaSAqmWPvg7EQt9BKOWzIx0uk7juBoj2RMHaElNAFHobWxSouAdmLs6uJAZU74H1MQUk4BqQcsp0ZIdNuo4kgCjvJvXiSt4Nq2gFxC+ZW6NA57BJgQozLebuV6juj4Due/SBllOwyj65CcRpWEC01Q4eVFuxeXvRCkj/lsEXyHU42xOorNCCJaSAqp78uu599H92CkiZ1T94xE2StpAEEF1WwdOwincKlhl3vwIqb8fMqTW/JwZU9UHV9LdH/2euASn7Nli+PC+3G0gCiLSzBy5snhzbAuLt7SlJ89mOQIW5fm6LVowQBKpZmAruffSBjgJSEUHI7XiBaDso3F2oyN1ri1JABnz1cyRNZzsClWUyTr9C1duhwlpJhX8UkjB4mFTKr2Yk/ytJwyQBRJirIk9FL84KiDurH0DlDaULw78gBlS7TEd2WPrnnbDSaedBhBUwfcmaRyT9jiSAKLNz/JK5NbEsIHJ7ORsQqPQ+xG/ad8AHIN399/8nnJjic1Eprp8TAhBphw5sGX5m7ApIrq3pREnHs/2ASgsWkwHwj0K+6u/9Y8YVPbsJpFLbocDzQICIC+Vlvx1vMVZAXsamAyq//8iPDPNNI7CPu2X3/b+7eS5O5TR0rb5f+se2ABDF7wlMZT+TafwFJPRz2XRAhSdb0m1HLVmTIwlgr5SCv096d5JGpWc3fiMhAJF20vr2zHGxKSBrF5x6mEzPYrsBFT6+S9z9CvgXNXt2r9rbzbWLNCrLQ7uJFIBoS4VW1tOwxlVAJqRGzpZUw2YDKisMfRkpAP80bdm9D0tabxSQihv21O/0L7dFBhDFbwoUnwJibuewxYCKG5i5OLuSGIB/0ycKSMUds/jOHZLYRwHR9tytZx93SOQLyL6nn7+U7QVU3K+5yBbYz3HK/a9OAYmK3xIBEGkThg6qfVHkC8jG/F3PkDSN7QVUmvHwQWA/UrK/iIvQo7GXooAAMRC8JPIFJBXoRWwooOLCwO03xADs9xB3m1gBiYR0fuT3kvIkAUSY+4sjX0A8DF/IlgIqzHRHXXfPZoIA/l1dd89mmVaTROVNX7LmERnXgQAR95QNLaecENkCsmX+nCkyO5PtBFSY61eEADzBR8Q49SdC+6vbCAGItpTyZTnDaUwFZLgmPU/cfheo/PHcmVwBT6Rhau1fSCEq+ytjWwBR/5yW6RKLMRWQwPViNhFQcSOpg4M/EgPw+GzRihFSiIZ9NwUAEOkGYs/3S+aWfJFhTAXE3bgAHai82+qu6OECWwCxMOOUnlVyPUwSQKRNyT04+IzIFZANrc2zZJrD9gEqzLWcEADEhS1UKNMdJAFE/tNa8oWGURcQU/gSNgwQhf6h35ECgFjtt7gQHYh+/ZCiWED8+WwaoOKGuf4DQNwEXAcCxMEztp593CGRKiCSPZftAlTcX7n+A0DcFBTwLBAg+tLDtZOeFZkCsr49c5ykmWwXoLJMdjMpAIibmekT/iZpkCSAaPPAnxOZAhKE9h9sEiACOwb3P5MCgLixjo6CSXeTBBB5JT3jaVQFxCggQCQU0ikKCIBYcrcsKQCR9/TcuXMPikQBkYVc/wFU3v2zO1ZuJAYAsWThKkIAIq8mSA+eWfECsqG1eZZkR7M9gAofu6U/kQKA2HKjgAAxULDSnfl0wAUksHAemwKIwLFbTgEBEN99WDrgFCwgBkyqfAGRuP4DiILQA67/ABBbDVum/k3SEEkAkXfmPWcfV1vZAhI6BQSovEKQn8B99AHEli1fnpd0H0kAkTdp8sTap1esgGxoOXGaTCewHYCKu7th6YrdxAAg5jXkfjIAos9Nz6xYAUkFNWdIMjYDUOFDtsTqB4AE7Mx8HSEAMfiomp1RsQIShuEZbAKg8tyMAgIgCdMaVkCAWEw8dFbFCojJzmQLABEQhncSAoD4z2lCCggQD/Ubz2ucXfYC4pIp0NPJH6i8GgtZAQEQ/wISButIAYiHICj+QsSTFpBce/MJch1O/EDFbZnetbqfGADEXa3lKSBATLh50S/FeNICEhT8LKIHorAHEA/vApAIR3StHpA0SBJALJR/BcTlzyB3IALM7yYEAInYnUkuaT1JALHwNL9kbk1ZC4i4AB2IyBE7WEMIABJkExEAsTCpf+vQKWUrIOvbz5okeRO5A5UXhKyAAEgQ02ZCAGLycfXinhH1hAUkPfJwk6Q0sQOVNxIUWAEBkCQUECAmXHZa2QqImz2NyIFo9I9Z0w5aRwwAEjOhCZ0CAsSFqXwFROankTgQCX+zRStGiAFAYgTBFkIAYsLVWMwL0Z/kInQ7lcSBCDBfSwgAEtU/xAoIECO1G7YOnVTyAuLt7SlJjeQNRIDbA4QAIFG4CB2IlbSKd2bU4xaQTfk1J0k6iLiBKBynbSMpAEgUDzkFC4jVR9ZKX0BCC7n+A4iI0LWBFAAkSTASPEgKQIwU8UL0J7gGhDtgAdE5UvPEYADJUvDaR0gBiBHXqS5ZiQsId8ACosLECgiAZGlYumK3pDxJALGZjByyeUHjsSUuIFyADkRFzcgw14AASKJdRADERyFQc8kKyOb2TJ2kacQMRMIj05es4VQFAIncvxEBECOmk0tWQMJ8cX44gGLwrWQAIKF2EgEQpymJl66AFMwyJAxERbCdDAAkFCsgQJyYla6AmLECAkTms+7hNlIAkFCsgABx4jpx38PKi19A5BQQIDKfdWMFBEAymYwVECBeJm4I+8Z9J6zHuwsWBQSIzhGaAgIgkVwhKyBAzKSUHvelGv9WQDbNb5wh6QjiBaLSPzgFC0BS9282RApAzBThQvR/KyBh2ln9AKL0OVewgxQAJHL/ZsaDCIH4KX4B4foPIGpH6HCQEAAkcvfmPkIKQMyYin8Klgd2AskCUfqca5gUACRRIBVIAYgZ13EuWVELiFzHkSwQpc85BQRAQvdvrIAAcXTwlvbMjGIXkKeSKxAd5hQQAAndv1nANSBADOXz41uweFQB8fb2lEzHECsQHSErIAASyuUUECCGzILiFZBNWnOUpAnECkToQy6jgABIZgFxCggQy8+uxnfG1KMKSCEfcv0HEDEBKyAAkrp/CwIuQgfi2UCKV0BMXP8BAADKNIfhInQgnsyPL1oB8YACAkRNaKohBQCJnMPI0qQAxFLxrgExbsELRI5zXRaAxO7fQr5gAeLpsPXtmalFKSAyVkCAqAnca0kBQBKZ8QULEFfpkbEvXDy6gIR6CnEC0eIcoAEkdf/GCi8QX4GOGncB2dY+91CZDiFNIFqMAzSAxBaQgP0bENfPrwXjLyDD+ZHZRAlE8QBNAQGQTHzBAsR6gjLm7vCPAuLuFBAgkgdoO5QUACRzAsM1bkCMP8BFKCDjOI8LQAk/3qappAAgiUx2GCkAsTX+AiJWQIBoCikgAJLJPTycFIDYGv81IDJRQIAoCnwaIQBIJAv4ggWIrxn3nH3cmE6j/Nfb8FJAgChyDtAAEto/JFZAgBh/hA85aNLMcRUQo4AAET1AswICIJlczhcsQIyF4dj6wz8vQpdmEiMQxQO0jiAFAEmzvv2sSZImkgQQ4zlK4GMvINva5x4qaRIxApF02Jb5c6YQA4Bk2c3qBxBz5pox5gKyO5+fQYRAdOVrUtwmG0CyJi75kP0aEHPheApIkHIKCBBpqaeQAYBE7dUCbv8PxJ3JjhxzAbGwQAEBIsxD55tCAMkS8gBkIAENZOwrIJKOJEEg0hWEFRAAydqrBdx9E0iAsReQsZ6/BaBcAgoIgIQ1EAoIkIAP8jhOwQqMFRAgysyfSggAEoYCAsTfkS7ZmAqIWAEBou6ksXzAASDCjiYCIPZqNrRnDh9bAREFBIi4Kf2tJ3HBJoBE6G8/bbp4yCqQCKm8jbpH/L2ATCc+INrM0hlSAJAEXsifRApAQuYnY7gV798LCE8jBaJ/yKaAAEjI7sxPJgQgIR/nQGM+BetQ4gMi/gEPjQICIBkCsQICJIS5Dhv1LmBze+ZgSWniAyL/CaeAAEiGUCcSApAMrnD0BWS4kDqM6IBYaMq2ZyYQA4DYM3EKFpCYAmKjLyDpgh9OdEAs1E4d0anEACDO9t0BaxZJAMkwplOwwprRtxYAlREGdgYpAIj3jiz/dEIAElVBRl9A3AsUECAuH3GJAgIg3v3D/RmkACRIMIZrQMxZAQEoIABQtv0YKyBAkvhYVkA0+vO2AFToMy49NXfuCTw9GECcnU4EQHKYxvAcEDMdQnRAfD7nQXrCmcQAII5yrSc9RdKRJAEkh4/heYKBXJOJDoiPMPDnkwKAODJLcRopkDyj7hKBXAeRGxCjA7jbC0gBQBy5ax4pAIkzafQFJDAKCBCnA7jUtLk9U0cSAGLoeUQAJK+AuGSjKyDuFBAgXmwkz7eIAOJlS+tJ9ZLmkASQOMG6i46uHV0BsdEvmwCocAMxTsMCEC8jSj9Po/yWFEA8pHdNHtWCRiDnFCwgfvyFZAAgVoyVWyCxH+9CapQFRJyCBcTwo370QEtzIzkAiA3nDn5Acj/fNtoCwl2wgDgKg/A8UgAQB5sWND5V0lNJAkhqAcmP9hQsCggQzw+7KCAAYqFgPp8UgASzYFTXlAcyTSQ1IJZO39DaPIsYAESdW/ByUgASLDX6U7AmkBoQS5byAqsgACJtW/vcQ03+HJIAkivwQnq0BSRFbEA8uRkFBECkDRaGz5FUQxJAcpmCUfWJYN8fAPE0b0PLidOIAUBkuTj9Cki40ENWQIAqUpMK0q8gBgBRlG3PTJD52SQBJJu5jbqApIkNiC93vYYUAETR4WHwMkmHkQSQ8AJiPqozqlgBAeLvWevbTjqeGABEjYf+KlIAki90sQICVJu00hzkAUTKlvlzpphx/QdQDcZyETorIEDcuV/okhEEgKgYSdcskHjYMVAdBSTkLlhA1fUP6bhNrc1nkASACHklEQDVIQyMu2ABVVlCPHwTKQCIgv7206ZLehFJANXBQh/1CgiAJBQQ06vWt2emkgSAigtHLhIPHwSqqIHIR1tACqQGJMKkVGgXEgOASnLJ3P2NJAFU0efeg1H1iUBSntiAxBz538LF6AAqaeP5zc+X7ASSAKqHmY+qT7ACAiTLiQOtmXnEAKBSAg/fTApA1VUQVkCAauYK3kYKACph0/zGGXKdRxJAtc09fNQFhBUQIFm7gQX9C049mhwAlFuhxv5T0gSSAKpLMIYCEhIbkChpBfl3EQOAcvJL5tbI/a0kAVTh598CrgEBqn5HIF2cO/eEI0gCQLn0bx26QNJRJAFUnyAc5UXoNsqLRgDEwkFWM+HtxACgbNxYeQWq9ePvo7wI3eVchA4kcWcgXTpwYfNkkgBQahvbml4o+WkkAVTpnCM9+mtAhogNSKSphd3+n8QAoNTM9W5SAKp4H1CwUfWJQNJuYgOSOinw991z9nG1JAGgVPrbTs5I/hKSAKqYh3tGVUBc2kNqQGLNPmjSxEuIAUDp5h2pD0sykgCql1lqVAsagWSsgABJ3ilIH8qdO/cgkgBQbP3tmZNlfgFJAFU+1wh8lAXEnAICJFudpYd4OjqAogvz9nHtPZ0bQFUXkHB0BcQ4BQtIPDe9f8v8OVNIAkCx9LednDHT+SQBILVzaJQrICGnYAFV4IiRdPodxACgWFzBJ8XqBwBJU2cfOrqL0DkFC6iW2YK9d6Cl+UiCADBeGxZkTpWrhSQASBqxRStGRldAuA0vUB1Mh4RW+BRBABivwOwL4s5XAPYadZcIJFZAUBKDkm6XaTtRRKqFXLy+rbGZHACMVa4l81KZXkwSsbJWUqdcy4kCJTDq68kDl3aSG0ogCD3/4obOvqmFVGqWSS+X6SOSXWvSvZKciCoilQ79K8QAYCy8vT0lC75EEpEVyrVGbleb6X1hELxwZMimNnT1HdvQ1Xe+Am0jIpTAI6P9B2mzYIecuSCKbkIqSL9C0rdnd6zcKGmjpOv//j9uPfu4Q4Yn1c4NPXiGBf4MuZ4haRaxlWECYfaCjS1N583s7r2ONACMRn/hrjdKniGJSMjLtFqh3S757UoFd9QMD905fcma/U4Gfd68dL8/+AJiQwnsGH0Bke+gfqAkE13XayV9e3//27Rl9z4s6bf7/kiSHpg/pyGVmvB0M3+GpGdIerqkQ0my+Mz8i9n2zLJMR3aYNAAciC3z50wZkX+CJCpiSKY+yW5X6Leb++35mkN6Z3fcesCnvmw8Yttzg5BjKiJSQNy0g5NhUCJnbVrQ+NQZi/v+diB/+agla3KSrtv3Ry5Zrr35BCuEzzDp6S57huSnSqol2nE7/vDQ3ivpM0QB4ECMpGs+KGkGSZTcLkkr3ewOyW/3gt8+88iJ2dHeZeixLAxbiRYlYWNZAcn7Dg+4kQVKMyTDlL1G0ifHNp7l6uhZI2mNpCukvUvIA9M2z1Focz2wuZKeJddp4l70o+f66Mb25mtn7s0YAB7XhpZTTpAK7yKJontEUo9MKyz0FQp8RV2Qucs6OgrF3d3L+qX5xI0SzSdGfW1RumDpHYEKhIfSjEn31461gOy3lCxfnpeU3ffncmnv9SSDB016RuA6y+VnSjpT0lTSf1K1Qb7wTZdeZNwUAMATTV6tsEisPo/Xg3LdLvntpuD2wP32Ixf33ffv+99VRf/Fm1qbz5BCrrNEieZ6enjUBSSVDrZ7gQKCkjm+f0HmGfWLs7eV6hfsu57kN/v+SNp7PUlNasKzPPBnyzVXe68pqWFzPGanYfaC/tbG16qr7wrSALA/A61Nr5f8uSQxKv2SsjKt+sfKRueqVZX6sqfgYatxsgtKxMbwyIV03eHBjv4HCQ8lFNhrJd1Wzl+573qSjn1/tLk9c3A+r1P1z9O25kmazsaRJP1v7twTljUsvZs9AYBHWd+emeoF/wJJPHHZcNMKuVbIfEVNoL8c2ZEdiNYE0c/juZEoYQHZMep/I0m51sadkiYTIUpkS/0RtTPHewFdsW1sb54T5AtneGBnyXWWpEZJqWrcQC6/bGZX9j8ZqgD+Va618fuSLiYJSXufsXGPZLeb/PZCKrijsMdvf8r1vZF+4O7GtpNPMw9uZ/OhZHMI81fP7MxePZp/k973f3dQQFBC03Nbhl+mfXe3ioqZ/7zA/XJp7ypJoaCnu9kzXTrTXGdKOqIaNpDJLhpoaeys6+77OcMVgCT1n984z0O9oUrfft6kVe5770Ql+e01hfzKx3vGRqT376G9lsUPlFJQCHaM9t+k980+tsk1kwhRutHpb4xaAXmsIzuyO/WYZ5Osbzvp+JSnznTpTDM9U67GfynuiRKavpc794QmTsUCsGX+nCkjoX6o6jhvZ0hSr+S3y+0Oc7998LBdPcdctm4w7m/M29tT/YXVr2JEo8QziK1jKyCuTZKaCBClYq6zN57XOHvmdX3r4/S6Z3euvkfSPdp3G+CBC5snhzsLp/3LtSTPlXRkQjZTnWomfE9SCyMWqG4jNRO+LPdjEvjWhuW6V6YVMq1Q6CuGDt311ySUjf3p99UvkFTPiEZJi24QbhpbAZE2ER9KLGVpvU4xf/Bd3RU9uyTdvO/P1yRpfXvmuFRoZ7rsTHM/S1Kz4rtKsiDX0vSahu7eqxiyQHXKtWReKvc3JuCtPCTXvlOogtslv70+fdLdxX7GRqSFei0jGqVWSB22ebT/Zu9F6G2Zr8jtnUSIEltb39x3nC1UmOQ3uZ9Vkv9QvJ4e/JBS3tzQkX2AIQtUl23tcw8dLAz1Spods5e+Q3tve/vPB/o1rVqd9OPNAWzLnKSDGNkoGdfDDd19h472n6UlycNgkxnPIUPJHbOxr/l5Us+NSX6T+1sl2dTWdGwh1Flm4ZludpZcpyi6qySHWl4/9IV6cTUfvIFqNFgY+r8YlI+NJt0eSrfL7Q6Ffvt+T+/trO5tORQOvZrygVIz0+ax/Lu0JAWmTdQPlEMqDN8o6cZqe98zOnvvk3SfpKskKXfu3INUM3y6KzzTZGdp79Pb66Lyet3sBQM9jR+V+j7BqAWqQ66t8bVyXRixl7VW0u2Sbpf77amC3TFjSR+njR/IfpzbJ6M842xMn0eTpP62ppe5+/XEiDIYCj0/c1b3XVuJ4tEG2puPCQt+lsnPdOkMSaepsk9vLwTuL67rzt7E1gGSbWN78xwrhH+VdHAljw+SVrjpjwrt5pTs1rruns1sndHbsCBzahDYHSSBMuhu6OprHe0/2nsKVkGbFJAgyqI2CNKv1b5Tk/BPdR09a7X3276fSJJfMremf/Nws1L+bLnmyjVXppPL+JJSodlPtrSedNr0rtX9bCEgmdZedPREe9ivrkD5eEjSX1y6RWY3h8HBt8zuuHUPW2T8LBW8Uc65LSiLgbH8o7QkhYFtCsRARZm4vcmlr5sYdE94ANn75PgV+/5Ikra0nlQ/YukzTOGZ7nampNNV2oeIzsh7cAXXgwDJVfvIwf8r+Wkl/jWhZKslv9VktxQ8+OOs7pV3k37xbW7PHJwvOHe/QnmmdO5bxlxAHkoVNh9eMJd4VibKMlwz/ec3vkjX9v2KLEZn30rE4n1/5PPmpTdMe/DkQDrdXKfvKySnSJpQvL5oL8j1NH5M6lvIFgCSpb+t8RXueksJfvRGSbfJ7Dbz8M/pfP6vcXyKeBwVQrtQ0qEkgXIIbBzXgEhSrrXxQUnTiBJlYb6soTP7MoIoQb37+6lbgU6X/HSZTi/CE9xDd2ud2d17HQkDyZBraTxJ0p9kOmScP+oRuVZY4H/20G4rpFN/nt2xciMJV2D/L1l/a1Ov5BnSQJm0NnT1dY+jgDTdXoYlWOCf+0lXpqG7bzVRlN769rMm1RR2nVIwP91Cna7AnybXSaMsJY8EHjyzrrunj0SBeFu74NTDaoORP0t2wij/6YikXsn/6mZ/ToXBbTPSc1ZX1cP9Iqy/NfM8l3HjEJSP6ekNnX1/He0/S/9LE1nve++6A5RnyJr/t6Q3E0Xp7buw80/7/uxtgJfMrRnYuucEhTbXA9t7kbt0qh7/mpIpoRWW9ref9oz6jju2kCoQT75QQX9P/soDKB8jct0j0wqZVij0FYX0ISv+/ULxHkKNyraV/T9SQFknc0HN/WObBO6zsa3pG+b+dqJEGe3RyPBRDUvvfpAoouOB+XMaUjXpuXKbK9PcfdeW/PMZJe5/2J7WCzMd2WHSAuKnv7XpCy5/32P+62G57v3XsrFrcOgvxy+7d4jE4iHXnjlKBfubovuQWyTPYH1X30FjuanQPwdpqPVcgo4ym6QJE94s6TNEER1HLVmTk5STtPTv/9369lNm1uQLp4Xmpyqw0w4P7b8kfYW0gHjZ2Np4gbu/RabfS3a75LebhbfXBZm7OI0q3jxv/2VG+UD5mLRhrHc0/ddrQF4t+VXEiTLr357yo/k2HQDKUEDOa5zdcFrfRm6rnSzb2uceOpgfeqAINxQARuO3DV19zx/LP/zn4wcDW0+OqID6wwt2ATEAQOnNvK5vPeUjefbkh99C+UC5ufz+sf7bfxQQywcUEFSESe8hBQAARu+es4+rDUyXkgQqMH8bc3f4RwGpOzK1UeJbEVSiQat5oCXzfJIAAGB0Dpo46dUubyAJlL+BBBvGXUBs0YoRkw2QJiohNPsIKQAAcOBcMjO9myRQodnb+E/B2juQfS1hokKel2vJPJsYAAA4MLm2zMt56jkqJyhOAZH0N8JE5dhHyQAAgAM8ajpnD6Biwl2794x54eJRBcTMKCCo4J5UL954fuMzCQIAgCfW39p4jqRnkAQqwx8Yz4NKH1VAQoX3ECgq2kFCfZgUAAB4kumf9DFSQMXmaz6+s6YeVUCCAqdgoeJe1t/S9FxiAABg/1j9QMULsNm9RSsg+RrdS6So/KD2T5MCAACPc5xk9QMVZlbEFZDZHdltMm0nVlTYs3NtmZcQAwAAjzbQ0vhysfqBSpdgV/FWQPbValZBEIVu/RmXjBwAAPin0MQdI1FxhWKugOwtIEYBQQSqteYOtDSdTxAAAOyVa2taIFY/EIFZWs1BQZELiIUUEERjdJt/JtuemUASAICqPybOm5eW++dIAhEwUHdFz67iFhAP1pArIuL4wwt6GzEAAKpd/9StF0s6kSRQ8TIsWz3en/FvBST0MEu0iAyzj21oOXEaQQAAqtXAhc2TJf84SSAKAoWril5ARg7bdZekAvEiIjX78MBqPkIQAICqPRTu9ndLqicJRIJZ8QvIMZetGzRpLekiQrvet29oOeUEcgAAVJv+9tOme+jvJglEZlbmNu6zpYL9/mBzTsNClNQEVvgCMQAAqk5h+GMyHUIQiApLpYt/Dci+BrKKeBExC3g4IQCgmqxvzxznsjeTBCJkc33HHVtKU0BMFBBEr3G7feOes4+rJQkAQDVIF4IvS6ohCURIUc6S2v8pWOJOWIgel46bPGki58ECABIvd37ji10+nyQQqbmYFecsqf0WkOEpu1eLO2Ehmj7Sv+DUo4kBAJBU2fbMBBX0dZJA1AQelq6AcCcsRNgkT+W/TAwAgKQ6PAzeJdMckkDkeFC6U7AkyWV3kjKiOfjVygXpAIAk2tDaPEvuHyYJRHEGNuiplSUtIJLfQc6IcAn5zt4nwwIAkBwphV+SdDBJIILWHrP4zh0lLSAWGgUEEWZHF3aGHycHAEBS5Foyz3bpFSSBiCpaN3jcAhKEfjs5I9IVxPTO3IKmuSQBAIg7nzcvbWbflGSkgWhOvMpQQGYs6dskqZ+0EWFpBb7I581LEwUAIM4Gpj34TpeaSQJRFYRaWbSf9ST/O6dhIeqeNjD1wXcQAwAgtuWjvfkYd3FaMSJtuDBStLOjnriAOAUE0efSJwfam48hCQBADI9hVij49yVxYxVE2eajlqzJlaeABNwJC7FwUFgIf+CcNwsAiJn+1szFJn8+SSDiitoJnrCApBRQQBAXzxtoybyNGAAAcbG5PVMns/8hCUSee/kKyJGdvWtl2k7qiMVnw+wLmxY0PpUkAABxkC/YN+Q6nCQQdaagqHfHDZ74l8nl9mdiR0xMLgS63NvbU0QBAIiyjW2ZcyW1kQTiIAz9T2UrIJLkcgoI4uSZ/flVlxIDACCqtrXPPdTcvk0SiAOT5WZe17e+rAUkCFkBQdw+KfaZje3NcwgCABBFg4WhL0uaSRKIg1IsRjxpAcnXhH+W5MSPGJmkQngZDygEAETNxtbMfEkXkwRiVED+VOyf+aQFZHZHdpvk9xA/4sSkMwembf0QSQAAomKgpflIky0iCcRrThWUv4Ds+9V/In7ErrG7f3RDS9NZJAEAqPgxSbJCEP5A0gzSQIzkg8m2oiIFxLgQHfGUDsyv3Hr2cYcQBQCgknJtTW8318tJAjHTU3dFz66KFBAPAwoI4urYwUm1XyMGAEDFykdL40nm/gWSQAyVpAMcUAGpP3JCj6Q9bAPEkcku6m9rfAVJAADKLduemSDTlZIOIg3Ebg5lXrkCYotWjMjFKghiy13fzbVnjiIJAEA5TQ31SUlPIwnEUVCwmytWQCTJTb9jMyDGDlPefuwLD3zMAwAwHrnWpv9wt/eSBGJq44zFfX+raAFJuf+e7YBYM80b6G36CEEAAEptfXtmquRXjGauBUSKW8nm/gf8oQjzE/8kaZitgVh/ltw/vuH85heQBACgZMcayVKhfiiJU38RXyU8++mAC0jD0hW7Jf2VrYGYC4IwvGpze6aOKAAApTDQ2vQRuZ1HEoh3k/bKr4CU+oUAZTRjpBBc5e3tKaIAABRTf2vmeS7/OEkg5rbUd/fdFYkCYh5QQJAIJn9+f2H1+0gCAFAsm9szdS77iSS+4ELcZ0q/M8kjUUDS4fDNkvJsFCTEJ3MtmWcTAwBgvHzevHS+YB2SOMUX8R/PKu1ZT6MqINOXrHlE0p1sFiREWmZX58494QiiAACMR//UrV+UxJdaSEYB8QgVEEly03I2CxJklibUXM7zQQAAYy4frZnzJX8HSSAhts48JdsbqQJi8t+wXZCsmm9n53oaP0YQAIDRWt920vEu+74kIw0kYlrkutEWKoxUASkEh/xe0iCbB0li0kf7FzSdTRIAgAO1Zf6cKSlPdUk6lDSQnDlR6RcbRl1AZnfcusfcb2HzIGECT/lVm9qajiUKAMCT8YUK8ukJV0pqJA0kakKUTkWvgEhSqODXbB4k72iiwwvuXevbz5pEGACAJ9Lfm/mSy+eTBBI2Gbq7rqNnbSQLiJlRQJBUp6QKj3yXGAAAj2djW+Mb5PZOkkDi6oeVZ5FhTAWkvqvnDkmb2UxIqAs3tjZeTAwAgMfKtTb9h7m+TRJIpFDRLSAmuUk3sZWQVCZ9I9fWeDpJAAD+bu91gt4paQJpIIHyk9ITlke2gEhSaOI0LCTZRLk6B1qajyQKAMD69szUgofLJPHwWiTVn6d2rHgo0gXEPfgV2wkJd1Ro4TV+ydwaogCA6uWXzK1JFexayU4gDSSVmZVtbj/mAjKrq2eDST1sLiTcc3Nbh/+XGACgevVvHfq6pOeRBBJdtOU3RL6A7H2h+jmbC4n/RsD97VyUDgBVWj7aGt8r11tIAkkf6vWdfStiUUBCNwoIqqOESN/Ond/8HJIAgOqxsS3zKnd9niRQBa43yWNRQGae0vtnSZvYZqgCNQrDaza0Ns8iCgBIvoGWzPPN7UfjnSsBceBlXlQY14fKFiqU2y/YbKgSdYHC63hSOgAkW66t8fTQ7DpJtaSBKjBUkw5vjE0BkSSzkNOwUE2expPSASC5Ni1ofKpcP5d0MGmgKpjfdGRHdmesCsiEPUO/kjTM1kMVuTDXmvlvYgCAZNnQ2jyrEPhvJM0gDVQLV3BDuX/nuAvItGX3Pizp92w+VNnXBV/OtTa2kAMAJEN/+2nTAw9/KdnRpIFqEhRSZT+bqTgXVhm340X1fV4lXTXQ2nwmUQBAvG1rn3uohyPLZDqZNFBVTL31i+9cF8sCYoX0dSrjrbuAiJgUKuzOtZ70FKIAgHjKnTv3oMH84FK55pIGqo7bdZXpPcX6ALc1/pUPL6r064OsTF8nBwCI4wTMXymeco6q7R/h02Z2rrqj3L83Xbx3oE6JAoKq/Phm5OLOWAAAIE7WVqJ8SEV8uE7BCteyHQEAAIDoM1lHpX530QrI7M7V90jqY3MCAAAAEReGnbEvIJLkUidbEwAAAIi0DXWLs39JRAFJFYwCAgAAAESaXWsVvINtUQtI3XW9vXKtYaMCAAAAEeVhRRcNghK8o262KgAAABBJA/Xpk29NVgHxgLthAQAAABHkZp3W0VFIVAFpWNy7Qq5VbF4AAAAgYsx/UumXEJTkfZmuYesCAAAAkXJ/w7V9t1b6RZSkgAShrlQFr6wHAAAA8G+usgjM0UtSQGYs7vubpL+wjQEAAIBoCDy4OhKvo3Q/2q9mMwMAAACVZ1JPXXdPX6ILSDqln0oqsLkBAACAynKzyCwOlKyAHNmRHZD0WzY3AAAAUOH+UUj9NPEFRJLc7SdsbwAAAKCibqlffOe6qiggk9ITuiTtZpsDAAAAlWGmSC0KlLSATO1Y8ZCkbjY7AAAAUBGDw4P20yi9oKDUvyAMgh+x3QEAAIAKcOt+yvW926uqgMy8tucmSfex9QEAAIAy9w955BYDSl5ATHKXrmDzAwAAAGW1oSF90k1VV0AkKQjTl0kKGQMAAABAufiPrKMjcs/lK0sBqV985zqXLWcQAAAAAOVpH6nQfhzFFxaU6xeZORejAwAAAGWpH/rdjMV9f6vqAlIIpnRK2sFoAAAAAErLFN0v/8tWQGZ33LpHpp8yHAAAAICSesgOTnVWfQGRpDD07zAeAAAAgNIx+RV1V/TsooBImtWdXenSnxgWAAAAQIkKiKe+G+XXF5T9F7p/m2EBAAAAlID7H+q6e/ooIP9i5+DQzyRtYXQAAAAARWZB5C95KHsBOX7ZvUNy58noAAAAQHE9OHTII10UkP1IuX1LPBkdAAAAKBoz/8Exl60bpIDsx76HotzEMAEAAACKwvMKfxCHFxpU7Dcbt+QFAAAAijS5/uXsztX3xOGVpiv1i+u3Tr+uf+qDGyTNYsAgtlwPy+35BAEAcZ636f/J/PUEgVhPSSz8Vlxea8UKiC1fns+1NX1T7p9jyCC2AhUaOntXEAQAxFd/W2bA3QgCMe7Qure+KXu9OuPxeoNK/vKRQX1X0i6GDQAAADA2odnXbGF8bvBU0QLylOt7t0u6kmEDAAAAjIHr4Ym791wep5ccVDyzVPC/kpzRAwAAAIxyLh1o0bRl9z5MARmFmR09ayT9iuEDAAAAjEohFQTfituLDqLwIiy0rzF+AAAAgFHNorvrOnrWUkDGoG5x7y8krWYQAQAAAAfIw1h+iR+NFRDJTf4NRhEAAABwQG5v6M7eTAEZT4EbmXiZpC2MJQAAAOBJ5s7uX4zra49MAWlYumK3mbEKAgAAADyxtQ3bp19LASmCfBB+Q9JOxhQAAACwf2b6oi1fnqeAFMHsjuw2yb7PsAIAAAD2a3M+mHJZnN9AELUXFMq+LGmYsQUAAAD8m6/N7rh1DwWkiGZ19Wxw+U8YWwAAAMCjPDIUpr8V9zcRRPFFmQVfkBQyxgAAAIC93PWdYxbfuYMCUgINnb13yXwpwwwAAACQJA0VCiNfTcIbCaL6wsIw+ALjDAAAAJAkXXHUkjU5CkgJzeruvdXcb2SsAQAAoMoVClb4n6S8mSDKLy5M2ccYbwAAAKhmJl0+u3P1PRSQMph5bd8fXXYTww4AAABVqlDw1OeT9IaC6L/EkFUQAAAAVCWXXzGre+XdFJAymtmVvUWu5Qw/AAAAVJmCe/pzSXtTQRxepKX0CcYfAAAAqorblUlb/YhNAam/tm+5pN8xCgEAAFAlCp62zyXxjQVxeaEmZxUEAAAA1eKqmR09ayggFVTflf0t14IAAACgCuQLVvh0Ut9cEKcXa+7vl+SMSQAAACSX/zBJz/2IdQGpX5y9zWRLGZQAAABIqEEv2KeT/AaDuL1gc/uwpJCxCQAAgKRx0zdmXte3ngISIXXdPX1y/YThCQAAgITZmQqDLyb9TQZxfNHm6Y9KGmaMAgAAICnM7It13T2bKSARVL/4znUufZ9hCgAAgIR4cMLuPV+thjcaxPWFpzz4hKRHGKsAAACIP//MtGX3PkwBibB9y1PfYLACAAAg5h4YOmTXd6rlzQZxfvE1+ZHPSdrEmAUAAEBsuX3omMvWDVJAYmD6kjWPmPyTjFoAAADEk91Rf0rv1dX0joO4v4G61MnflSzL4AUAAED8ZuP2DltYXc+4i30BsY6Ogsnfz+gFAABAvCay6mq4tucPVde5kvAm6rv6rpf0a0YxAAAAYmK4oMIHqvGNB0l5I6H7eyUVGMsAAACIPPNvzu5cfQ8FJMZmdWdXmnQ5oxkAAADRLh/aHoaFz1Tr2w+S9GZG8iMfkbSLUQ0AAIDIcv/krO67tlJAEuCoJWtykn+eUQ0AAICIumfXnqFvV3MAQdLe0K49Q1+U/G7GNgAAAKLGQnvH8cvuHaKAJMjxy+4dctN7GN4AAACImO76xb3Lqj2EIIlvamZndqmkGxjjAAAAiIg9QSp4NzEktIBIUiHl75A0xCYGAABApbn0P3UdPWtJIsEFZHZH9l65/y+bGAAAABW2PjU5+CIxJLyASJLyEz8l6QE2MwAAACrG9d91V/TwqIhqKCANS1fsdvMPsJkBAABQCeZ+Y0N3XxdJVEkBkaSGzuxPXXYTmxoAAABlNuRB8F/EUGUFxCQPLf8WSYNsbgAAAJSLS59v6Oy9iySqrIBI0uzO1feYxBPSAQAAUC73DB+yk/lntRYQSdqW8s9JWs0mBwAAQKmFQfDWYy5bxxk41VxAMh3ZYcneIsnZ7AAAACgZtx/PurbnRoKo8gIiSQ1dvb93+Y/Z7AAAACiRbYHsfcRAAflnIfXCeyRtYdMDAACg+HNNe09dd89mkqCA/MOs7ru2Gq0UAAAAxff7hu7ey4iBAvJv6rp6f2zunJcHAACAYhmU2ZuN640pIPtjkstr3ijpEYYAAAAAxsvdFvLMDwrIE6pffOc6N/sQQwAAAADjY3c0TJ/wFXKggDyphqbeb0n6PcMAAAAAYzQcFPR6W7RihCgoIE/eVRcqDFLBRZJ2MRQAAAAw6vmk2WfqruvtJQkKyAGr6+hZK7OPMRQAAAAwqvIh9WwLws+TBAVk1Oqber8q6WaSAAAAwAHKe2hvyHRkh4mCAjL69rpQoaeCN0oaJA0AAAA8KdcXGhb3riCIMcy9ieCf+tsa3+uu/yEJjMKQ5D8mBgCI9XToDEmnkANGoW/XnsHTj1927xBRUEDGV2QXKuhf2XijTPNIAwAAAPsxFLqfMas7u5IoxoZTsP61jS1UaJ7+T7keJg0AAAA8lss/RvmggBRV/eI717nsv0kCAAAAj3FLQ+rkLxPD+HAK1uPItTZ1SH4+SQAAAEDSzkLKT5vdkb2XKMaHFZDHMzL0VkkDBAEAAAB3u5TyQQEpqYaldz8o9/+U5KQBAABQxcyvm9nd+yOCoICUvoR0Z38h6QckAQAAULW2pEbszcRAASlfQJOD/5Z0F0kAAABUHXfzi2cs6dtEFBSQsqm7omdXULBXiKekAwAAVJuvzOzMLiUGCkj5S8h1vb2Sf5AkAAAAqoRpxfaUf4ggShEtDohLNtDatNjl80kDAAAg0XZ6Kjh9ZkfPGqIoPlZADrypuY8MXWyyHGkAAAAk2tsoHxSQSNh7a169WlKBNAAAAJLHpJ81dPVdQRIUkMio7+79naQvkAQAAEDi/G3CnsFLiIECEr0Ssu2Ij0v6I0kAAAAkxpBCu2DasnsfJgoKSOTY8uX5UMEFkraQBgAAQALmd6Z3NizuXUESZciaCMZuoCXz/NDsV5JSpAEAABDbCfFP67v6XkUS5cEKyDjUdWdvMulTJAEAABBTrjXp/AjXfVBAYlRCmvs+JfNlJAEAABA7Oy3trdOXrHmEKCggsWELFRYCvVbydaQBAAAQK2+r78iuIgYKSOzM7shus1AXSBomDQAAgOgz6f943gcFJNbqF2dvc+k9JAEAABB5t+3cM/heYqhY+UMx5Vobr5T0GpIAAACIpM1K+dMbOrIPEEVlsAJSZEOH7HyjpL+QBAAAQOSMWKALKB8UkEQ55rJ1g0r5+ZI2kwYAAEB0mPs766/tW04SFJDEaejIPuDyVnFROgAAQFRcXt+d/SYxUEASa2ZX9hY3ezdJAAAAVJZLf9q1Z5CHDUYEF6GXWK618XuS3kgSAAAAFTEQKnj6rK6eDUQRDayAlFj9EbVvk3QzSQAAAJTdiILgFZQPCkhVsUUrRvL5kQtMliMNAACAMnJ/e8O1PX8giIjNj4mgPHKtzU+Twt9LmkwaqDYTU7WHTe1Y8RBJAOXX39p4tUuvJAlUYfn4SkN3lutxI4gVkDJp6Oq5Xa7XSQpJA9VmZGhoIikAFZqDSXz+UH3Ml9WnT34fQVBAKCHdfV2SPkISqDaFWq8lBaBiMzEKCKptzGcnBhNfZR0dBbKggEBSQ1ff5yRfRBKoJmE+zQQIqBR3Pn+oJgNKhS/jtF8KCB5je0r/T9LvSALVIz+JDIAK9Q/jFCxUjd0mn9/QkX2AKCggeIxMR3a4kPJWSfeQBqpBWppGCkDFDvRHkAKqoWu7+Rvru7J/IQoKCB7H7I7sNk8F58q0nTSQdKEFdaQAVGhWJs0gBVSBD8/szF5NDBQQPImZHT1rZMF5kgZJA8meAYVMgIAKGLiwebKkKSSBRDP73t5rbEEBwQFpuLbnDy6/QBJ3akByjw0B38ACFfnsPRKy+oiku75+67S3EQMFBKM0syu7RCYelIPE8tBmkgJQfgXzelJAgt0WTA4usOXL80RBAcEYNHT2fU3Sl0kCiWR2PCEAFSj/ZnNIAQl1Xyqv+XVX9OwiCgoIxqG+q++9kq4gCSRwGnQiGQCV+OiJAoIkejD01NkzlvRtIgoKCMbJJN+e8jdK+g1pIGEO3dye4Vx0oNwHeRPlH0mzJ3SbP6t75d1EQQFBkWQ6ssNDYbpdUh9pIEkKbkyEgDJzOSsgSJJ84HrFrO7eW4mCAoIiO2bxnTvy+ZGXSFpLGkjMRKigZlIAymdze+ZgyZ5KEkjKYcTM31jX3fdzoqCAoESOWrImlwr1Ikn9pIFksDPJACifQkFPl5QiCSTiCCK9t74z+2OSoICgxGYs7vtb4MGLJW0jDcT/6OFnEAJQPm4BnzkkYyxLn6jv6uNOoRQQlEtdd09fYOHLJO0kDcTcsZvmN/JAQqBsszZKP5JQpO2bM7v6FpIEBQTlLiGdq/7srlZJw6SBOMunmRABZcTnDXF3RUNT76XEQAFBhczs7vu1zC6QxNM+EeMdjr2QFIDSGzivqUkST0FHbJm0tH7bEW+whQpJgwKCCmro7F3s0lskOWkgjlx6KSkAZfisBf4SUkCM/XbwkJ2vsOXL+dKVAoIomNnV9wO5v5kSgpg6ftOCRm4LCpS+glD2EUsm3VqTHznvmMvWDZIGBQQR0tCd/Z5M7yQJxFGY0otJASidgQubJ7vZs0kCMXT78JCdM33JmkeIggKCKJaQzr6vyeyDJIG4cdd5pACU8DO2q3C2pFqSQNzKx1CYfsFTru/dThQUEES6hPR+3qSFJIGYecFAS/ORxACUqICYvYoUECcm9YSef/Exi+/cQRoUEMRAfVffJyT7NEkgRtIehG3EABTflvlzpsh1NkkgPo1Za1Ipf8ms7ru2EgYFBDHS0NX7UUmfIwnE5njjeiUpAMWXT6VbJE0iCcTEPfnCyPOP7MgOEAUFBLEsIX0fkuyrJIGYeHauPXMUMQBFLvdmryYFxKV8FFKp5x21ZE2OKCggiHUJ6X0np2MhNvuevF1CDEDxbGprOlbSi0gC0W/KWlNIpZ43u2PlRsKggCAZJeSjLn2CJBB5pouz7ZkJBAEUR+h6M8d1xMDqGitQPiggSJqZXX0L3e0DJIGIq5sa2gJiAMbvnrOPq3X5RSSBSDPdaama507vWt1PGBQQJLGEdPd+geeEIOrc9TZSAMZv8sRJ50vi9taIsr8WAn9BfccdW4gCFJAE2/ucEH+7JCcNRNRzN7Q0nUUMwDiZv4sQEOnykfKXzO7IbiMKUECqQH1X9luSvVVSSBqI5E4oCN9PCsDYDbQ0vlzS00gCEXVz7Z7BF1A+QAGpMg1dvd916RJJBdJA5LjNHzivqYkggLEJTZxui4ju3/WrYHLw0mnL7n2YMEABqUIzu/p+YPJXShomDUSMhQETKGAs+luanivpmSSBCO7ar92e9nPrrujZRRaggFSx+q7stSZ/qaRHSAPROk75BRvbTj6NIIDRcXOe/YQourx+27RXZTqyfOkJCgik+q7sb03+AklbSQNR2heZpz5LDMCBy7U0tkp6NkkgUkxfr+/qu8iWL88TBigg+NcS8hdL+X9I4iFAiBB/6caWRp7iDBzIp2XevLRMrH4gWt3D/AsNnX3vMO6+CQoI9ltCOrKrglTwHJPuJQ1E5+ClL/pC9kvAkxk4fMubJZ1EEohKJ5bpv+s7szwEGRQQPLG6jp61I/mR50rqIw1ExCn9KzMXEwPw+HLnnnCEmy0kCUTEsLu/uqGz72tEAQoIDshRS9bkavIjz5TrV6SBSDD7/EBLM090Bh5PuvZLko4gCETATpnPn9md/SlRgAKCUZm+ZM0j29N+ruQ/IQ1EwNRQ4ZeJAfh3udam/5D560gCEdAfhv6chs7sL4kCo2VEgL9zyXKtjR836eOkgYqPR7MXzezs/Q1JAHtl2zMTDi/YneLaD1R+wrBKaT+7oSP7AGFgLFgBwb+2UZ/Z1bdQrndICkkEFR2P7ou2nn3cISQB7HV4Xp+gfCACc4VbQ+X/g/IBCgiKqqG77+uSzpe0hzRQQccMT5r4VWIApI2tmWfJ7L0kgQq3j658asoLZnXfxbPEMN4iC+zfvnONF8t1OGmgglobuvq6iQHVauvZxx0yNGninZKOIQ1UjPtX6k/JvtcWcoYExo8VEDyuhq7e30v2TJ4VggpbtKX1pHpiQLUanFT7NcoHKihvprc1dGffTfkABQTlKSGdvXflU36GXMtJAxVyxIhS1/olc2uIAtUm19L0GpNdRBKokEdMWlDf2fdtogAFBGU1uyO7bXvaX+Lyy0gDFfLM3JahzxADqsn6tsZmmS8iCVTIWrPwrPquvuuJAsXGNSAYlVxb4zvk+grlFRXg5nZBfXdvB1Eg8TO/BaceVhvk/yrpqaSBsu9spT+l81owY0nfJtJAKTCJxKg0dPZ9Ta52SbtJA2Vmbv6DXEsjtyFFsid/CxVMSOWvoHygQq7avWdwHuUDJT2gEwHGItfWeLq5XefyBtJAmd0XeHBWXXfPZqJAMvevma/I7Z0kgXJ3X5N9vK6r99MmOXGAAoJIemD+nIZUuqbTpDNJA2X2V43UPrdh6QpW4pCw8tF0idy/SxIos50m/8/6ruy1RIFy4BQsjNlRS9bkdu8ZnCfp+6SBMjtdNUOX+0L2YUiO/gVNZ8v9mySBMvtb4MFZlA+UEysgKM6BsyXzdjf7X0ncKhXl3IN9vaGz7x0EgbgbaG0+M1T4a0kHkwbK6JcjQ/aqp1zfu50oUE58e4iiqO/OflPuz5c0QBooG9eluZbGTxME4mx9W2NzqPB6ygfKyvT1+tRJ51A+UJnhBxTzQNp+ysxUodAl6RmkgTL6UENX3+eIAXGzoeWUEwIr/E5SHWmgTAbN/c313dnLiQKVwgoIimp2x8qNhdSUeXJdSRooo8/m2ho5FQuxsmlB41MDK9xE+UAZrQ3dz6R8oNJYAUHJ7Luby/9JmkAaKMsOzezj9Z29nyQJxGD/eKLcfyNpJmmgTG4opPzC2R3ZbUQBCgiSfZBd0DRXgXdIOoY0UJ4S4l+o78x+gCQQVRvbTj7NPPilpOmkgTIouPTphua+T9pChcQBCgiqwoaWE6cFQeoKuZ1NGigHN/tmQ2fv/+NhWoia/tbM0132C0lTSQNl8KACvabh2r5fEQUoIKi+CeFCBf09mQ9JtlBSikRQBpdvT/mbMh3ZYaJAFGxsy5xrbldLmkwaKIObC6nUK2d3rNxIFKCAoKr1n984z0NdLS66RHncopHhBQ1L736QKFBJuZbMm2T2LUlp0kDp+aLtKf0/voABBQTYZ9+ten8q6dmkgdIfh7XKPH1O/eI71xEGyj78FiroX5n5oszeRRoog4fkekNDd18XUYACAjz2oDxvXrp/6paPSfYhcUoWSm+TgqC94dqePxAFymXr2ccdMnRQ7eVyO480UIYJ3a0K06/myxZQQIAn0d/S9Fw3v1LSLNJAieXd7SMzu3u/QBQotY3tzXMsH3bJdDJpoMRcpv+rn1b7Hlu0YoQ4QAEBDsDaBaceVpvKL5KrnTRQ+kO1XR0cbG+qu6JnF2GgJOWjpek8M/+xpENJAyW2We6vb+jO/oIoQAEBRjsnlCzX2vhfJn1RUi2JoMR7vl4L/JX1HdlVhIFiWXvR0RNrHzn4C3JdShoogxssVXNRfccdW4gCFBBgHPrbTs64Bz+V1EgaKLFBmT5Q39n3dZ4XgvHKtTSepEA/ketU0kCJjbj0WR4sCAoIUEQDFzZPDncVviLZmxijKMNOcKlSNRfzLSLGwiUbaMm8zc2+KGkSiaDEA26VB+FrZ3auuoMwQAEBSqC/tfEcl74vnhmCMvRemb21obN3MVHgQG08r3G2pfQdSS8jDZSh636tkDr4Q7M7bt1DHKCAACW0dsGph9UGI9+U7NWkgZIf4U0/D4PUW3hyMJ5sJtjf1vQmhf5FmQ4hEZTYgJldXN/ZewNRgAIClFF/S1O7B/5duQ4nDZTYDpm9v76z93tcG4LH2rSg8an5wBaZ/PmkgTLM0joKgb9ldkd2G2GAAgJUQK49c5QKdpmk55EGyuB3BdOlszv7eogCuXPnHuQ1Q+8z6f2SJpIISuwhmf6robPvSqIABQSoMF+oYGBl47vc9CkmASiDvMm/MzwUfOwp1/duJ44q3OdIlmvJXGB7LzLngakox9TsF4VU8EZOBQUFBIiYXFvTiXL/gaRnkgbK4EEzfaxuWu33edJwNe1nGk+X68uS/oM0UAY73O1dDd29l3H6JyggQET940JQ9y9LOphEUAb3y+yz9cGJP7COjgJxJLV4NJ0o+SflOp/jJMrkhlDBm2d19WwgClBAgBgYaG8+xvOF77nZC0gDZdp1Zs31ifru3g6ySI69t9X1j0j2BklpEkEZZmHbJftAQ2fvIsIABQSImX9ZDfmSpCkkgjLtQe+00P+3Ln3yVayIxNemtqZjC/J3yHWJuLYM5TpumX5eGBl581FL1uRIAxQQIMZyrSc9RZ5aJNOLSQNltNrMv1A3beJPuEYkPjYsyJyaCuwDLp0vKUUiKJMBud7e0N3XRRSggABJKiJtja/dd/HokaSBMnrA5d90L/xgVvddW4kjenyhglxv5hwL7b9kehHHQZRz+En+vZGh4APcVQ8UECCh1i449bDaVP4Tcv2XpIBEUEZDMi1x01dnXtv3R+KovG3tcw8dDIcukusdko4hEZS5e9xt0lvqu7K/JQuAAoIqkDu/+TkqhN+R6WTSQNmnHdKfzOxHQ4XUNccsvnMHiZQx+4UKBnoyz3XZRZLaJU0iFZTZHkmfqj+i9kucnglQQFBtE5FL5tb0bx16m1yfkTSZRFABQ276dRDa5XXbp3Xb8uV5IimNjec1zlZgrzbzN0l6KomgMgceLfd08JaZHT1rCAOggKCKrW/PHJcq2LckvYg0UEH9btYVeNhZlzr599xBa/z23o47bJOp1aUzOb6hksPRzd81szN7NVEAFBDgn7O/1sz5LvuypKNIAxW2RWaLFYZdQ4fuWn7MZesGieQAZ3ktzY1hEJ4nV6ukp5EIKiwv2TcmpiYsnNqx4iHiACggwL9Z337WpKDwyPtNer+49z+iYY+kW9ztN+b6Tf3i3ttNcmLZa3N75uCRUM8z18sleylfICAyXMuD0C6tu663lzAACgjwpDa1NR0buv7X5fNJAxHzgKTlMrvFgvDmuo7s6moqJP3tp00P8/lnKvBny/Vsk54unteBiH1Gze099d29HUQBUECA0U92FjSd7UH4VclOIA1E1DaTbnHpTxbaHekgf+f0rtX9SXhj69vPmlQTPtQchsFpJj3dTc+UdCKbHBE1KNmXNDLhcw1LV+wmDoACAoxZtj0z4bB88E4z/7CkKSSCGBiQ+R1yu9PM1xTC4O4gP3RPw9K7H4zii73n7ONqDz5ownHuwQkuP97cmmR2muQnitUNxGLm5NelFLxrRmfvfYQBUECAotncnqnLh8En5f4GJkWI6d59u1z3yO1vUtgv03qX9Zv7xiCd2jhBNduKfaHs2ouOnjh51+TDRkKvT4XBzNBspnvYEMhmuWm25MdLdpR4MCji+aG6I/DwPXXd2ZvIAqCAACUz0NLcGFr4JUkvIQ0kkMu0Q67tkj0k+Q5JBcnyMn9EksxVcLchBX7Qvn8yQW77nqVjU+R+mEyHSTpU3MwBybTRZB+pa+693BYqJA6AAgKU5+jT1vRCc/+SpFNIAwCqwm4z/7/0SP4z05eseYQ4AAoIUHa+UMHAysxr3ewLkupIBAASKZSpU4G/p6Ej+wBxABQQoOI2t2cOzhf0PsneKelgEgGApMyKfFkY6jugjVwAAAftSURBVIOzurMrCQOggACRs6HlxGmpIPVed3uHOPcdAGLLpT8F8g/Vd2V/SxoABQSIvI3nNc62lH9EsjdISpMIAMRmGpQ11yfqunuvraaHfAIUECAhcm1NJ0r+SbnO57MFAJF2v8w+Wx+c+APr6CgQB0ABAWJeRBpPV6jPyPRi0gCASNko2afqj5jwQ1u0YoQ4AAoIkKyj3PmNz5Trg+Z6OWkAQEVtdrevhOmDvz6749Y9xAFQQIBE29DSdJYF/iGKCACU3SZ3+1+KB0ABAarSQGvzmQULP2yuc/jsAUBJrZfpy0NTdn73mMvWDRIHQAEBqtqGBZlTg5R9iIvVAYDiAVBAAJRNbkHTXAX6gOStkgISAYAxu8tNX9wR+JWZjuwwcQAUEABPYFNb07EF+TvkepOkSSQCAAc8jbnDPPxqXfrkq7idLkABATBKAy3NRxYsfJuZLpXrcBIBgMd1i5t/YWZndilRABQQAOO0Zf6cKSM1NW+Q672SZpIIAEiSQjfdELh/sr4r+xfiACggAIps7UVHT6x9ePJrJXuHpEYSAVCVXA/L7Icp0//N6Oy9j0AACgiAMsi1ZJ6twC6Vq1VSikQAVIG17vbd/LAWPeX63u3EAVBAAFTApgWNTw1T/iZ3e7Okw0gEQALdYm5fq9s+rduWL88TB0ABARABW88+7pChgyb+p9z/W7KjSQRAzA3LdF2g8Mt1nav+TBwABQRARPlCBbnepueb/BJOzwIQQxtd+n7Kg2/VdfdsJg6AAgIgRta3nzIzKBTeZNJbJR1JIgAiKpR0k7ktqkuf2MXzOwAKCICYy7ZnJkzNB+e5+SWSXsDnHEBEDJj5j1Wo+U794jvXEQdAAQGQQP3tmZNVsLe49BpJU0kEQJmFcv1GgS+qnzZxiS1aMUIkACggQBW45+zjag86qPbFJrtQrhZJaVIBUELrzfwnFqS+W9fRs5Y4AFBAgCr2wPw5DanUhAvN/GJJx5MIgCIZlGmpyxY1dPbeaJITCQAKCIBHyS1omqsgvESyV0maQiIAxjCTWCHZopqR4aunL1nzCIEAoIAAeFIDFzZPDnf6Apm/StKLJdWQCoAncJeZXZ0Pwp/M7sjeSxwAKCAAxuz+c5oOnzAhPNfNLhR30QLwTxtl6lToHQ3d2ZuJAwAFBEDRbWhtnhVY2CZXu6RnkQhQdXZIWurmHQ1bpy+z5cvzRAKAAgKgLPrbTs6EHrSb1CapkUSAxM4Mtiu0JYH82q1p/1WmIztMKAAoIAAqaqC9+ZgwDOfvWxl5JvsSIPa2Sbrezf9/e/fSG2UZhnH8fz/vtBbQHmhKD3aaYBuRDpA2E00qSa1JNS6siZBZuvVz8DlcuZ+YEDABTDdiGzVaS4QpAVqDDKHQIoyFlpa+89wuKJ4WTUQrPVy/3WyvmczMPzPv+xQrgXOKDhFRgIjIpnWrkOsi2odrMTIABK0isiXcBc64ebGjue6sDgkUEQWIiGw5N48d6Uwsjjg+gtvbQJ1WEdlULuH+uSd2uuPQpW/sBFGTiIgCRES2hXJhYFeID48aPrJ2+npWq4j871LgW3c7TcZOvlz88YomEREFiIjsCLPHe3MxJu+b+Qj6q5bIRpoHzprb6drlR+eaz0wvaBIRUYCIyM6OkUJ/C2k65BaHwd4DurSKyDNbBsbcbdSc0fa+i5P6a5WIKEBERNZx5/jhV6owDD6M8y7QoFVE1vUT+Kh5GM1UH59tOXXlgSYREQWIiMgzKBVytXvd3vTIO8BbwOtArZaRnR4cjp83D6NJ1UdbT126o0lERAEiIrIByoWBXUm6kHfCUTMf5smJ7Lu0jGz34ADGMRuzavJF+8kL1zWJiChARESeg1IhV9uU8gZmg8AgTw5CfEnLyBZWNSgBX4KfD6l9pV84REQBIiKySXmhkNyOpdeIlvdgeeAoTj+6y5ZsXr8C3zmMYz4RA+PZYumeZhERBYiIyBY1V8i9mKb08UeQDAKtWkaegxTnKuZj5owTfKLts6kpA9c0IqIAERHZxm58cKAjqcnkiaHXzHM4eYyDeh+U/9ADjKs4UxgTRJ9YaVj8fv+n15c1jYiIAkREhHIht9c86U+qsd+NPrA+8FeBGq0j63942i3HL+I+acEmU6qTnYcvz+j8DRERBYiIyD/iQ0OZueZfulJi7vdfS4xenF50962d+Cl5H2cKvITZlGOlzKpf1EXiIiIKEBGRjQ2Tj/M1s/MrPWaec7MD7t5jTjdmPUC7FtrSFoFpjBlzm3biteihtOrJ5f0nL1Q0j4iIAkREZFO5/dGRPatLsTuJ9Fig+2mcuNl+oBMdpLgZ3AFuGMy4M2Nm0x5sJmPVa/uKpduaR0REASIisi042N1jB9vSGLKekMXJYnThIet4Z8C6HG9Dtw3+NyMvYFbG4g2cshFu4vFnjHKaUE73LN7UheAiIgoQERF5+v35BGHuh0MtnoSWNKE1VL0Niy04rW60GdYC7AOaMZpwGrf5+/ciUAGrgM+Bz+I2T2DeYTaJzBHifAw2W6V+Plv8+pFeRSIiChAREdlA9wr5huXqUmP00JgQGj3QZE6jExvBdpt5vXt4AeJusD0YtWvhksGox60O/M8X1Wewv50oH0kw6tcerWAs/bWceLwWC09VMRZwVoAlzBfBHoNVcE/NfCFGViAsWeC+4ZUYuR/MK6nFSibUVdqaQsU+mVjVMywisn39BrGeUxjgkItKAAAAJXRFWHRkYXRlOmNyZWF0ZQAyMDIyLTA3LTI4VDEzOjMwOjEwKzAwOjAwulDAlgAAACV0RVh0ZGF0ZTptb2RpZnkAMjAyMi0wNy0yOFQxMzozMDoxMCswMDowMMsNeCoAAAAASUVORK5CYII=;opacity=20;" vertex="1" parent="hlh9XajdtWrO3LSi_3L6-51">
          <mxGeometry x="14.83" y="10" width="45.17" height="44.78" as="geometry" />
        </mxCell>
        <mxCell id="hlh9XajdtWrO3LSi_3L6-55" style="edgeStyle=orthogonalEdgeStyle;rounded=0;orthogonalLoop=1;jettySize=auto;html=1;entryX=0;entryY=0.5;entryDx=0;entryDy=0;endArrow=none;endFill=0;dashed=1;" edge="1" parent="1" source="hlh9XajdtWrO3LSi_3L6-41" target="hlh9XajdtWrO3LSi_3L6-52">
          <mxGeometry relative="1" as="geometry" />
        </mxCell>
      </root>
    </mxGraphModel>
  </diagram>
</mxfile>
